<?xml version="1.0" standalone="no"?>
<!DOCTYPE svg PUBLIC "-//W3C//DTD SVG 1.1//EN" "http://www.w3.org/Graphics/SVG/1.1/DTD/svg11.dtd" >
<svg xmlns="http://www.w3.org/2000/svg" xmlns:xlink="http://www.w3.org/1999/xlink" version="1.1" viewBox="-10 0 13141 2048">
   <path fill="#FFF"
d="M5880 1136c0 73 -14 130 -43 169c-25 7 -58 3 -97 -12c-32 -12 -59 -32 -82 -59c-24 82 -76 123 -155 123c-39 0 -68 -19 -85 -56c-9 -17 -14 -36 -16 -59c-6 11 -25 31 -57 59c-15 10 -36 17 -63 22c-32 4 -59 3 -81 -4c-9 1 -23 -6 -41 -20c3 -36 18 -71 43 -106
c21 -29 82 -69 182 -120l-10 -44l46 -78c7 34 15 83 25 147c3 47 7 79 14 97c13 36 36 54 67 54c35 0 66 -15 91 -46c10 -13 12 -43 6 -90c-5 -39 -16 -80 -31 -125l33 -116c8 39 22 92 41 157l21 78c9 26 25 47 46 63c17 13 48 19 93 17c-13 -25 -32 -65 -57 -120l-49 -114
l34 -112c22 60 46 116 72 169c35 69 53 111 53 126zM4308 356c-24 50 -61 82 -110 97c-17 5 -42 6 -75 5c0 -4 15 -14 44 -31c30 -17 45 -28 45 -35c-2 -3 -14 -6 -35 -9c-23 -3 -44 -4 -61 -1c-8 1 -28 14 -45 14c7 -23 16 -39 26 -50c19 -21 47 -32 82 -32
c59 -1 102 13 129 42zM3740 466c1 1 -8 9 -28 24c-24 18 -52 27 -85 27c-5 0 -11 0 -17 -1c-29 -3 -52 -24 -55 -24c-17 -1 -34 5 -52 18c-10 7 -20 15 -30 23c1 -14 9 -32 23 -53c17 -25 35 -39 54 -42c15 -3 40 15 60 7c31 -57 63 -86 98 -86c11 0 21 3 30 10
c11 8 17 20 17 36c0 15 -5 35 -15 61zM4018 885c0 43 -9 72 -26 87c-6 -23 -18 -59 -36 -108c-9 -21 -26 -50 -49 -85l29 -64c17 8 36 33 55 76c18 41 27 72 27 94zM3720 846l80 55l-50 76l-77 -54zM3651 1125c0 56 -18 102 -53 139c0 -41 -8 -105 -25 -191l-63 -325
l43 -151l90 472c5 29 8 47 8 56zM3197 770c1 17 -4 35 -15 53c-13 21 -28 31 -47 31s-33 -6 -43 -18l-16 27c-8 10 -22 15 -41 16c-24 1 -43 -14 -57 -43c-5 -10 -5 -26 -2 -49s7 -34 14 -34c5 0 8 5 9 15l2 19c5 19 20 28 44 28c19 0 28 -19 25 -58c-1 -9 0 -16 3 -19
c5 -6 7 -10 8 -13c2 0 5 8 10 23c5 18 9 30 13 35c5 8 14 13 25 16s20 1 26 -5c4 -5 0 -22 -11 -53c1 -2 5 -10 10 -25c5 -13 9 -19 12 -19c7 10 16 22 28 37c1 3 2 15 3 36zM3395 733l48 326c-2 35 -5 61 -9 79c-7 31 -18 56 -33 73c-23 25 -57 38 -104 41
c-15 63 -43 115 -84 157c-35 37 -74 61 -115 73c-23 6 -50 8 -82 6c-34 -2 -70 -12 -107 -30c-33 -17 -55 -33 -64 -49c60 11 102 15 127 13c48 -3 92 -14 131 -34c50 -26 96 -70 137 -132c-29 -19 -44 -43 -44 -74c0 -5 0 -10 1 -15c6 -37 14 -55 25 -55c1 0 2 1 3 4
c7 26 29 39 66 39c41 0 71 -9 88 -28c6 -6 6 -26 0 -60l-62 -372c-16 -6 -23 -29 -21 -70c3 -58 23 -89 61 -92c-1 17 4 45 16 82c6 10 16 19 31 28l32 19c0 1 -7 23 -21 66zM3161 323l-88 115l-1310 534c-2 0 -3 -1 -3 -2c0 -7 10 -25 31 -56s37 -50 47 -57
c439 -185 773 -321 1004 -406c157 -58 263 -101 319 -128zM4698 967l-42 80c-18 -1 -48 -4 -90 -9c-37 -5 -60 -7 -67 -7c-121 0 -214 10 -279 31c24 21 36 53 36 95c0 20 -4 37 -13 52c-20 34 -41 51 -62 51c-15 0 -38 -6 -68 -18c-29 -13 -51 -24 -64 -35
c-6 20 -15 36 -27 47c-13 13 -36 19 -69 18c-2 23 -8 45 -17 68c-20 54 -73 108 -158 161c-88 55 -218 103 -391 144c-129 31 -271 46 -428 47c-251 1 -469 -44 -654 -135c-82 -41 -136 -70 -163 -87c-48 -32 -93 -74 -134 -126c-93 -3 -162 -14 -207 -33
c-4 13 -18 32 -42 56c-5 1 -10 2 -17 2c-29 0 -73 -10 -132 -31c-11 20 -30 49 -59 86c-32 29 -70 47 -115 54c-35 6 -90 6 -165 0c30 -10 78 -32 145 -67c81 -41 125 -70 131 -87c-9 -14 -13 -32 -14 -54c-1 -29 9 -65 29 -108c19 -39 48 -63 89 -72c47 55 97 95 150 119
c63 29 140 44 233 45c145 1 252 -9 320 -31c42 -14 99 -42 170 -84c4 10 2 25 -5 46c8 6 32 9 71 10c33 1 69 -7 106 -23c31 -13 62 -27 93 -41c-36 -21 -66 -36 -91 -45c-44 -17 -88 -26 -131 -27h-30c-62 0 -86 1 -72 3c41 -87 89 -131 146 -131c21 0 56 12 103 36
c69 35 117 58 143 68c75 28 170 42 287 42l-54 91c-45 0 -109 1 -191 2c-9 1 -70 24 -183 69l-85 36c-22 7 -46 11 -71 11c-5 0 -20 -3 -44 -9c-9 -2 -24 -7 -43 -15c-35 22 -96 42 -183 59c-79 15 -149 23 -208 23c74 78 206 142 396 193c164 44 313 67 446 68
c166 1 353 -28 562 -86c225 -62 357 -130 396 -203c5 -10 7 -23 5 -38c-3 -26 -19 -50 -46 -71l35 -106c17 15 35 37 55 66c13 11 39 11 77 0c22 -6 40 -25 55 -56c17 -37 32 -60 47 -70c20 -14 49 -28 87 -43c29 -11 72 -23 128 -34c-52 -19 -105 -28 -160 -28
c-35 0 -62 5 -79 15c-1 -3 -2 -7 -2 -11c0 -11 4 -24 12 -39s12 -25 12 -28c37 -37 81 -55 130 -55c16 0 40 7 72 21c42 17 84 35 126 53c123 49 211 74 262 75zM2629 1327l92 60l-71 75l-66 -45l-58 60l-82 -68l62 -62c14 11 35 24 62 41zM1892 1411c-2 15 -14 34 -37 59
c-114 77 -212 120 -295 131l55 -65c42 -15 134 -56 277 -125zM5390 1141c-61 19 -103 48 -125 85c67 5 111 -6 131 -34c-1 -16 -3 -33 -6 -51zM4197 1159c-13 -37 -29 -54 -48 -53c-23 2 -34 9 -34 21c4 7 18 15 42 22c20 7 33 10 40 10zM1710 1249c-23 -11 -51 -35 -84 -72
c-7 9 -17 25 -29 49c45 19 82 26 113 23zM5077 1125c0 56 -18 102 -54 139c0 -41 -8 -105 -25 -191l-62 -325l43 -151l90 472c5 29 8 47 8 56zM4852 1067l5 39c-2 35 -5 61 -10 79c-7 32 -17 56 -32 73c-23 25 -57 38 -103 41c-1 19 -9 47 -24 84c-18 47 -39 83 -62 107
c-35 36 -73 60 -114 72c-23 7 -51 9 -82 6c-69 -4 -122 -27 -161 -70c-9 -9 -20 -25 -35 -48c-7 -17 -11 -41 -11 -73c15 27 24 44 28 50c15 22 31 39 49 50c31 19 59 27 85 26c48 -3 92 -14 131 -34c57 -29 103 -84 138 -166c-29 -18 -44 -43 -44 -74c0 -5 0 -9 1 -14
c6 -37 14 -56 25 -56c1 1 2 2 3 5c8 26 30 39 66 39c41 0 71 -9 89 -28c6 -7 6 -28 0 -61l-84 -419c-16 -6 -23 -29 -22 -70c3 -58 24 -89 61 -92c-1 17 5 45 17 82c5 10 16 19 31 28l32 19c0 1 -7 23 -21 66c-4 1 -11 2 -20 5l33 169c21 108 31 163 31 165zM6044 1125
c0 56 -18 102 -54 139c0 -41 -8 -105 -25 -191l-63 -325l43 -151l90 472c6 29 9 47 9 56zM3101 1208c-2 14 -14 34 -36 59c-115 76 -213 120 -295 131l54 -66c42 -13 134 -55 277 -124zM4045 1496c-3 15 -15 34 -37 59c-115 76 -213 120 -294 131l54 -65
c41 -14 134 -56 277 -125zM4644 333c-2 15 -14 34 -36 59c-114 77 -212 120 -295 131l55 -65c41 -14 133 -56 276 -125zM4074 461c-2 14 -14 34 -36 59c-74 49 -158 87 -252 114l54 -65c23 -8 101 -44 234 -108zM5676 446c-1 14 -13 34 -36 59c-114 76 -212 120 -295 131
l55 -66c42 -13 134 -55 276 -124zM5377 1405c-3 14 -15 33 -37 58c-114 77 -212 120 -295 131l54 -65c42 -14 135 -55 278 -124zM6454 1501c-1 15 -13 34 -36 59c-62 39 -149 71 -262 98l55 -65c117 -39 198 -70 243 -92zM3643 454c31 4 68 -11 68 -26c0 -9 -6 -13 -19 -13
c-14 0 -30 13 -49 39zM5129 449c1 2 -8 10 -28 24c-24 19 -52 28 -85 28c-5 0 -11 0 -16 -1c-31 -3 -53 -25 -56 -25c-17 0 -34 6 -51 19c-10 7 -20 15 -31 22c1 -13 9 -31 23 -52c17 -25 35 -39 54 -43c8 -1 18 1 30 6c11 5 21 5 31 1c30 -57 62 -85 97 -85
c11 0 21 3 30 10c11 7 17 19 17 36c0 15 -5 35 -15 60zM5032 438c32 4 68 -13 68 -26c0 -9 -6 -14 -18 -14c-15 0 -31 13 -50 40zM4598 638c1 17 -4 34 -15 52c-13 21 -28 31 -47 31s-33 -6 -43 -18l-16 28c-8 9 -22 14 -41 15c-24 1 -43 -13 -58 -43c-4 -10 -5 -26 -2 -49
s8 -34 15 -34c5 0 8 5 9 14l2 20c5 19 20 28 44 28c19 0 28 -19 25 -57c-3 -19 10 -28 11 -33c2 0 5 8 10 23c5 19 9 31 13 36c5 7 14 12 25 15s20 1 26 -6c3 -4 -1 -21 -12 -51c1 -2 5 -10 11 -25c5 -13 9 -20 12 -20c6 10 15 23 28 38c1 3 2 15 3 36zM5670 715
c1 17 -5 34 -16 52c-13 21 -28 31 -47 31c-18 0 -32 -6 -42 -17l-16 27c-9 9 -22 14 -41 15c-25 1 -44 -13 -58 -42c-5 -11 -5 -27 -2 -50s7 -34 14 -34c5 0 8 5 9 15l2 19c6 19 21 28 44 28c20 0 28 -19 25 -58c-1 -9 0 -15 3 -19c5 -6 8 -10 8 -13c3 0 6 8 10 24
c5 18 9 30 14 35c5 8 13 13 24 15c12 3 21 1 26 -5c4 -5 0 -22 -12 -53c2 -1 6 -10 11 -25c5 -13 10 -19 13 -19c6 10 15 23 28 38c1 3 2 15 3 36zM6399 1364c-5 13 -19 31 -43 56c-5 1 -10 1 -16 1c-29 0 -74 -10 -133 -31c-10 21 -30 50 -59 87c-32 28 -70 46 -115 54
c-35 6 -90 6 -165 0c31 -11 79 -34 145 -67c82 -41 126 -70 132 -87c-9 -14 -14 -32 -15 -54c-1 -29 9 -65 30 -108c18 -39 47 -64 88 -73c28 33 66 63 115 90c38 22 99 45 183 69c25 7 99 22 223 43c160 27 320 46 481 56l486 21c204 9 386 14 545 13
c395 0 862 -32 1401 -95c469 -55 838 -125 1109 -210c101 -31 173 -69 218 -113c5 5 9 12 10 21c0 7 -3 22 -10 45c4 7 10 15 18 24c20 13 42 19 66 19c79 0 133 -36 163 -109c9 2 14 15 15 40c0 9 -1 18 -2 28c0 9 5 14 14 17c41 2 68 -16 83 -54s26 -56 33 -55s9 10 8 25
c-3 18 -2 29 2 34c11 10 38 18 79 24c39 6 59 -7 62 -40c1 -20 -7 -45 -26 -76l-51 -84c-11 -1 -26 -4 -43 -8c-11 -3 -21 -10 -29 -20c-21 -29 -32 -62 -33 -99c-1 -42 11 -75 34 -99c57 35 106 89 147 162c35 67 53 130 53 189c0 118 -40 177 -119 177
c-33 0 -72 -12 -115 -36c-15 40 -46 62 -93 66c-31 2 -56 -9 -74 -33c-25 37 -68 56 -128 56c-49 0 -90 -18 -122 -53c-61 23 -124 45 -188 64c-255 76 -607 141 -1056 196c-543 66 -1013 100 -1409 103c-153 1 -338 -2 -557 -11l-407 -14c-137 -7 -271 -20 -404 -40
c-181 -27 -285 -44 -314 -49c-109 -20 -182 -41 -217 -62zM6307 1301c-23 -11 -51 -35 -83 -72c-8 9 -18 25 -30 49c45 19 82 26 113 23zM6082 456c1 1 -8 9 -27 24c-24 19 -53 28 -86 28c-5 0 -10 0 -16 -1c-29 -3 -53 -25 -56 -25c-16 0 -33 6 -51 18c-10 8 -20 16 -30 23
c1 -14 8 -31 23 -52c17 -25 35 -39 54 -43c7 -1 17 1 28 6s22 5 32 0c30 -56 63 -84 98 -84c11 0 21 3 30 9c11 8 17 20 17 37c0 14 -5 34 -16 60zM5986 445c31 3 68 -12 68 -27c0 -9 -6 -13 -19 -13c-14 0 -30 13 -49 40zM11250 516c-25 50 -61 82 -110 97
c-17 5 -42 7 -75 5c0 -4 15 -14 44 -31s44 -28 44 -34c-1 -3 -13 -6 -35 -9c-23 -3 -43 -4 -60 -1c-8 1 -28 13 -45 13c7 -22 16 -38 26 -49c19 -21 47 -32 82 -33c59 -1 102 13 129 42zM11666 1422c-2 15 -14 35 -36 60c-62 38 -149 71 -262 98l54 -66
c117 -39 198 -69 244 -92zM11478 1280l80 56l-50 75l-78 -54z" />
</svg>
