<svg width="130" height="162" viewBox="0 0 130 162" fill="none" xmlns="http://www.w3.org/2000/svg">
<path d="M61.3984 8.02832C62.3206 8.82677 56.5438 22.1051 56.5438 22.1051C56.5438 22.1051 47.9045 48.5658 26.2584 55.0533C25.5518 55.2689 61.2986 8.16406 61.3984 8.02832Z" fill="#A13730"/>
<path d="M123.861 63.5886C122.2 58.7419 120.464 52.8374 111.062 40.9404C102.542 30.1573 93.4999 27.0473 77.2393 15.1384C63.1985 4.85426 67.8176 0.426825 66.3604 0.818067C66.3604 0.818067 60.5836 32.2532 71.4505 45.1043C82.3175 57.9515 95.2684 53.3803 102.123 86.7477C102.123 86.7477 101.309 95.399 95.9272 94.6684C89.7791 93.838 92.6815 85.067 92.4739 84.9192C91.3281 84.0809 90.1503 89.2189 87.2959 100.254C85.0442 108.953 73.6503 106.282 73.2511 95.8261C73.2311 95.3231 73.5425 90.8118 73.6064 90.3128C74.1773 85.8894 76.1215 78.1124 77.3391 70.3954C78.425 63.5207 69.8137 63.0296 66.037 75.8129C65.8654 76.3878 65.6777 76.9547 65.4741 77.5176C61.4978 88.676 59.9887 115.58 50.1198 128.595C50.1198 128.595 45.9679 134.252 39.2249 138.152C32.3902 128.467 34.1747 116.203 34.1747 116.203C43.317 110.973 45.0417 107.06 45.0417 107.06L39.6601 96.1934C44.4308 85.0191 43.8759 74.7629 43.8759 74.7629C43.5805 57.0811 26.0265 53.6917 10.7121 74.4555C-1.9833 91.6742 -5.54041 134.839 14.2653 148.093C24.8009 155.147 33.6118 153.319 39.5523 150.057C41.756 152.389 44.4987 154.552 47.8842 156.425C71.9576 169.731 97.4522 156.828 110.251 142.711C123.047 128.595 137.774 103.403 123.861 63.5886ZM15.5867 138.851C-3.81175 128.491 -0.917346 88.2688 24.8288 73.5413C50.579 58.8138 38.4384 95.7862 38.4384 95.7862C38.4384 95.7862 27.6234 103.811 27.4717 104.422C27.316 105.028 32.446 115.185 32.446 115.185C32.446 115.185 28.4258 128.191 33.524 140.683C28.33 142.316 22.2059 142.388 15.5867 138.851ZM72.5684 149.414C60.4478 150.468 52.096 148.392 46.3551 144.839C47.2893 143.873 47.7844 143.218 47.7844 143.218C61.0826 127.441 63.5978 104.038 64.0489 98.3852C64.1207 97.467 64.7355 93.0036 64.9152 92.0973C68.0451 76.3798 74.329 75.7131 73.2431 81.3981C71.3507 91.3348 70.8797 99.0359 71.5304 105.208C71.8657 108.366 72.9237 111.432 75.0995 113.747C81.1637 120.211 88.8569 115.684 89.328 107.671C89.8869 98.1217 90.7492 96.4968 90.7492 96.4968C90.7492 96.4968 89.8988 103.352 94.3023 107.264C99.9913 112.314 107.05 103.962 107.609 93.2471C108.167 82.5319 113.194 74.0523 113.194 74.0523C114.922 60.4905 110.451 55.6679 110.451 55.6679C110.108 55.5082 110.802 58.5623 107.912 62.3709C104.874 66.3752 99.8037 72.639 99.8037 72.639C99.8037 72.639 99.7877 68.3633 96.6378 59.0174C93.4919 49.6715 83.08 42.4095 73.5824 33.8302C64.0848 25.2468 66.4722 11.5852 66.4722 11.5852C68.4803 27.1671 91.4279 35.7544 99.2807 40.8366C118.971 53.5759 124.42 74.3038 126.093 85.9333C127.77 97.5628 116.344 145.606 72.5684 149.414Z" fill="url(#paint0_linear_511_1052)"/>
<path d="M70.8794 140.679C74.4976 140.679 77.4308 137.746 77.4308 134.128C77.4308 130.51 74.4976 127.577 70.8794 127.577C67.2612 127.577 64.3281 130.51 64.3281 134.128C64.3281 137.746 67.2612 140.679 70.8794 140.679Z" fill="#CFB167"/>
<path d="M88.8168 134.687C91.5376 134.687 93.7433 132.481 93.7433 129.76C93.7433 127.04 91.5376 124.834 88.8168 124.834C86.096 124.834 83.8904 127.04 83.8904 129.76C83.8904 132.481 86.096 134.687 88.8168 134.687Z" fill="#CFB167"/>
<path d="M103.951 124.227C106.083 124.227 107.812 122.499 107.812 120.367C107.812 118.234 106.083 116.506 103.951 116.506C101.819 116.506 100.091 118.234 100.091 120.367C100.091 122.499 101.819 124.227 103.951 124.227Z" fill="#CFB167"/>
<path d="M56.1244 53.7118C55.9328 54.0152 55.9009 54.3905 56.0446 54.7179C56.348 55.4125 57.2582 56.5184 59.9011 57.7001C64.3006 59.6643 65.3865 64.0318 65.5901 65.0818C65.7937 66.1318 63.2746 68.603 63.2746 68.603C63.2746 68.603 63.3904 65.4531 56.7911 61.2891C50.1879 57.1252 52.9905 54.2388 55.9008 51.3364C57.5217 49.7195 62.9352 45.7512 65.4583 47.9829C66.7997 49.1726 71.4667 50.3224 60.456 67.018C49.3415 83.8694 32.9213 92.6404 24.0864 91.5585C24.0864 91.5585 44.6387 82.1448 55.1663 70.635C65.6939 59.1253 63.7976 50.51 59.9051 51.4721C57.35 52.0989 56.4598 53.1848 56.1244 53.7118Z" fill="#CFB167"/>
<defs>
<linearGradient id="paint0_linear_511_1052" x1="64.8932" y1="0.794312" x2="64.8932" y2="162" gradientUnits="userSpaceOnUse">
<stop offset="0.244792" stop-color="#006D34"/>
<stop offset="1" stop-color="#00522C"/>
</linearGradient>
</defs>
</svg>
