<svg viewBox="0 0 57 73" fill="none" xmlns="http://www.w3.org/2000/svg">
<path d="M28.1325 64.3177C43.6696 64.3177 56.265 51.8161 56.265 36.3946C56.265 20.9731 43.6696 8.4715 28.1325 8.4715C12.5953 8.4715 0 20.9731 0 36.3946C0 51.8161 12.5953 64.3177 28.1325 64.3177Z" fill="#275B3D"/>
<path d="M28.133 59.933C41.2304 59.933 51.848 49.3945 51.848 36.3946C51.848 23.3946 41.2304 12.8561 28.133 12.8561C15.0355 12.8561 4.41797 23.3946 4.41797 36.3946C4.41797 49.3945 15.0355 59.933 28.133 59.933Z" fill="#E6F1EB"/>
<path d="M45.8572 19.1285C50.3247 21.2515 53.3317 20.2349 55.2344 17.7388C51.361 17.1197 47.92 13.3009 44.5594 10.9071C37.2487 5.70046 32.9498 8.23938 28.1212 0C23.2931 8.238 18.9942 5.69908 11.6835 10.9057C8.32198 13.2994 4.88238 17.118 1.01172 17.7374C2.91487 20.2335 5.92165 21.2502 10.3889 19.1271C15.3802 24.4888 17.0259 10.2628 28.1212 19.6054C39.217 10.2643 40.8627 24.4903 45.8554 19.1286L45.8572 19.1285Z" fill="#275B3D"/>
<path d="M28.1323 14.2869C29.9043 14.2869 31.3408 12.8611 31.3408 11.1022C31.3408 9.34343 29.9043 7.91763 28.1323 7.91763C26.3603 7.91763 24.9238 9.34343 24.9238 11.1022C24.9238 12.8611 26.3603 14.2869 28.1323 14.2869Z" fill="white"/>
<path d="M45.8572 52.876C50.3247 50.753 53.3317 51.7696 55.2344 54.2657C51.361 54.8848 47.92 58.7036 44.5594 61.0974C37.2487 66.3041 32.9498 63.7651 28.1212 72.0045C23.2931 63.7665 18.9942 66.3054 11.6835 61.0988C8.32198 58.7051 4.88238 54.8865 1.01172 54.2671C2.91487 51.771 5.92165 50.7544 10.3889 52.8774C15.3802 47.5158 17.0259 61.7417 28.1212 52.3991C39.217 61.7402 40.8627 47.5142 45.8554 52.8759L45.8572 52.876Z" fill="#275B3D"/>
<path d="M28.1323 57.7177C29.9043 57.7177 31.3408 59.1435 31.3408 60.9023C31.3408 62.6611 29.9043 64.0869 28.1323 64.0869C26.3603 64.0869 24.9238 62.6611 24.9238 60.9023C24.9238 59.1435 26.3603 57.7177 28.1323 57.7177Z" fill="white"/>
</svg>
