<svg viewBox="0 0 542 922" fill="none" xmlns="http://www.w3.org/2000/svg">
<path d="M189.235 908.334C204.977 927.704 221.318 908.109 228.213 912.92C231.453 915.182 229.137 919.901 225.913 917.176" stroke="#004525" stroke-width="1.49878" stroke-miterlimit="10" stroke-linecap="round" stroke-linejoin="round"/>
<path d="M179.317 902.905C183.256 902.723 186.91 904.261 190.459 907.878L189.663 908.65C184.349 903.242 178.916 902.821 172.368 906.002L171.886 905.012C174.49 903.748 176.953 903.011 179.317 902.905Z" fill="#004525"/>
<path d="M113.766 904.696C112.097 904.542 110.368 905.012 108.522 906.185L109.047 907.021C112.346 904.914 115.113 905.328 118.046 907.695L118.666 906.916C117.048 905.609 115.436 904.851 113.766 904.696Z" fill="#004525"/>
<path d="M12.3125 520.754C12.0463 520.81 11.8623 521.063 11.9171 521.33C13.0212 526.653 12.6335 531.106 10.9514 536.732C10.6754 537.659 10.3671 538.607 9.96398 539.808C9.77014 540.384 9.04605 542.519 8.88803 542.989C8.04455 545.49 7.46724 547.323 6.95666 549.289C5.18682 556.102 5.91724 563.399 8.77847 568.666C8.9084 568.905 9.22023 568.996 9.45901 568.863C9.6978 568.736 9.7863 568.42 9.65637 568.181C6.91734 563.139 6.19114 556.13 7.90058 549.549C8.40414 547.611 8.97301 545.77 9.81017 543.298C9.96679 542.835 10.7127 540.693 10.9079 540.11C11.3145 538.902 11.6151 537.933 11.8953 536.999C13.6202 531.225 14.0234 526.632 12.8828 521.126C12.828 520.866 12.578 520.698 12.3125 520.754Z" fill="#004525"/>
<path d="M17.7555 857.121C13.1497 860.45 11.0568 863.92 11.127 867.417C11.1818 870.142 12.5422 872.684 14.7482 874.988C15.5291 875.803 16.3494 876.526 17.1845 877.158C17.398 877.32 17.5876 877.446 17.7772 877.573C16.1085 878.921 15.2264 879.813 14.7046 881.197C13.8892 883.353 14.3113 884.961 16.504 890.748C17.6543 893.775 18.1937 895.573 18.4353 897.504C18.738 899.927 18.403 902.041 17.2723 903.959L16.9211 904.394L16.8333 904.506C16.4822 904.949 17.0265 905.525 17.4914 905.209C19.7002 903.699 22.2313 903.299 25.3489 903.741C26.9038 903.952 28.3499 904.31 30.7919 905.033C36.4926 906.712 38.1809 906.986 40.2514 906.045C41.5907 905.434 42.4243 904.506 43.6527 902.751C43.7833 902.919 43.9125 903.067 44.0699 903.256C44.7118 904.022 45.4499 904.78 46.2646 905.497C51.5601 910.132 57.2832 910.441 62.5499 903.537C63.0218 902.919 63.4959 902.252 63.9545 901.522L63.1202 900.995C62.6777 901.704 62.2346 902.35 61.7816 902.947C56.9082 909.338 51.8108 909.072 46.9016 904.766C46.1269 904.092 45.4274 903.348 44.8164 902.617C44.6029 902.364 44.4266 902.147 44.2679 901.936C44.1731 901.81 44.1008 901.718 44.0699 901.676C43.8732 901.388 43.4518 901.388 43.258 901.676C41.8491 903.769 41.1349 904.584 39.856 905.167C38.1079 905.96 36.4841 905.679 31.077 904.092C28.5915 903.355 27.0963 902.975 25.481 902.751C22.7995 902.378 20.5043 902.645 18.4353 903.607C19.3441 901.683 19.7072 899.668 19.4228 897.392C19.1692 895.362 18.6025 893.494 17.4261 890.397C15.3465 884.912 14.9385 883.367 15.6261 881.548C16.1254 880.227 16.8846 879.448 18.8743 877.903C19.1468 877.692 19.1243 877.271 18.8307 877.095C18.7823 877.067 18.6818 877.011 18.5449 876.919C18.3145 876.765 18.0554 876.575 17.7772 876.372C16.9815 875.768 16.1921 875.079 15.4505 874.307C13.399 872.165 12.1636 869.833 12.1145 867.389C12.0513 864.257 13.9623 861.089 18.3258 857.936L17.7555 857.121Z" fill="#004525"/>
<path d="M35.9714 819.238C34.1595 819.161 32.266 819.372 30.3311 819.835C23.5341 821.465 17.4226 826.24 15.8016 831.248C12.3989 841.755 15.9519 852.605 24.2954 859.249C32.8518 866.062 44.5502 867.017 55.2634 860.83C55.4986 860.696 55.5963 860.387 55.4607 860.148C55.3252 859.917 55.0154 859.839 54.7802 859.973C44.4196 865.956 33.1516 865.043 24.91 858.484C16.8804 852.086 13.4713 841.663 16.7455 831.55C18.2499 826.908 24.0623 822.357 30.5503 820.798C37.8937 819.035 44.4877 821.296 48.3062 827.912C50.0852 830.988 49.458 835.076 47.0989 837.892C44.7349 840.722 41.5394 841.242 38.9345 838.749C38.7379 838.566 38.4197 838.58 38.2322 838.777C38.0447 838.966 38.058 839.289 38.254 839.479C41.3076 842.394 45.1648 841.762 47.8666 838.531C50.4764 835.413 51.1611 830.89 49.1616 827.427C46.1227 822.167 41.4067 819.47 35.9714 819.238Z" fill="#004525"/>
<path d="M61.7815 864.187C61.5378 864.067 61.2429 864.165 61.1235 864.411C61.108 864.439 60.4247 865.872 60.3769 865.963C60.0567 866.602 59.7512 867.136 59.4112 867.74C53.0721 879.026 55.2233 890.664 63.6911 899.063C71.4883 906.796 82.995 909.921 91.6518 906.262C97.436 903.818 101.658 897.582 102.406 890.657C103.215 883.17 99.904 876.308 92.7495 872.354C89.2583 870.423 84.7712 871.21 81.7315 873.914C78.588 876.702 78.0577 880.593 81.0292 883.591C81.2203 883.781 81.5391 883.781 81.7315 883.591C81.9247 883.402 81.9226 883.079 81.7315 882.889C79.1927 880.326 79.6372 877.102 82.3903 874.658C85.135 872.221 89.1649 871.498 92.2663 873.211C99.064 876.962 102.209 883.444 101.441 890.544C100.728 897.132 96.6965 903.06 91.257 905.363C82.9971 908.854 71.9033 905.834 64.371 898.361C56.2066 890.263 54.1537 879.111 60.2674 868.225C60.615 867.607 60.9282 867.059 61.2548 866.406C61.3033 866.307 62.0091 864.875 62.0231 864.847C62.1425 864.601 62.0253 864.306 61.7815 864.187Z" fill="#004525"/>
<path d="M54.6046 864.474C50.9898 868.084 43.5726 872.397 37.6177 874.216C32.7324 875.712 31.4745 875.669 29.3873 874.089C28.6814 873.548 28.4216 872.656 28.6414 872.003C28.8303 871.434 29.2924 871.287 30.046 871.758C30.2757 871.905 30.5812 871.835 30.7259 871.603C30.8705 871.378 30.8024 871.069 30.5728 870.929C29.2953 870.121 28.0957 870.507 27.6975 871.694C27.3421 872.748 27.7558 874.068 28.7945 874.855C31.1852 876.667 32.7464 876.716 37.9028 875.143C44.0074 873.275 51.5531 868.899 55.2852 865.177C55.4776 864.987 55.4769 864.664 55.2852 864.474C55.0934 864.285 54.7971 864.285 54.6046 864.474Z" fill="#004525"/>
<path d="M54.1657 866.82C51.5889 868.941 47.9748 872.741 44.5749 876.702C43.7468 877.664 41.2002 880.284 37.3761 884.118C37.2876 884.203 30.0812 891.366 29.782 891.668C29.5903 891.858 29.5903 892.174 29.782 892.37C29.9744 892.56 30.2926 892.56 30.4843 892.37C30.7821 892.068 37.99 884.884 38.0784 884.8C41.9278 880.937 44.4688 878.324 45.3214 877.334C48.6869 873.415 52.2807 869.665 54.8027 867.593C55.012 867.417 55.0408 867.101 54.868 866.891C54.696 866.68 54.3757 866.652 54.1657 866.82Z" fill="#004525"/>
<path d="M56.0752 867.635C53.5743 869.011 47.325 877.081 45.1675 882.819C42.9524 888.718 44.3901 895.875 47.9326 895.903C49.7586 895.917 50.8121 895.074 50.8514 893.817C50.8851 892.764 50.135 891.696 49.2276 891.619C48.9572 891.605 48.7219 891.816 48.7009 892.083C48.6798 892.356 48.8912 892.588 49.1616 892.609C49.4826 892.637 49.8822 893.22 49.8639 893.796C49.8429 894.477 49.2627 894.927 47.9326 894.913C45.3487 894.899 44.0761 888.529 46.089 883.17C48.1699 877.636 54.2597 869.742 56.5359 868.492C56.774 868.358 56.8646 868.07 56.734 867.832C56.6026 867.593 56.3133 867.501 56.0752 867.635Z" fill="#004525"/>
<path d="M25.4367 765.953L25.0196 766.852C33.1025 770.603 39.1186 774.775 43.0164 780C47.8842 786.517 49.0409 794.299 45.7821 803.724C43.0635 811.583 35.9581 818.585 28.751 819.983C20.4103 821.605 13.5831 818.501 10.3812 812.658C7.39705 807.208 8.52216 800.985 13.4531 797.839L12.9264 797.01C7.52978 800.444 6.30565 807.243 9.52506 813.114C12.9355 819.337 20.1708 822.652 28.9265 820.952C36.5031 819.477 43.8992 812.222 46.726 804.054C50.0901 794.327 48.8702 786.187 43.8065 779.403C39.7921 774.03 33.6538 769.767 25.4367 765.953Z" fill="#004525"/>
<path d="M25.9417 734.258C23.263 734.061 20.4475 734.525 17.667 735.754L18.0624 736.653C28.5466 732.018 39.568 739.23 40.6903 749.491C41.6265 758.053 34.9742 766.529 27.5219 768.039L27.7192 769.002C35.6561 767.393 42.6709 758.46 41.6778 749.379C40.7837 741.211 33.9769 734.848 25.9417 734.258Z" fill="#004525"/>
<path d="M117.621 886.225C108.886 886.654 100.505 893.115 97.686 901.107L98.3238 901.072C103.114 890.706 115.316 884.49 125.906 888.452C135.115 891.9 138.949 897.525 138.776 905.637L139.744 905.679C139.927 897.146 135.857 891.127 126.256 887.532C123.48 886.492 120.533 886.078 117.621 886.225Z" fill="#004525"/>
<path d="M138.798 905.195C138.555 909.725 136.572 912.913 133.439 914.578C130.774 915.996 127.476 916.116 125.155 915.034C123.723 914.367 122.198 912.59 121.552 910.617C121.434 910.258 121.328 909.893 121.257 909.535L120.3 909.739C120.379 910.132 120.492 910.532 120.623 910.926C121.352 913.152 123.056 915.125 124.737 915.912C127.343 917.127 130.966 916.994 133.898 915.435C137.34 913.608 139.507 910.125 139.767 905.258L138.798 905.195ZM124.968 901.487C122.804 901.592 120.931 903.327 120.829 906.656L121.797 906.677C121.91 902.989 124.442 901.795 126.77 902.821C126.908 902.884 127.131 903.095 127.212 903.305C127.296 903.53 127.24 903.706 126.977 903.888L127.544 904.696C128.181 904.247 128.358 903.586 128.117 902.954C127.943 902.498 127.544 902.091 127.166 901.922C126.436 901.599 125.69 901.451 124.968 901.487Z" fill="#004525"/>
<path d="M27.2585 711.433C26.7536 711.503 26.2374 711.587 25.7219 711.721C22.638 712.514 19.7192 714.39 18.6987 716.244C15.2602 722.487 16.6388 729.279 22.5832 733.317L23.1324 732.502C17.62 728.759 16.3537 722.515 19.5548 716.7C20.425 715.12 23.1191 713.413 25.9635 712.683C26.4417 712.564 26.9249 712.465 27.3899 712.402L27.2585 711.433ZM31.1213 712.36L31.0335 713.343C35.824 713.807 37.1942 717.227 35.6421 720.191C35.536 720.394 35.2088 720.668 34.8962 720.76C34.55 720.872 34.2648 720.774 34.0183 720.366L33.184 720.893C33.6707 721.687 34.4137 721.939 35.1814 721.708C35.7425 721.532 36.2917 721.09 36.52 720.654C38.372 717.122 36.6703 712.894 31.1213 712.36Z" fill="#004525"/>
<path d="M139.727 904.886L138.772 905.132C140.905 914.079 149.19 918.981 157.905 916.558C160.55 915.821 163.791 912.653 165.726 908.959C166.05 908.348 166.342 907.716 166.579 907.098L165.661 906.747C165.438 907.33 165.153 907.92 164.846 908.503C163.026 911.972 159.984 914.95 157.639 915.603C149.461 917.879 141.731 913.293 139.727 904.886ZM158.617 893.164C158.11 893.129 157.635 893.185 157.173 893.298C156.562 893.459 156.003 893.803 155.751 894.316C155.417 894.99 155.675 895.77 156.478 896.563L157.167 895.847C156.636 895.32 156.532 894.969 156.651 894.73C156.753 894.527 157.058 894.344 157.418 894.253C160.529 893.459 165.523 897.188 166.323 901.458L167.281 901.283C166.495 897.083 162.164 893.382 158.617 893.164Z" fill="#004525"/>
<path d="M32.6355 696.621L31.7794 697.105C34.2171 701.544 33.4326 705.091 30.1331 708.666L30.8579 709.347C34.4215 705.484 35.2965 701.467 32.6355 696.621Z" fill="#004525"/>
<path d="M30.9457 680.601C26.7437 680.896 22.7194 682.273 19.0716 684.618C12.3575 688.93 7.70744 696.157 6.82533 703.665C5.27321 716.876 15.4737 731.996 27.4994 735.445L27.7852 734.504C16.2195 731.182 6.31756 716.524 7.81279 703.798C8.66049 696.586 13.1279 689.612 19.5984 685.447C26.618 680.938 35.1013 680.173 43.4336 683.937L43.8507 683.031C39.5301 681.086 35.1476 680.306 30.9457 680.601Z" fill="#004525"/>
<path d="M21.7714 646.075L21.6182 647.065C22.4196 647.178 23.2546 647.325 24.0764 647.543C28.9715 648.842 33.5885 651.848 35.0936 654.636C40.1727 664.04 35.3591 676.731 25.0638 681.809L25.5028 682.68C36.2777 677.37 41.3049 664.09 35.9497 654.173C34.2965 651.111 29.4519 647.964 24.3173 646.602C23.4583 646.377 22.6127 646.195 21.7714 646.075ZM14.331 646.82C8.65068 649.285 5.1089 657.312 7.30785 661.589C7.66182 662.278 8.22648 662.818 8.88806 662.973C9.76315 663.184 10.6094 662.692 11.3462 661.505L10.5125 660.999C9.97666 661.863 9.50751 662.13 9.10789 662.032C8.77289 661.948 8.42102 661.589 8.18575 661.133C6.26281 657.389 9.53911 649.966 14.7264 647.719L14.331 646.82Z" fill="#004525"/>
<path d="M10.1171 558.553C8.04523 561.987 7.57538 565.077 8.47154 568.097C9.17807 570.478 10.5497 572.557 13.1904 575.668C13.3814 575.893 14.3773 577.059 14.463 577.164C18.719 582.115 20.3589 584.805 20.63 588.549C21.208 596.52 18.5259 602.37 10.622 612.076C6.8513 616.711 5.74585 622.211 7.02267 627.731C8.12881 632.507 11.0034 636.938 14.4848 639.488L15.0557 638.701C11.7661 636.285 9.02005 632.057 7.96657 627.506C6.75578 622.281 7.79661 617.077 11.3686 612.694C19.415 602.813 22.218 596.759 21.6182 588.485C21.326 584.461 19.5976 581.631 15.2089 576.525C15.1232 576.427 14.1259 575.254 13.9363 575.029C11.3784 572.016 10.0721 570.028 9.41475 567.809C8.60006 565.063 9.01794 562.261 10.9514 559.051L10.1171 558.553Z" fill="#004525"/>
<path d="M171.089 904.352C171.341 904.212 171.592 904.036 171.854 903.917C171.902 903.889 172.32 903.818 172.313 903.776C172.288 903.629 171.771 903.572 171.724 903.446C171.711 903.411 172.136 902.94 172.173 902.877C172.382 902.533 172.586 901.711 172.816 901.136C172.974 900.735 173.219 900.475 173.186 900.489C172.662 900.735 171.511 900.412 170.942 900.538C170.738 900.588 170.138 900.848 170.133 900.841C170.073 900.798 170.331 900.229 170.291 900.215C170.24 900.201 170.044 900.314 169.984 900.328C169.337 900.496 168.84 900.763 168.491 901.36C168.086 902.041 167.491 903.678 168.265 904.38C168.871 904.935 170.558 904.661 171.089 904.352Z" fill="#A31118"/>
<path d="M27.453 712.472C26.5997 713.975 24.4998 713.013 24.5911 713.926C24.6185 714.207 24.0075 713.238 24.7379 712.816C24.7477 712.809 24.3839 712.872 24.1627 712.865C23.7441 712.858 23.5594 712.423 23.1984 712.304C23.0734 712.255 22.8135 712.269 22.8346 712.269C22.9996 712.219 23.178 712.135 23.3325 712.044C23.6682 711.854 23.7708 711.447 24.1444 711.299C24.2547 711.25 24.6782 711.278 24.5047 711.229C23.6949 711.018 23.6296 709.831 23.7932 710.253C23.8452 710.386 23.8227 710.829 25.3896 710.548C26.6734 710.323 28.0865 711.349 27.453 712.472Z" fill="#A31118"/>
<path d="M102.701 907.168C102.993 906.789 102.306 908.327 104.731 908.475C105.409 908.517 106.504 907.534 106.991 907.021C109.428 904.436 111.338 905.005 111.206 907.618C111.145 908.847 108.977 909.907 109.647 910.884C110.086 911.53 108.044 910.329 108.428 908.763C108.568 908.194 108.774 908.594 108.462 908.77C107.126 909.542 105.173 910.666 103.367 909.296C103.029 909.037 102.212 907.801 102.701 907.168Z" fill="#004525"/>
<path d="M12.665 527.349C7.76499 526.436 11.3313 522.945 10.1732 521.267C9.96393 520.958 7.88719 519.644 6.91659 520.157C6.68834 520.276 9.55378 517.797 12.0351 519.757C13.3976 520.831 13.2817 523.57 13.248 524.02C13.2241 524.336 12.8294 527.25 12.7128 527.349C12.7009 527.363 12.6812 527.356 12.665 527.349Z" fill="#004525"/>
<path d="M8.4568 563.462C13.2979 564.649 11.4873 559.999 13.2354 558.939C13.5521 558.749 15.9863 558.405 16.6606 559.269C16.8186 559.473 15.2292 556.038 12.1601 556.804C10.4745 557.218 9.45268 559.76 9.29957 560.182C9.18931 560.484 8.34864 563.3 8.41395 563.441C8.42027 563.455 8.44135 563.455 8.4568 563.462Z" fill="#004525"/>
<path d="M18.5315 678.951C19.2233 678.803 20.9517 678.965 21.6182 679.892C22.9027 681.676 21.3914 682.827 22.0024 684.239C22.0227 684.288 23.105 682.975 26.1362 685.11C27.5408 686.1 27.6764 688.362 26.6306 689.12C26.5773 689.162 25.5477 687.161 24.0918 687.687C20.274 689.064 16.5173 689.036 15.4975 687.287C14.1463 684.977 17.0665 683.565 18.6418 682.111C19.3041 681.493 19.4403 680.854 19.0878 680.011C18.9585 679.702 17.8742 679.098 18.5315 678.951Z" fill="#CEA54A"/>
<path d="M17.4022 689.521C16.0263 689.851 15.1548 691.325 13.6946 690.167C13.0584 689.661 12.5604 688.804 13.0422 687.772C13.5696 686.648 14.1301 686.676 14.3071 686.318C14.857 685.201 14.6807 684.689 13.8927 684.548C13.491 684.478 15.1484 684.457 15.6246 685.103C15.9463 685.545 15.5755 686.023 15.6183 686.311C15.6724 686.676 15.5193 685.89 16.8523 685.861C17.3383 685.847 18.0307 685.672 18.0455 685.77C18.1115 686.199 18.0708 686.508 18.0251 686.76C17.7575 688.221 16.7209 687.8 17.2589 687.919C18.0216 688.088 18.306 688.643 18.5884 689.254C18.6902 689.471 18.6544 690.567 18.4613 690.307C18.0932 689.808 17.7077 689.443 17.4022 689.521Z" fill="#004525"/>
<path d="M18.8897 640.78C18.0869 641.524 18.6355 642.887 18.9002 643.147C19.7177 643.947 21.8619 643.912 22.2847 643.47C23.7876 641.896 23.3599 641.384 23.2195 639.853C23.0242 637.718 24.2378 637.149 23.9794 637.198C23.6001 637.268 22.5783 636.854 21.043 638.645C20.17 639.663 20.1468 639.621 18.8897 640.78Z" fill="#A31118"/>
<path d="M17.0524 641.068C16.7975 640.794 16.5124 640.527 16.2827 640.239C16.2413 640.183 16.0327 639.677 15.98 639.698C15.8016 639.775 15.8796 640.436 15.7356 640.534C15.6977 640.562 14.9841 640.162 14.897 640.134C14.4061 639.972 13.3161 639.951 12.5274 639.825C11.9852 639.74 11.5863 639.509 11.6151 639.544C12.0751 640.134 11.993 641.665 12.3209 642.339C12.4389 642.585 12.9327 643.259 12.9298 643.266C12.8912 643.357 12.1088 643.196 12.1032 643.245C12.0955 643.315 12.2886 643.533 12.3265 643.603C12.7262 644.362 13.2009 644.909 14.0423 645.176C15.0136 645.485 17.2301 645.766 17.8945 644.593C18.4149 643.68 17.5897 641.644 17.0524 641.068Z" fill="#A31118"/>
<path d="M19.7641 648.288C18.1586 649.51 18.8624 650.085 18.7865 651.638C18.7331 652.747 18.2233 653.042 18.2352 653.056C18.5885 653.646 20.0352 652.53 19.9819 652.853C19.7459 654.264 20.4889 654.222 20.0542 655.592C19.9397 655.95 20.7495 655.578 21.0866 655.388C21.3781 655.226 21.6983 654.896 21.9526 654.566C22.7335 653.548 22.3494 652.361 22.4442 652.27C22.5235 652.192 22.7153 652.719 23.0313 652.965C23.341 653.204 23.7751 653.169 23.8853 652.824C23.9022 652.775 23.2174 652.909 23.0243 651.588C22.645 649.004 20.5191 647.719 19.7641 648.288Z" fill="#A31118"/>
<path d="M21.47 647.501C22.8964 650.064 26.4684 648.456 26.3027 650.008C26.2521 650.479 27.3006 648.856 26.0681 648.126C26.0519 648.119 26.6672 648.224 27.0429 648.217C27.7522 648.21 28.0718 647.48 28.6856 647.269C28.897 647.199 29.3374 647.227 29.3029 647.22C29.0234 647.143 28.7214 646.995 28.4616 646.841C27.8948 646.511 27.7269 645.822 27.0949 645.555C26.9087 645.478 26.191 645.513 26.4846 645.443C27.8604 645.099 27.9875 643.083 27.7045 643.8C27.6146 644.024 27.6462 644.762 24.9942 644.27C22.8206 643.87 20.4109 645.598 21.47 647.501Z" fill="#A31118"/>
<path d="M15.8543 651.392C17.4465 651.434 18.212 649.833 18.4669 648.063C18.5168 647.712 18.2871 647.311 18.0308 647.037C16.0531 644.916 14.4131 646.763 13.9953 647.515C11.62 651.764 12.6286 652.937 12.7768 652.902C12.8498 652.888 12.7578 651.314 15.8543 651.392Z" fill="#A31118"/>
<path d="M37.9583 663.05C34.5654 662.889 36.6506 660.206 35.7137 659.173C35.5437 658.984 34.0197 658.288 33.4122 658.724C33.2689 658.829 34.9749 656.891 36.8311 657.986C37.8508 658.583 38.025 660.445 38.044 660.747C38.0573 660.964 38.0601 662.973 37.9899 663.05C37.9829 663.057 37.9688 663.05 37.9583 663.05Z" fill="#004525"/>
<path d="M12.1594 592.496C11.3609 593.163 14.6372 591.547 15.1499 596.787C15.2931 598.254 13.2628 600.699 12.1861 601.801C6.79442 607.286 8.18431 611.374 13.8337 610.875C16.4857 610.643 18.5961 605.861 20.7775 607.23C22.2067 608.129 19.4354 603.81 16.0734 604.765C14.8549 605.116 15.7356 605.531 16.1008 604.842C17.6649 601.886 19.9291 597.566 16.8172 593.767C16.2343 593.057 13.4945 591.386 12.1594 592.496Z" fill="#004525"/>
<path d="M8.40619 721.967C7.20313 725.549 9.32341 719.376 11.3981 724.138C12.481 726.624 15.8599 726.561 15.0796 722.726C14.8303 721.504 11.6031 718.807 14.7565 718.386C15.7025 718.259 10.8439 716.855 11.6073 720.436C12.0842 722.67 9.81644 717.775 8.40619 721.967Z" fill="#004525"/>
<path d="M49.4194 693.257C48.9643 691.522 50.468 693.313 51.4182 694.226C53.7394 696.452 57.7061 692.814 57.2236 692.983C56.5957 693.208 50.7932 693.699 51.1563 688.495C51.6879 680.868 42.2951 680.341 41.7185 685.3C41.1497 690.195 45.4008 692.505 44.9717 691.663C44.3536 690.455 46.4493 689.794 45.6979 689.984C44.2469 690.349 49.5529 693.84 47.3434 695.23C47.1348 695.364 49.7615 694.563 49.4194 693.257Z" fill="#004525"/>
<path d="M65.9161 895.447C65.447 895.573 67.1529 895.531 66.3459 897.849C66.1205 898.502 64.7798 899.141 64.1084 899.401C60.7478 900.672 60.5385 902.681 63.0331 903.573C64.2039 903.994 66.0341 902.379 66.6915 903.383C67.1227 904.043 66.7919 901.669 65.1773 901.416C64.5922 901.332 64.8844 901.676 65.1752 901.459C66.4169 900.503 68.2218 899.12 67.6445 896.894C67.5364 896.479 66.6992 895.236 65.9161 895.447Z" fill="#004525"/>
<path d="M24.4457 854.073C24.3334 854.544 24.3291 852.837 22.0298 853.715C21.3864 853.961 20.7831 855.316 20.5479 855.997C19.3708 859.39 17.372 859.657 16.4063 857.191C15.9533 856.033 17.516 854.157 16.4885 853.525C15.8157 853.118 18.2007 853.378 18.4971 854.986C18.6046 855.569 18.2478 855.281 18.4613 854.986C19.3736 853.722 20.7108 851.875 22.947 852.388C23.3656 852.486 24.6332 853.287 24.4457 854.073Z" fill="#004525"/>
<path d="M60.2646 862.536C60.1199 863.414 60.2112 865.121 59.3923 865.682C59.0756 865.9 55.6693 866.357 55.5801 866.16C55.288 865.528 55.6967 863.695 55.9594 863.056C56.4671 861.827 60.4507 861.405 60.2646 862.536Z" fill="#CEA54A"/>
<path d="M62.2697 864.39C62.814 864.931 62.9341 866.434 62.9439 867.136C62.9699 869.04 65.0326 869.524 65.3571 871.357C65.4912 872.116 65.4519 872.972 65.1829 873.71C65.1794 873.717 64.8395 874.482 64.8325 874.482C64.8016 874.482 64.6148 873.731 64.2046 873.127C63.9742 872.797 63.5563 872.523 63.3428 872.411C61.323 871.322 58.8242 869.924 59.4759 867.523C59.5714 867.171 59.3446 866.694 60.6811 865.156C60.8819 864.924 60.9704 864.425 61.0631 864.172C61.2008 863.793 62.1012 864.222 62.2697 864.39Z" fill="url(#paint0_linear_624_694)"/>
<path d="M58.6591 859.228C58.5544 859.27 57.7973 858.814 57.5634 858.701C56.8246 858.336 56.2508 857.81 55.6672 857.22C53.9437 855.499 53.2744 853.518 54.054 851.285C54.1537 850.997 54.4592 849.55 54.6931 849.389C54.9375 849.227 55.1173 850.555 55.6145 851.074C56.0556 851.531 56.5149 852.072 57.0241 852.479C58.4786 853.645 57.6934 855.232 58.6977 856.777C58.9428 857.149 60.0763 857.901 60.0426 858.364C60.0061 858.863 58.9288 859.109 58.6591 859.228Z" fill="url(#paint1_linear_624_694)"/>
<path d="M64.8634 862.662C66.9591 864.748 67.858 864.587 68.4719 865.043C69.6511 865.914 69.6651 867.052 69.899 868.414C69.9868 868.927 70.6891 870.388 71.0515 870.76C71.6365 871.371 69.5513 870.514 68.7767 869.974C67.6944 869.208 64.593 868.59 64.041 866.132C63.6406 864.341 62.5921 864.088 62.8189 863.618C63.0078 863.224 63.8352 861.644 64.8634 862.662Z" fill="url(#paint2_linear_624_694)"/>
<path d="M60.7801 857.585C59.5904 855.787 59.1156 855.274 59.2694 852.977C59.3874 851.208 59.8959 850.021 60.9367 848.63C62.3757 846.706 61.5126 845.203 61.7647 845.112C62.3048 844.908 63.286 846.931 63.4629 847.169C64.4588 848.49 64.7355 850.098 64.0971 851.685C63.5205 853.125 62.2346 853.898 62.1433 855.576C62.1117 856.159 62.4467 856.791 62.6609 857.36C63.0078 858.287 60.9515 857.838 60.7801 857.585Z" fill="url(#paint3_linear_624_694)"/>
<path d="M64.7868 860.064C65.5193 859.846 66.3593 860.408 67.1852 860.064C68.7514 859.425 69.4502 857.725 70.9215 857.079C71.5543 856.798 72.3627 856.77 73.0285 856.833C74.7723 857.002 76.4853 858.252 76.2626 859.165C76.257 859.186 75.1151 858.385 73.492 859.341C71.9097 860.275 71.5789 862.557 70.3843 863.14C69.6208 863.505 68.7359 863.639 67.9107 863.639C66.9787 863.632 65.69 863.077 65.0706 862.304C64.2678 861.307 64.1182 860.261 64.7868 860.064Z" fill="url(#paint4_linear_624_694)"/>
<path d="M57.9132 859.628C56.2564 859.867 55.1587 857.859 53.8025 857.374C52.5391 856.925 51.2629 857.163 50.1435 857.732C49.5381 858.034 48.7669 858.68 48.2886 858.35C48.0267 858.168 47.035 857.655 47.1418 857.964C47.2878 858.378 47.7661 859.811 49.7122 859.909C51.8037 860.015 52.4927 862.838 55.1994 862.452C56.3196 862.29 57.4412 861.553 58.2622 860.815C58.5137 860.591 58.461 859.551 57.9132 859.628Z" fill="url(#paint5_linear_624_694)"/>
<path d="M67.3095 857.627C66.4064 858.097 64.7981 859.2 64.147 858.877C63.0198 858.322 63.916 856.531 64.0199 855.955C64.166 855.134 65.3768 853.076 66.5721 852.261C67.1459 851.868 69.0864 852.022 69.3343 852.275C69.6349 852.57 70.2115 854.481 69.774 855.218C69.3259 855.976 68.1411 857.198 67.3095 857.627Z" fill="#CEA54A"/>
<path d="M21.6485 795.669C21.6421 795.655 21.1217 795.409 20.9883 794.51C20.9265 794.095 21.2067 793.421 21.1765 793.372C21.1582 793.337 20.7692 793.056 20.7172 793C20.4299 792.691 20.227 792.255 20.0886 791.848C20.038 791.701 19.9573 791.082 20.1827 790.998C20.3379 790.935 20.312 791.321 20.451 791.406C20.8099 791.63 21.0318 791.672 21.4392 791.799C21.9364 791.96 22.3634 792.403 22.9063 792.101C22.9625 792.073 23.7034 791.623 23.7238 791.686C23.7554 791.778 23.6318 792.585 23.0475 793.14C22.7244 793.442 22.3936 793.716 22.1605 794.032C22.0411 794.201 21.9582 794.741 21.994 794.931C22.0621 795.289 22.2138 795.767 22.3711 796.041C22.4098 796.104 21.7447 795.865 21.6485 795.669Z" fill="#004525"/>
<path d="M15.6429 798.506C14.8823 798.632 14.4251 798.52 13.7207 798.155C12.0393 797.284 12.8203 795.437 13.4651 794.32C14.949 791.764 13.4194 792.01 13.4538 792.002C14.2826 791.932 16.0699 794.18 15.2475 796.013C15.1043 796.336 16.1107 796.399 16.1282 796.399C19.3125 796.617 18.4016 799.953 18.1678 799.805C18.146 799.798 18.6559 798 15.6429 798.506Z" fill="#CEA54A"/>
<path d="M21.0606 792.965C20.5282 792.332 18.2893 792.136 17.5975 792.508C16.511 793.098 14.0101 796.069 14.8676 796.258C15.3613 796.371 17.8278 797.298 18.9593 796.539C20.2333 795.683 21.4434 793.835 21.3612 793.288" fill="url(#paint6_radial_624_694)"/>
<path d="M127.992 885.01C128.41 885.319 129.161 886.352 128.973 887.173C128.61 888.747 127.237 888.473 126.755 889.498C126.739 889.533 127.99 889.491 128.28 892.209C128.414 893.466 127.228 894.639 126.302 894.428C126.255 894.414 126.862 892.876 125.864 892.328C123.247 890.882 121.438 888.789 121.909 887.377C122.533 885.509 124.729 886.443 126.302 886.605C126.963 886.668 127.384 886.436 127.677 885.832C127.785 885.614 127.595 884.715 127.992 885.01Z" fill="#CEA54A"/>
<path d="M122.165 889.273C121.502 888.466 120.247 888.367 120.548 887.026C120.679 886.443 121.085 885.839 121.922 885.825C122.836 885.811 122.997 886.197 123.292 886.197C124.208 886.204 124.49 885.923 124.33 885.354C124.248 885.066 124.795 886.155 124.519 886.682C124.331 887.033 123.893 886.942 123.717 887.061C123.493 887.215 123.963 886.864 124.412 887.735C124.575 888.051 124.913 888.459 124.854 888.494C124.593 888.676 124.372 888.754 124.193 888.803C123.137 889.091 123.084 888.269 123.178 888.662C123.312 889.224 123.035 889.589 122.723 889.976C122.611 890.109 121.871 890.439 121.983 890.228C122.197 889.821 122.311 889.449 122.165 889.273Z" fill="#004525"/>
<path d="M33.6102 733.71C33.2548 733.633 32.3643 733.71 32.0181 734.181C31.3495 735.094 32.122 735.698 31.8025 736.414C31.7912 736.442 31.2399 735.761 29.6709 736.85C28.944 737.355 28.8647 738.514 29.3998 738.907C29.4272 738.928 29.9652 737.903 30.7125 738.184C32.6712 738.907 34.6047 738.907 35.1371 738.015C35.8422 736.829 34.3448 736.091 33.54 735.333C33.2022 735.017 33.134 734.686 33.3195 734.251C33.3869 734.097 33.948 733.787 33.6102 733.71Z" fill="#CEA54A"/>
<path d="M34.1475 739.153C34.854 739.329 35.2965 740.094 36.0529 739.504C36.3823 739.245 36.6421 738.802 36.3984 738.275C36.1315 737.692 35.8429 737.706 35.7537 737.517C35.4749 736.941 35.5683 736.681 35.9742 736.611C36.1807 736.576 35.3281 736.555 35.0802 736.892C34.913 737.117 35.102 737.362 35.0788 737.51C35.0493 737.699 35.1314 737.292 34.4453 737.271C34.196 737.264 33.8399 737.173 33.8322 737.222C33.7963 737.44 33.816 737.601 33.8385 737.728C33.9698 738.486 34.505 738.275 34.2276 738.332C33.835 738.416 33.6861 738.697 33.5379 739.013C33.4852 739.125 33.4993 739.687 33.599 739.554C33.7907 739.301 33.9909 739.111 34.1475 739.153Z" fill="#004525"/>
<path d="M31.4654 894.056C31.1676 894.702 30.9744 895.405 30.3101 895.496C29.1653 895.657 29.5895 893.382 29.5803 893.375C29.515 893.347 26.9516 893.501 27.1953 892.89C27.9208 891.071 30.5172 890.292 31.523 891.514C31.6585 891.675 31.5827 893.796 31.4654 894.056Z" fill="#004525"/>
<path d="M32.2035 887.946C30.8066 887.602 30.3698 887.637 28.8725 888.445C28.7081 888.529 27.6441 888.957 27.871 888.929C28.0985 888.908 28.1863 889.294 28.4567 889.428C28.6934 889.554 29.0213 889.61 28.8942 889.674C27.9868 890.165 27.373 890.938 26.559 891.57C26.3856 891.71 25.6594 891.64 25.5308 891.746C25.4374 891.823 26.3125 892.581 28.1659 892.047C28.5101 891.949 29.777 891.935 30.0236 891.879C30.2399 891.83 31.1009 891.38 31.2161 891.415C31.3636 891.45 30.808 892.293 30.9836 893.389C31.1199 894.246 32.2162 895.419 31.3327 896.36C30.9885 896.725 31.9753 896.002 32.1712 895.763C32.7001 895.117 32.7261 894.737 33.0133 894.063C33.1306 893.789 33.1755 893.543 33.394 893.312C33.4438 893.255 33.1741 893.635 33.2177 893.866C33.2458 894.014 33.4979 894.66 33.4361 894.808C33.3757 894.948 33.6651 894.133 34.1293 893.719C34.5338 893.354 34.9686 892.42 35.0072 891.746C35.187 888.599 32.8925 888.122 32.2035 887.946Z" fill="#CEA54A"/>
<path d="M35.9476 888.353C36.7032 887.581 35.0072 886.029 34.3484 886.527C33.3476 887.286 32.6291 888.164 33.1551 888.613C33.3328 888.768 33.3216 888.655 33.9115 889.252C34.5015 889.842 35.1912 889.119 35.9476 888.353Z" fill="#004525"/>
<path d="M170.878 905.939C170.453 905.202 169.32 905.384 169.078 905.539C168.331 906.023 167.985 907.653 168.248 908.053C169.182 909.465 169.648 909.233 170.835 909.388C172.486 909.612 172.709 910.631 172.719 910.427C172.732 910.125 173.22 909.423 172.125 907.948C171.502 907.105 171.543 907.098 170.878 905.939Z" fill="#A31118"/>
<path d="M118.093 908.594C118.413 908.208 119.058 908.418 119.183 908.538C119.572 908.889 119.615 909.879 119.422 910.09C118.738 910.82 118.488 910.638 117.779 910.617C116.793 910.582 116.562 911.157 116.577 911.038C116.598 910.855 116.383 910.399 117.168 909.64C117.613 909.212 117.59 909.205 118.093 908.594Z" fill="#A31118"/>
<path d="M28.883 708.574C29.3536 709.017 29.0235 709.824 28.8662 709.972C28.3802 710.435 27.1153 710.407 26.8681 710.147C25.9895 709.213 26.2437 708.911 26.3336 708.005C26.4593 706.748 25.7458 706.411 25.8982 706.439C26.1215 706.481 26.7262 706.243 27.6238 707.31C28.1329 707.914 28.1477 707.886 28.883 708.574Z" fill="#A31118"/>
<path d="M118.124 907.646C117.991 907.533 117.862 907.414 117.721 907.316C117.695 907.295 117.458 907.21 117.466 907.189C117.495 907.105 117.803 907.126 117.843 907.056C117.854 907.035 117.652 906.719 117.636 906.677C117.548 906.459 117.509 905.953 117.431 905.595C117.378 905.349 117.26 905.167 117.278 905.181C117.56 905.377 118.265 905.3 118.584 905.434C118.699 905.483 119.025 905.686 119.027 905.686C119.067 905.665 118.972 905.314 118.997 905.307C119.028 905.3 119.131 905.384 119.166 905.398C119.527 905.567 119.79 905.771 119.937 906.15C120.106 906.592 120.294 907.604 119.772 907.941C119.363 908.208 118.404 907.878 118.124 907.646Z" fill="#A31118"/>
<path d="M30.0896 708.694C30.2413 708.539 30.4106 708.385 30.5468 708.209C30.5721 708.181 30.6971 707.879 30.728 707.893C30.8333 707.942 30.7842 708.329 30.8685 708.385C30.8902 708.406 31.313 708.174 31.365 708.153C31.6551 708.062 32.2984 708.055 32.764 707.984C33.0843 707.935 33.321 707.802 33.3034 707.823C33.0295 708.167 33.0709 709.073 32.8736 709.466C32.8034 709.614 32.5091 710.007 32.5105 710.014C32.533 710.063 32.9951 709.972 32.9986 710.007C33.0021 710.042 32.8869 710.169 32.8651 710.211C32.6257 710.66 32.3433 710.976 31.8454 711.131C31.2709 711.313 29.9625 711.468 29.5762 710.773C29.2735 710.232 29.7693 709.031 30.0896 708.694Z" fill="#A31118"/>
<path d="M165.135 905.167C164.486 903.734 163.926 904.169 162.761 903.839C161.931 903.607 161.795 903.172 161.778 903.179C161.274 903.348 161.869 904.64 161.635 904.542C160.602 904.113 160.503 904.689 159.54 904.12C159.287 903.973 159.429 904.654 159.515 904.942C159.59 905.188 159.785 905.49 159.992 905.743C160.63 906.508 161.596 906.424 161.65 906.508C161.694 906.585 161.263 906.642 161.02 906.838C160.784 907.028 160.734 907.365 160.977 907.512C161.015 907.533 161.031 906.986 162.066 907.07C164.097 907.231 165.441 905.834 165.135 905.167Z" fill="#A31118"/>
<path d="M121.524 908.706C122.044 907.934 122.328 908.243 123.041 908.166C123.549 908.109 123.672 907.863 123.681 907.871C123.959 908.018 123.484 908.713 123.631 908.685C124.276 908.538 124.278 908.882 124.895 908.643C125.059 908.58 124.909 908.966 124.83 909.121C124.762 909.261 124.618 909.416 124.473 909.542C124.025 909.928 123.469 909.788 123.429 909.83C123.396 909.872 123.642 909.942 123.764 910.083C123.884 910.223 123.88 910.42 123.724 910.483C123.7 910.49 123.744 910.174 123.131 910.118C121.928 910.013 121.28 909.064 121.524 908.706Z" fill="#A31118"/>
<path d="M28.456 712.943C29.3971 713.673 28.9792 714.01 29.0164 714.923C29.0424 715.576 29.3423 715.752 29.3346 715.766C29.1239 716.103 28.2755 715.443 28.3057 715.633C28.4384 716.468 28.0002 716.44 28.2502 717.248C28.3155 717.459 27.8401 717.241 27.642 717.122C27.4706 717.023 27.2831 716.827 27.1349 716.63C26.6791 716.026 26.9116 715.331 26.8561 715.274C26.8098 715.232 26.6939 715.541 26.5064 715.682C26.3223 715.822 26.0667 715.801 26.0035 715.597C25.9937 715.569 26.3968 715.654 26.5169 714.874C26.7529 713.35 28.0128 712.599 28.456 712.943Z" fill="#A31118"/>
<path d="M165.441 906.599C163.244 907.238 163.848 910.23 162.699 909.83C162.35 909.711 163.403 910.792 164.169 909.977C164.18 909.97 163.988 910.42 163.929 910.708C163.815 911.249 164.314 911.614 164.365 912.113C164.382 912.288 164.285 912.618 164.299 912.597C164.407 912.393 164.571 912.19 164.731 912.021C165.081 911.649 165.633 911.642 165.943 911.207C166.033 911.08 166.13 910.525 166.136 910.764C166.161 911.867 167.669 912.309 167.173 911.972C167.017 911.867 166.448 911.761 167.281 909.83C167.964 908.25 167.069 906.122 165.441 906.599Z" fill="#A31118"/>
<path d="M121.205 909.507C122.426 910.097 121.78 911.789 122.49 911.67C122.706 911.635 121.985 912.162 121.616 911.614C121.611 911.607 121.679 911.888 121.686 912.056C121.699 912.386 121.372 912.555 121.293 912.843C121.266 912.941 121.29 913.145 121.285 913.124C121.241 912.997 121.165 912.864 121.088 912.752C120.92 912.499 120.598 912.436 120.46 912.155C120.419 912.07 120.417 911.74 120.391 911.874C120.268 912.52 119.343 912.632 119.666 912.485C119.768 912.436 120.11 912.429 119.813 911.221C119.569 910.23 120.3 909.071 121.205 909.507Z" fill="#A31118"/>
<path d="M163.456 901.655C163.15 902.863 164.23 903.72 165.531 904.219C165.788 904.317 166.134 904.212 166.387 904.064C168.341 902.933 167.219 901.367 166.723 900.918C163.907 898.375 162.842 898.937 162.84 899.057C162.839 899.12 164.051 899.316 163.456 901.655Z" fill="#A31118"/>
<path d="M122.849 906.817C122.91 907.554 122.195 907.948 121.386 908.109C121.226 908.144 121.034 908.046 120.9 907.941C119.87 907.084 120.679 906.276 121.013 906.066C122.908 904.858 123.474 905.293 123.465 905.363C123.459 905.398 122.731 905.391 122.849 906.817Z" fill="#A31118"/>
<path d="M30.7469 714.79C29.8079 714.804 29.3641 713.863 29.2222 712.816C29.1941 712.613 29.3318 712.374 29.4835 712.212C30.6605 710.969 31.6192 712.072 31.8622 712.514C33.243 715.029 32.6425 715.717 32.5547 715.696C32.5119 715.689 32.5737 714.762 30.7469 714.79Z" fill="#A31118"/>
<path d="M19.8301 770.434C19.1672 770.273 18.7584 770.842 18.4234 771.242C18.4052 771.263 18.3946 771.291 18.3771 771.312C18.3616 771.333 18.3377 771.347 18.3244 771.369C17.167 773.3 15.5446 774.662 17.5076 777.247C17.7485 777.57 18.4564 778.954 18.8911 779.052C19.5422 779.199 18.7043 778.216 20.0247 776.411C21.2987 774.662 21.3563 773.855 21.0831 772.527C21.0065 772.155 20.0591 770.491 19.8301 770.434Z" fill="url(#paint7_linear_624_694)"/>
<path d="M16.393 767.52C14.4335 768.594 13.2192 766.719 11.455 767.246C7.699 768.377 6.8815 765.954 7.23196 766.143C8.36971 766.754 9.67743 765.343 10.7983 764.514C12.3132 763.39 13.9672 763.032 16.5917 765.013C16.9183 765.258 16.7245 767.337 16.393 767.52Z" fill="url(#paint8_linear_624_694)"/>
<path d="M14.3745 761.733C13.5359 759.499 13.3568 754.639 13.7796 755.552C14.2256 756.514 14.9399 758.319 16.9204 758.755C18.5154 759.113 19.0884 760.742 19.0491 762.042C18.9943 763.847 17.917 765.013 16.7434 764.366C16.2623 764.107 14.7776 762.807 14.3745 761.733Z" fill="#A31118"/>
<path d="M24.3488 767.962C25.6032 770.174 27.9503 770.153 29.3739 770.132C31.3671 770.104 32.5125 770.877 32.5041 770.828C32.4564 770.519 31.6473 768.749 31.4211 768.489C30.2658 767.14 29.2208 766.277 27.2445 766.368C26.3441 766.41 25.5357 766.143 24.3081 766.614C23.8551 766.789 24.1922 767.681 24.3488 767.962Z" fill="#8C1218"/>
<path d="M28.6856 777.605C28.9272 777.5 27.4327 776.313 26.8273 774.564C26.3188 773.096 26.8301 771.151 25.6832 769.866C24.5405 768.58 23.7272 769.002 22.4111 769.746C19.3293 771.481 23.0987 774.072 23.9569 774.908C25.2766 776.186 27.6974 778.019 28.6856 777.605Z" fill="#A31118"/>
<path d="M32.8455 763.053C32.2169 763.573 32.179 762.351 28.3134 765.23C26.9165 766.27 24.254 766.382 23.8341 765.434C22.8691 763.257 25.7886 760.883 27.9377 761.452C30.5524 762.147 33.3244 762.653 32.8455 763.053Z" fill="url(#paint9_linear_624_694)"/>
<path d="M25.3152 759.345C24.0061 760.216 24.78 762.47 22.7665 764.036C22.7665 764.036 21.0121 763.924 20.4271 763.2C18.6614 761.002 19.6391 757.765 22.4385 757.617C24.5841 757.512 25.6692 755.812 25.7808 755.629C25.9683 755.335 27.4579 757.912 25.3152 759.345Z" fill="#A31118"/>
<path d="M14.6386 768.341C15.506 768.138 16.5931 768.243 16.9921 768.37C18.4241 768.833 19.0225 771.277 16.7357 772.899C15.9063 773.489 15.5643 774.143 14.89 774.459C14.2748 774.747 13.6209 775.252 13.4292 775.779C13.1904 776.425 13.0788 774.761 13.654 774.157C14.3724 773.398 14.2004 772.977 14.147 773.047C13.4714 773.897 11.993 773.995 11.4255 773.855C11.0118 773.742 10.3643 773.784 10.1304 773.904C9.52503 774.199 10.6108 773.693 10.8763 772.689C11.0575 772.008 11.3616 771.34 12.5345 770.75C12.5345 770.75 12.5127 770.434 12.0478 770.61C11.1558 770.961 10.5539 769.908 10.5539 769.908C11.0076 770.217 11.2289 770.322 12.1117 769.641C12.6819 769.205 13.5655 768.587 14.6386 768.341Z" fill="#A31118"/>
<path d="M41.6841 795.914C42.0612 796.504 43.1688 796.617 43.7011 796.427C44.6514 796.09 45.747 794.959 45.7582 794.117C45.7898 791.848 43.0585 789.755 45.8868 786.468C46.2119 786.089 48.2332 785.759 49.2909 786.798C51.4231 788.905 49.8176 790.141 50.8079 792.48C51.0003 792.937 51.8333 794.074 52.6192 794.187C52.9015 794.229 53.3517 794.102 53.5792 793.934C53.6361 793.892 53.8222 793.597 53.7913 793.836C53.6853 794.65 53.2133 795.008 52.5602 795.268C50.9048 795.914 49.6463 794.601 49.1771 794.06C48.6391 793.435 49.0823 792.733 49.0268 792.972C48.7445 794.18 47.3469 796.518 46.0469 797.136C43.1512 798.513 41.6679 795.886 41.6841 795.914Z" fill="#004525"/>
<path d="M150.775 916.425C151.486 913.875 153.166 915.926 154.109 915.392C154.281 915.294 155.074 914.262 154.849 913.721C154.796 913.594 155.973 915.231 154.82 916.446C154.187 917.12 152.744 916.93 152.51 916.888C152.342 916.86 150.821 916.516 150.773 916.453C150.768 916.446 150.773 916.439 150.775 916.425Z" fill="#004525"/>
<path d="M130.105 915.975C129.905 914.086 128.476 915.336 127.873 914.845C127.763 914.76 127.327 913.932 127.549 913.58C127.601 913.496 126.577 914.508 127.247 915.512C127.615 916.06 128.655 916.095 128.825 916.095C128.947 916.095 130.062 916.032 130.104 915.989C130.108 915.989 130.105 915.975 130.105 915.975Z" fill="#004525"/>
<path d="M17.6544 721.567C19.656 721.483 18.4388 719.889 18.9965 719.285C19.0976 719.179 19.9994 718.772 20.3562 719.032C20.4397 719.095 19.4432 717.943 18.3426 718.582C17.7386 718.933 17.627 720.029 17.6143 720.205C17.6059 720.331 17.5947 721.518 17.6354 721.56C17.6396 721.567 17.648 721.567 17.6544 721.567Z" fill="#004525"/>
<path d="M86.1828 883.191C85.9799 882.84 86.3886 884.188 84.3632 884.055C83.7957 884.02 82.9915 883.093 82.6418 882.615C80.8923 880.22 79.2496 880.494 79.0838 882.671C79.0066 883.697 80.6928 884.799 80.0341 885.544C79.6029 886.029 81.4218 885.249 81.2673 883.908C81.2118 883.423 80.9984 883.732 81.2385 883.915C82.2653 884.694 83.7662 885.825 85.4075 884.884C85.7144 884.701 86.5213 883.767 86.1828 883.191Z" fill="#004525"/>
<path d="M38.6739 834.345C39.0124 834.563 37.6794 834.106 37.7433 836.136C37.7609 836.705 38.6592 837.541 39.1255 837.906C41.46 839.732 41.1313 841.368 38.9457 841.46C37.9196 841.502 36.8753 839.774 36.1091 840.406C35.6069 840.82 36.4525 839.03 37.7862 839.233C38.2694 839.303 37.9533 839.507 37.7792 839.261C37.034 838.208 35.9539 836.67 36.9554 835.061C37.1429 834.759 38.1086 833.987 38.6739 834.345Z" fill="#004525"/>
<path d="M200.547 908.91C200.01 908.334 201.369 910.743 197.425 911.354C196.321 911.523 194.383 910.09 193.509 909.317C189.131 905.462 186.095 906.684 186.707 910.94C186.993 912.941 190.699 914.339 189.753 916.046C189.132 917.162 192.288 914.887 191.422 912.379C191.109 911.473 190.831 912.162 191.369 912.407C193.672 913.468 197.034 914.999 199.78 912.485C200.294 912.014 201.443 909.872 200.547 908.91Z" fill="#004525"/>
<path d="M31.9949 689.071C32.4549 689.471 30.5503 688.467 30.1605 691.55C30.0516 692.407 31.2083 693.889 31.825 694.549C34.9123 697.878 34.0253 700.266 30.7027 699.873C29.1428 699.697 27.9777 696.839 26.6693 697.611C25.811 698.117 27.517 695.617 29.4834 696.235C30.1963 696.466 29.6703 696.691 29.4659 696.277C28.5929 694.514 27.3301 691.929 29.2278 689.738C29.5832 689.331 31.2266 688.39 31.9949 689.071Z" fill="#004525"/>
<path d="M42.8401 757.786C43.6836 760.363 42.1961 755.91 40.6777 759.324C39.884 761.101 37.4561 761.037 38.0391 758.291C38.2259 757.406 40.5604 755.496 38.2968 755.173C37.6177 755.075 41.118 754.091 40.5484 756.662C40.1931 758.263 41.8505 754.759 42.8401 757.786Z" fill="#004525"/>
<path d="M13.2923 743.831C13.6539 742.496 12.4839 743.866 11.7451 744.561C9.94221 746.261 6.9068 743.437 7.27762 743.571C7.76011 743.746 12.2304 744.161 11.9831 740.15C11.62 734.265 18.8637 733.914 19.2781 737.742C19.6861 741.52 16.3944 743.276 16.7308 742.63C17.2147 741.696 15.6036 741.183 16.1809 741.33C17.2976 741.618 13.1855 744.28 14.8802 745.362C15.0403 745.467 13.0205 744.828 13.2923 743.831Z" fill="#004525"/>
<path d="M8.39714 899.169C8.33814 905.455 11.1586 904.31 15.4744 903.867C15.657 903.853 15.8136 903.811 16.0011 903.797C16.1921 904.998 16.0222 904.661 16.2132 905.862C17.3952 905.904 17.5483 905.693 18.5245 906.087C18.7029 909.949 19.118 913.96 23.8368 913.117C19.9404 915.364 16.7758 914.388 15.7293 910.715C14.4427 912.808 16.2399 912.379 13.3084 915.638C13.1792 914.388 12.795 914.62 12.6658 913.363C11.9136 914.213 11.219 914.536 10.5687 914.732C9.54121 915.041 8.27282 916.017 8.37957 915.912C8.48351 915.807 9.04256 915.104 9.18302 913.911C9.26379 913.222 9.26098 911.74 10.3699 910.778C10.3699 910.778 9.89587 910.961 9.18373 910.94C8.77919 910.926 8.24051 911.403 8.24051 911.403C9.82634 907.793 11.1277 910.006 12.5893 907.843C8.62328 908.432 5.25357 903.818 8.39714 899.169Z" fill="#004525"/>
<defs>
<linearGradient id="paint0_linear_624_694" x1="62.2414" y1="863.996" x2="62.4976" y2="874.537" gradientUnits="userSpaceOnUse">
<stop/>
<stop offset="0.479167" stop-color="#A31118"/>
</linearGradient>
<linearGradient id="paint1_linear_624_694" x1="54.8295" y1="849.346" x2="57.9259" y2="859.452" gradientUnits="userSpaceOnUse">
<stop offset="0.479167" stop-color="#A31118"/>
<stop offset="1" stop-color="#353333"/>
</linearGradient>
<linearGradient id="paint2_linear_624_694" x1="68.1632" y1="863.585" x2="66.2575" y2="869.452" gradientUnits="userSpaceOnUse">
<stop offset="0.00625" stop-color="#413D3D"/>
<stop offset="1" stop-color="#A31118"/>
</linearGradient>
<linearGradient id="paint3_linear_624_694" x1="59.663" y1="845.868" x2="63.8135" y2="857.372" gradientUnits="userSpaceOnUse">
<stop offset="0.479167" stop-color="#A31118"/>
<stop offset="1"/>
</linearGradient>
<linearGradient id="paint4_linear_624_694" x1="70.4838" y1="856.693" x2="70.1108" y2="863.758" gradientUnits="userSpaceOnUse">
<stop stop-color="#A31118"/>
<stop offset="1" stop-color="#323030"/>
</linearGradient>
<linearGradient id="paint5_linear_624_694" x1="53.1376" y1="856.786" x2="54.2005" y2="862.634" gradientUnits="userSpaceOnUse">
<stop offset="0.289583" stop-color="#A31118"/>
<stop offset="1"/>
</linearGradient>
<radialGradient id="paint6_radial_624_694" cx="0" cy="0" r="1" gradientUnits="userSpaceOnUse" gradientTransform="translate(18.0964 794.678) rotate(121.297) scale(2.90879 2.9088)">
<stop offset="0.170833" stop-color="#878276"/>
<stop offset="1"/>
</radialGradient>
<linearGradient id="paint7_linear_624_694" x1="19.6663" y1="774.961" x2="18.1929" y2="771.395" gradientUnits="userSpaceOnUse">
<stop offset="0.464583" stop-color="#87171C"/>
<stop offset="1" stop-color="#443D3D" stop-opacity="0.961712"/>
</linearGradient>
<linearGradient id="paint8_linear_624_694" x1="15.7893" y1="768.465" x2="8.74991" y2="763.775" gradientUnits="userSpaceOnUse">
<stop offset="0.464583" stop-color="#9D181E"/>
<stop offset="1" stop-color="#524F4F" stop-opacity="0.961712"/>
</linearGradient>
<linearGradient id="paint9_linear_624_694" x1="30.441" y1="765.944" x2="25.2947" y2="761.66" gradientUnits="userSpaceOnUse">
<stop offset="0.464583" stop-color="#9D181E"/>
<stop offset="1" stop-color="#494646" stop-opacity="0.961712"/>
</linearGradient>
</defs>
</svg>
