<svg viewBox="0 0 542 922" fill="none" xmlns="http://www.w3.org/2000/svg">
<path d="M190.926 12.3868C182.638 16.1884 175.011 17.036 166.309 13.1823" stroke="#004525" stroke-width="1.49878" stroke-miterlimit="10" stroke-linecap="round" stroke-linejoin="round"/>
<path d="M190.414 12.9385C207.733 -4.75073 222.076 16.0958 229.325 11.9766C232.732 10.0403 230.877 5.16896 227.444 7.56912" stroke="#004525" stroke-width="1.49878" stroke-miterlimit="10" stroke-linecap="round" stroke-linejoin="round"/>
<path d="M17.3708 280.405L18.0026 281.167C9.64027 288.126 6.00242 295.45 10.5583 300.952C19.3002 311.512 23.9013 320.397 23.3782 328.334C23.1156 332.324 21.4273 335.129 17.1751 340.088C17.0762 340.203 16.0447 341.399 15.8476 341.633C10.7373 347.683 9.66953 351.454 13.1702 357.174L12.3427 357.696C10.2783 354.323 9.77472 351.296 10.6015 348.359C11.2562 346.034 12.5559 344.018 15.0856 341.024C15.2848 340.788 16.3365 339.549 16.4354 339.434C20.5553 334.631 22.1544 331.98 22.3989 328.269C22.9011 320.654 18.4121 311.943 9.81858 301.562C4.78213 295.479 8.6408 287.671 17.3708 280.405Z" fill="#004525"/>
<path d="M30.0821 211.734C33.6162 215.57 34.484 219.529 31.845 224.337L30.9966 223.88C33.4142 219.475 32.6578 215.939 29.3856 212.387L30.0821 211.734Z" fill="#004525"/>
<path d="M24.7712 238.18C35.4577 243.448 40.4433 256.618 35.1318 266.454C33.4929 269.489 28.6884 272.612 23.5962 273.963C22.7443 274.189 21.9051 274.368 21.0713 274.485L20.9404 273.506C21.7358 273.394 22.5417 273.243 23.3566 273.027C28.2119 271.739 32.7901 268.761 34.2827 265.997C39.3199 256.669 34.5467 244.084 24.3359 239.05L24.7712 238.18ZM8.29459 257.703C9.16174 257.497 10.001 258.008 10.7324 259.184L9.90493 259.684C9.37419 258.83 8.90892 258.566 8.51191 258.662C8.17967 258.741 7.83141 259.1 7.59808 259.554C5.69035 263.266 8.94026 270.601 14.084 272.831L13.7141 273.745C8.08077 271.303 4.54598 263.342 6.72745 259.096C7.07779 258.415 7.63778 257.861 8.29459 257.703Z" fill="#004525"/>
<path d="M26.7521 185.854L27.0348 186.79C15.5647 190.082 5.74466 204.616 7.22822 217.241C8.06891 224.395 12.4994 231.311 18.9163 235.437C25.8772 239.913 34.2904 240.671 42.5544 236.939L42.9675 237.81C34.3976 241.68 25.6286 240.916 18.394 236.264C11.7353 231.983 7.12376 224.798 6.24825 217.35C4.70896 204.247 14.825 189.277 26.7521 185.854Z" fill="#004525"/>
<path d="M114.049 26.9348L114.797 27.5533C112.659 30.152 109.755 30.26 107.304 28.0806L107.967 27.3527C110.016 29.1741 112.273 29.0926 114.049 26.9348Z" fill="#004525"/>
<path d="M148.325 4.7497C149.36 4.63129 150.423 4.65079 151.488 4.81865C156.101 5.5465 160.326 8.83611 161.799 12.3298L160.902 12.6989C159.559 9.51729 155.619 6.46031 151.337 5.7847C143.457 4.54143 135.876 12.3925 135.601 21.4304L134.62 21.4116C134.875 13.0291 141.076 5.57854 148.325 4.7497ZM162.645 17.7814L163.624 17.757C163.727 23.281 156.575 29.6701 151.667 27.5812C150.939 27.2713 150.356 26.898 149.916 26.487C148.941 25.5753 148.715 24.5375 148.951 23.5909C148.989 23.4384 149.031 23.3095 149.065 23.2364L149.957 23.6522C149.947 23.6717 149.922 23.7407 149.9 23.8292C149.743 24.456 149.886 25.1323 150.579 25.7801C150.932 26.1095 151.411 26.4034 152.038 26.6702C156.225 28.4519 162.736 22.6597 162.645 17.7814Z" fill="#004525"/>
<path d="M21.8766 187.966L22.4421 188.771C16.9759 192.486 15.7201 198.675 18.8948 204.443C19.7578 206.011 22.4289 207.702 25.2504 208.425C25.7241 208.547 26.1817 208.648 26.6435 208.709L26.5125 209.667C26.0124 209.6 25.4998 209.493 24.9892 209.362C21.9302 208.577 19.0355 206.738 18.0242 204.9C14.6134 198.704 15.9813 191.972 21.8766 187.966ZM34.3705 199.48C34.927 199.652 35.471 200.092 35.6981 200.525C37.5348 204.029 35.8464 208.219 30.3433 208.752L30.2562 207.773C35.0071 207.313 36.3667 203.919 34.8274 200.982C34.7223 200.781 34.397 200.511 34.087 200.416C33.7437 200.31 33.4832 200.407 33.238 200.808L32.3896 200.285C32.8716 199.496 33.6092 199.245 34.3705 199.48Z" fill="#004525"/>
<path d="M124.605 16.981C126.508 16.935 128.717 17.4101 130.534 18.4012C133.672 20.1132 135.448 23.1347 135.273 27.4168L134.312 27.3743C134.472 23.4697 132.89 20.7881 130.073 19.2509C127.865 18.0467 124.979 17.6782 123.069 18.1428C119.931 18.9055 117.156 21.711 116.868 23.4028C116.818 23.6926 116.807 23.976 116.81 24.4949L115.829 24.4977C115.826 23.9238 115.84 23.6146 115.902 23.2524C116.257 21.1663 119.322 18.0474 122.828 17.1948C123.365 17.0646 123.971 16.9956 124.605 16.981ZM117.917 27.1667C118.764 30.7196 121.461 31.3785 123.515 29.9103C123.636 29.8232 123.779 29.5739 123.815 29.351C123.853 29.1205 123.778 28.9707 123.487 28.8432L123.88 27.9531C124.589 28.2623 124.889 28.8397 124.781 29.5014C124.704 29.9792 124.41 30.4731 124.076 30.7113C121.5 32.5521 117.991 31.6738 116.968 27.3854L117.917 27.1667Z" fill="#004525"/>
<path d="M129.002 9.01642C134.243 13.6036 136.427 19.7468 135.514 26.0544C134.673 31.8577 131.252 37.1526 126.498 40.0326C117.685 45.3707 104.383 41.5796 98.9625 34.2307L99.4535 33.748C104.583 40.7027 117.632 44.2751 126.002 39.2059C130.502 36.4797 133.749 31.4231 134.548 25.9033C135.415 19.9182 133.348 14.1093 128.361 9.74358L129.002 9.01642Z" fill="#004525"/>
<path d="M26.9694 152.574C34.8413 154.169 41.798 163.027 40.8131 172.033C39.6312 182.84 28.028 190.423 17.0009 185.55L17.3924 184.658C27.7898 189.253 38.7201 182.102 39.8332 171.924C40.7616 163.434 34.1643 155.029 26.7736 153.532L26.9694 152.574Z" fill="#004525"/>
<path d="M25.0108 100.663C26.0451 100.723 27.1031 100.843 28.1883 101.054C35.7029 102.515 43.0162 109.709 45.819 117.815C49.1552 127.463 47.9454 135.53 42.9243 142.257C38.943 147.591 32.8556 151.819 24.7057 155.6L24.2927 154.708C32.3081 150.989 38.2751 146.848 42.1407 141.67C46.9675 135.203 48.1147 127.486 44.8829 118.141C42.1874 110.346 35.1408 103.402 27.9925 102.012C19.7215 100.405 12.9507 103.487 9.77466 109.282C6.8152 114.682 7.93101 120.858 12.8219 123.974L12.2995 124.801C6.94754 121.391 5.73353 114.629 8.92563 108.803C11.8851 103.403 17.7713 100.242 25.0108 100.663Z" fill="#004525"/>
<path d="M47.0162 26.7245C48.8272 26.7105 49.8712 27.5415 49.9109 28.7917C49.9437 29.8337 49.2005 30.8987 48.3006 30.9683C48.0318 30.9892 47.7984 30.7796 47.7782 30.5114C47.7573 30.2432 47.9663 30.0099 48.2351 29.989C48.5527 29.9646 48.9498 29.381 48.9316 28.814C48.9101 28.1398 48.3354 27.694 47.0162 27.7038C44.4538 27.7226 43.1917 34.035 45.1879 39.348C47.251 44.8407 53.2911 52.6687 55.5485 53.9099C55.7846 54.0395 55.8744 54.3271 55.7442 54.5625C55.6146 54.7987 55.327 54.8885 55.0916 54.7589C52.6106 53.3945 46.4131 45.3923 44.2734 39.6963C42.0766 33.8491 43.5031 26.7502 47.0162 26.7245Z" fill="#004525"/>
<path d="M29.7122 30.2286C30.0075 30.5232 37.1551 37.6276 37.2428 37.7161C41.0604 41.5441 43.6026 44.1546 44.4475 45.1381C47.7852 49.0239 51.3276 52.7447 53.8288 54.8021C54.037 54.9735 54.0649 55.2904 53.8942 55.4987C53.7229 55.7069 53.4276 55.7348 53.2193 55.5641C50.6638 53.4614 47.0796 49.6947 43.7078 45.7691C42.8859 44.8128 40.3388 42.2148 36.5463 38.4126C36.4586 38.3241 29.3333 31.2205 29.0373 30.9251C28.8471 30.735 28.8471 30.4188 29.0373 30.2286C29.2274 30.0378 29.5213 30.0385 29.7122 30.2286Z" fill="#004525"/>
<path d="M31.5406 46.1828C32.8619 46.1404 34.5119 46.5116 37.0688 47.2931C43.1235 49.1423 50.6068 53.5024 54.3074 57.1967C54.4982 57.3869 54.4975 57.7024 54.3074 57.8932C54.1172 58.0834 53.8233 58.0834 53.6332 57.8932C50.0482 54.3153 42.6917 50.0324 36.786 48.2285C31.9418 46.7491 30.7159 46.7881 28.6459 48.3594C27.9459 48.8909 27.6659 49.7789 27.8839 50.4274C28.072 50.9867 28.5303 51.1364 29.277 50.6663C29.5047 50.5235 29.8084 50.591 29.9519 50.8188C30.0954 51.0466 30.0271 51.3286 29.7993 51.4721C28.5324 52.2689 27.3428 51.9067 26.9478 50.7317C26.5961 49.6835 27.0056 48.3803 28.0365 47.5975C29.2219 46.6976 30.2193 46.2253 31.5406 46.1828Z" fill="#004525"/>
<path d="M81.9287 14.9486C84.2397 15.1366 86.47 15.7182 88.5456 16.7553C93.2762 19.12 97.743 25.3941 99.2105 31.9044C100.926 39.513 98.4722 46.2058 91.4618 50.0791C88.0002 51.9917 83.5495 51.2116 80.5357 48.5335C77.4174 45.7628 76.8923 41.9083 79.8392 38.9349C80.0287 38.7434 80.3442 38.7455 80.5357 38.9349C80.7266 39.1244 80.7252 39.4183 80.5357 39.6098C78.0171 42.1507 78.4587 45.3679 81.1883 47.7938C83.9103 50.2121 87.9292 50.9295 91.0049 49.23C97.6085 45.5817 99.8785 39.3319 98.2528 32.1224C96.8466 25.883 92.563 19.8513 88.1102 17.6259C80.2272 13.6858 69.7113 16.4837 62.6006 24.0032C54.9502 32.0938 53.179 43.3647 59.2483 54.171C59.5931 54.7847 59.9038 55.3307 60.2276 55.9778C60.2764 56.0739 60.9757 57.4941 60.9896 57.5226C61.1087 57.7643 61.014 58.0569 60.7723 58.176C60.5306 58.2944 60.2381 58.1997 60.119 57.958C60.1043 57.928 59.4051 56.5078 59.357 56.4124C59.0394 55.7793 58.7364 55.2492 58.4 54.6495C52.1147 43.4594 53.9681 31.7421 61.9041 23.3505C67.4434 17.4929 74.995 14.3858 81.9287 14.9486Z" fill="#004525"/>
<path d="M38.1358 57.4572C43.4279 57.1452 48.9958 58.4386 54.3073 61.506C54.5407 61.6404 54.6166 61.926 54.4815 62.1586C54.347 62.392 54.0406 62.4895 53.8072 62.355C43.5316 56.4215 32.3576 57.3248 24.1833 63.8351C16.2209 70.1775 12.84 80.5137 16.0871 90.5413C17.579 95.1494 23.3426 99.6642 29.7777 101.207C37.0604 102.953 43.5999 100.711 47.3861 94.1548C49.1504 91.0999 48.55 87.0268 46.2111 84.2296C43.8667 81.4275 40.676 80.933 38.0919 83.4021C37.8976 83.5888 37.603 83.5756 37.417 83.3805C37.231 83.1862 37.2227 82.87 37.417 82.684C40.4454 79.79 44.2713 80.4169 46.9508 83.6201C49.539 86.714 50.2174 91.2009 48.2352 94.634C44.217 101.591 37.2373 104.005 29.5597 102.165C22.8196 100.549 16.7579 95.8104 15.151 90.8464C11.7757 80.4239 15.3001 69.6635 23.5746 63.0731C27.817 59.6937 32.843 57.7699 38.1358 57.4572Z" fill="#004525"/>
<path d="M53.459 13.8823C56.1907 14.0877 58.9224 15.7259 61.5343 19.1493C62.0023 19.7636 62.4509 20.4253 62.905 21.1524L62.0783 21.6748C61.6395 20.9727 61.2 20.3264 60.75 19.7371C55.9177 13.4017 50.8624 13.6629 45.9931 17.9304C45.2249 18.6039 44.5318 19.3199 43.9252 20.0422C43.7134 20.2943 43.5393 20.529 43.3812 20.7387C43.2879 20.8627 43.2154 20.956 43.1855 20.9999C42.9905 21.2827 42.5718 21.2848 42.3803 20.9999C40.9824 18.9243 40.2741 18.1163 39.0064 17.5389C37.2721 16.7498 35.6625 17.027 30.3001 18.6053C27.8344 19.3311 26.3523 19.7092 24.7496 19.9335C22.082 20.3062 19.7981 20.0443 17.7406 19.0845C18.6447 20.9908 19.0243 22.987 18.7422 25.2437C18.4901 27.2573 17.9287 29.1114 16.7613 32.1872C14.699 37.6242 14.3166 39.1544 14.9985 40.959C15.4937 42.2685 16.225 43.0409 18.1982 44.5718C18.4678 44.7815 18.4462 45.2001 18.1544 45.3777C18.1063 45.4069 18.0074 45.4606 17.8716 45.5518C17.6431 45.705 17.407 45.8882 17.1319 46.0958C16.3427 46.6906 15.5383 47.3746 14.8028 48.1421C12.7683 50.2637 11.5431 52.5782 11.4943 54.9979C11.4317 58.1085 13.3262 61.2483 17.6543 64.3791L17.088 65.1627C12.521 61.8585 10.4447 58.44 10.515 54.9763C10.5694 52.271 11.9178 49.749 14.1062 47.4672C14.8801 46.6599 15.7159 45.9363 16.544 45.3122C16.7544 45.1534 16.9229 45.028 17.1096 44.8985C15.4547 43.5675 14.6022 42.678 14.084 41.3073C13.2753 39.1676 13.6723 37.5726 15.8475 31.839C16.9884 28.8321 17.5233 27.0491 17.7629 25.1351C18.0631 22.7349 17.7309 20.637 16.6095 18.7362L16.1735 18.1923C15.8259 17.7541 16.365 17.1795 16.8268 17.4957C19.0173 18.9939 21.5268 19.3861 24.6193 18.9535C26.1607 18.7383 27.5948 18.3824 30.0173 17.6699C35.6708 16.0052 37.3446 15.7336 39.3979 16.6683C40.7261 17.2729 41.5536 18.1902 42.7718 19.9335C42.9006 19.7678 43.0295 19.6187 43.1855 19.4327C43.8221 18.6742 44.5541 17.899 45.3621 17.1907C47.9879 14.8887 50.7273 13.6768 53.459 13.8823Z" fill="#004525"/>
<path d="M11.9729 346.248C12.2104 346.374 12.2961 346.684 12.1686 346.922C9.44316 352.023 7.76247 361.554 8.70833 367.36C9.17429 370.221 9.99827 372.514 11.6246 376.067C11.7423 376.323 12.2508 377.446 12.3866 377.742C12.6798 378.385 12.9145 378.899 13.127 379.397C15.3495 384.618 15.6532 388.577 13.4968 393.915C13.3958 394.164 13.0936 394.277 12.8435 394.176C12.5942 394.075 12.4813 393.794 12.5823 393.545C14.6321 388.472 14.341 384.79 12.2125 379.789C12.0049 379.301 11.7848 378.791 11.4944 378.156C11.3592 377.862 10.8508 376.739 10.7324 376.48C9.07261 372.856 8.23331 370.479 7.75063 367.513C6.76994 361.492 8.4952 351.752 11.3202 346.465C11.447 346.228 11.7354 346.12 11.9729 346.248Z" fill="#004525"/>
<path d="M46.9787 226.328C46.7781 226.202 49.3015 226.983 48.9728 228.235C48.5354 229.902 49.9827 228.176 50.8965 227.299C53.1281 225.158 56.938 228.648 56.4742 228.482C55.8703 228.266 50.301 227.805 50.6493 232.806C51.1605 240.144 42.1324 240.643 41.578 235.877C41.0305 231.171 45.1141 228.943 44.7018 229.753C44.3856 230.373 44.8049 230.836 45.1608 231.112C45.1733 230.218 48.8369 227.498 46.9787 226.328Z" fill="#004525"/>
<path d="M11.4344 354.391C16.2271 353.182 14.4621 357.806 16.2027 358.842C16.5182 359.029 18.9344 359.354 19.5968 358.492C19.7528 358.29 18.1982 361.709 15.1503 360.971C13.4759 360.566 12.4457 358.052 12.2911 357.636C12.1797 357.337 11.3278 354.55 11.3912 354.412C11.3982 354.397 11.4191 354.396 11.4344 354.391Z" fill="#004525"/>
<path d="M113.919 26.044C114.309 26.3588 114.892 26.0189 114.991 25.8824C115.297 25.4589 115.14 24.4901 114.911 24.3278C114.1 23.7518 113.894 23.9802 113.21 24.1453C112.258 24.3758 111.92 23.8639 111.958 23.9774C112.014 24.1446 111.897 24.635 112.811 25.211C113.33 25.5383 113.309 25.5522 113.919 26.044Z" fill="#A31118"/>
<path d="M160.757 12.9705C158.496 12.7894 158.482 9.76309 157.446 10.3767C157.131 10.5634 157.937 9.30478 158.844 9.93791C158.857 9.94696 158.581 9.54995 158.465 9.28319C158.247 8.781 158.658 8.32269 158.605 7.82538C158.588 7.65334 158.428 7.35247 158.446 7.37406C158.591 7.5454 158.791 7.71046 158.981 7.84419C159.396 8.13603 159.933 8.03364 160.321 8.39374C160.435 8.49961 160.64 9.01573 160.597 8.78589C160.399 7.70769 161.776 6.97287 161.363 7.40122C161.232 7.53704 160.701 7.75225 161.896 9.45869C162.876 10.858 162.435 13.1042 160.757 12.9705Z" fill="#A31118"/>
<path d="M116.759 24.5298C117.826 23.7135 116.861 22.2027 117.573 22.1749C117.791 22.1658 116.984 21.7995 116.737 22.4061C116.733 22.4138 116.743 22.1275 116.715 21.9583C116.662 21.6379 116.31 21.5418 116.176 21.2778C116.13 21.1865 116.113 20.9852 116.111 21.0013C116.094 21.1336 116.047 21.2799 115.995 21.4073C115.883 21.6866 115.582 21.8085 115.505 22.1122C115.482 22.2014 115.546 22.5238 115.494 22.3957C115.246 21.796 114.324 21.8726 114.668 21.9527C114.776 21.9785 115.11 21.9151 115.063 23.1486C115.026 24.1599 115.967 25.1357 116.759 24.5298Z" fill="#A31118"/>
<path d="M14.1188 391.256C9.31075 390.11 11.1363 394.71 9.40967 395.769C9.09693 395.961 6.68492 396.317 6.0107 395.464C5.8526 395.263 7.45176 398.662 10.4899 397.884C12.1588 397.457 13.1555 394.929 13.3052 394.512C13.4125 394.211 14.2274 391.413 14.1619 391.276C14.1557 391.261 14.1341 391.26 14.1188 391.256Z" fill="#004525"/>
<path d="M17.8625 241.875C18.5485 242.023 20.2626 241.864 20.9229 240.947C22.1968 239.178 20.6986 238.032 21.3039 236.635C21.3241 236.588 22.3974 237.888 25.4043 235.769C26.7973 234.788 26.9317 232.543 25.8946 231.793C25.841 231.754 24.8206 233.739 23.3767 233.217C19.5905 231.849 15.8649 231.877 14.8536 233.609C13.5128 235.905 16.4095 237.3 17.9718 238.748C18.6286 239.357 18.7638 239.994 18.4134 240.827C18.286 241.131 17.2098 241.735 17.8625 241.875Z" fill="#CEA54A"/>
<path d="M16.7425 231.398C15.3774 231.067 14.513 229.606 13.0649 230.758C12.4346 231.26 11.9408 232.108 12.4186 233.128C12.9417 234.244 13.4975 234.216 13.673 234.572C14.2183 235.68 14.0428 236.187 13.2621 236.326C12.8637 236.397 14.5074 236.42 14.9797 235.776C15.2987 235.341 14.9309 234.863 14.9727 234.579C15.027 234.217 14.8745 234.996 16.1971 235.026C16.6784 235.038 17.3659 235.212 17.3805 235.116C17.446 234.693 17.4056 234.381 17.3603 234.136C17.0942 232.683 16.0669 233.101 16.6004 232.984C17.3561 232.819 17.6389 232.266 17.9189 231.664C18.0192 231.447 17.9837 230.356 17.7929 230.617C17.4279 231.114 17.0455 231.471 16.7425 231.398Z" fill="#004525"/>
<path d="M18.8195 279.57C18.0227 278.833 18.5666 277.477 18.8292 277.222C19.64 276.431 21.7664 276.464 22.1857 276.903C23.6762 278.461 23.2521 278.974 23.1128 280.492C22.9191 282.604 24.1234 283.169 23.8664 283.123C23.4903 283.056 22.4769 283.46 20.9543 281.684C20.0892 280.674 20.0655 280.722 18.8195 279.57Z" fill="#A31118"/>
<path d="M16.395 279.448C16.1421 279.719 15.86 279.982 15.6323 280.272C15.5905 280.325 15.3836 280.825 15.3321 280.803C15.1545 280.731 15.2318 280.073 15.089 279.978C15.0521 279.953 14.3444 280.347 14.2581 280.375C13.7705 280.538 12.6902 280.558 11.9074 280.68C11.3704 280.764 10.9747 280.994 11.0033 280.958C11.4588 280.377 11.3773 278.856 11.7033 278.186C11.8196 277.946 12.3092 277.274 12.3071 277.268C12.2688 277.181 11.4929 277.34 11.4867 277.286C11.4797 277.219 11.6712 277.006 11.7082 276.936C12.1045 276.182 12.5753 275.641 13.4104 275.374C14.3737 275.066 16.5719 274.789 17.2308 275.95C17.7469 276.859 16.9285 278.875 16.395 279.448Z" fill="#A31118"/>
<path d="M19.0843 272.285C17.4927 271.075 18.1899 270.503 18.1154 268.965C18.0624 267.868 17.5561 267.576 17.5686 267.556C17.9183 266.977 19.3538 268.082 19.3002 267.763C19.0661 266.361 19.803 266.4 19.3726 265.046C19.2591 264.689 20.0621 265.057 20.3965 265.246C20.6855 265.41 21.0031 265.736 21.2545 266.064C22.0298 267.073 21.6481 268.248 21.7428 268.34C21.8208 268.416 22.0109 267.895 22.3251 267.651C22.6322 267.411 23.0627 267.445 23.172 267.788C23.1887 267.84 22.5097 267.706 22.3174 269.015C21.9413 271.581 19.8337 272.855 19.0843 272.285Z" fill="#A31118"/>
<path d="M20.7356 273.095C22.1509 270.55 25.6934 272.145 25.5283 270.607C25.4781 270.14 26.5187 271.753 25.2963 272.474C25.2796 272.485 25.8905 272.373 26.2631 272.38C26.9659 272.393 27.2828 273.116 27.8915 273.321C28.1012 273.391 28.5379 273.364 28.5038 273.374C28.2266 273.452 27.9271 273.598 27.6694 273.75C27.1073 274.078 26.9408 274.761 26.3139 275.022C26.1294 275.099 25.4176 275.063 25.7087 275.136C27.0732 275.479 27.1999 277.478 26.9185 276.767C26.8301 276.542 26.8607 275.807 24.2314 276.295C22.075 276.695 19.686 274.983 20.7356 273.095Z" fill="#A31118"/>
<path d="M15.2074 269.21C16.7864 269.17 17.5449 270.754 17.7977 272.51C17.8478 272.856 17.6194 273.256 17.3659 273.528C15.4045 275.633 13.7782 273.797 13.3637 273.056C11.0081 268.841 12.0076 267.678 12.1553 267.709C12.2277 267.724 12.1358 269.286 15.2074 269.21Z" fill="#A31118"/>
<path d="M10.0373 315.138C9.24535 314.479 12.4945 316.081 13.0023 310.884C13.1451 309.43 11.1315 307.002 10.0637 305.914C4.71663 300.472 6.09503 296.418 11.6977 296.911C14.3278 297.143 16.4208 301.884 18.5834 300.524C20.0015 299.633 17.2531 303.92 13.9189 302.969C12.7105 302.624 13.5832 302.212 13.9461 302.897C15.4972 305.829 17.742 310.111 14.6565 313.879C14.0784 314.584 11.3607 316.239 10.0373 315.138Z" fill="#004525"/>
<path d="M7.821 199.215C6.62789 195.667 8.73062 201.788 10.7874 197.068C11.8621 194.603 15.2131 194.663 14.4392 198.465C14.1913 199.681 10.9915 202.35 14.1188 202.77C15.057 202.897 10.2379 204.292 10.995 200.739C11.4679 198.521 9.2189 203.374 7.821 199.215Z" fill="#004525"/>
<path d="M64.0188 26.7015C63.5542 26.5769 65.246 26.6207 64.4457 24.3167C64.2215 23.6717 62.8925 23.0351 62.2267 22.7823C58.8939 21.5181 58.6856 19.5289 61.1596 18.6423C62.3214 18.2264 64.1365 19.8291 64.7884 18.8289C65.2154 18.1735 64.8873 20.5305 63.2867 20.7784C62.7065 20.8683 62.9963 20.5228 63.284 20.7429C64.5154 21.6839 66.3054 23.0616 65.7329 25.264C65.6256 25.6763 64.7961 26.9098 64.0188 26.7015Z" fill="#004525"/>
<path d="M23.7278 68.2037C23.6163 67.7356 23.6114 69.4281 21.331 68.5617C20.693 68.3193 20.0947 66.9722 19.8621 66.2994C18.6948 62.9311 16.7118 62.6657 15.7548 65.1133C15.3049 66.2618 16.8546 68.1229 15.8363 68.7456C15.1691 69.1537 17.5337 68.8939 17.8283 67.301C17.9349 66.7236 17.5811 67.0029 17.7928 67.2975C18.6976 68.5554 20.023 70.3844 22.2414 69.876C22.6565 69.7806 23.9137 68.9865 23.7278 68.2037Z" fill="#004525"/>
<path d="M59.2504 59.8142C59.1069 58.9443 59.1975 57.2497 58.3854 56.6904C58.0705 56.4737 54.6931 56.0238 54.604 56.216C54.3149 56.8457 54.7196 58.6629 54.9801 59.2939C55.4844 60.5149 59.435 60.9356 59.2504 59.8142Z" fill="#CEA54A"/>
<path d="M61.2389 57.9712C61.7787 57.4356 61.8971 55.9458 61.9069 55.25C61.9326 53.3617 63.9783 52.8783 64.3007 51.0632C64.4331 50.3138 64.3948 49.4627 64.128 48.732C64.1238 48.7216 63.7867 47.9659 63.7805 47.9659C63.7498 47.9652 63.5638 48.7098 63.1578 49.3046C62.9293 49.6389 62.5149 49.9036 62.3032 50.0178C60.2993 51.0953 57.8218 52.4813 58.4682 54.8697C58.5622 55.2179 58.3373 55.6881 59.6634 57.2162C59.8626 57.4454 59.9497 57.9392 60.0423 58.192C60.1788 58.566 61.071 58.137 61.2389 57.9712Z" fill="url(#paint0_linear_624_694)"/>
<path d="M57.6583 63.0947C57.5538 63.0495 56.8036 63.5001 56.5717 63.6136C55.8383 63.9737 55.2699 64.5024 54.6911 65.0812C52.9819 66.7904 52.3174 68.7546 53.0912 70.9729C53.1895 71.2557 53.4931 72.6933 53.7244 72.8486C53.9674 73.0109 54.1458 71.691 54.6389 71.1784C55.0756 70.7243 55.5318 70.1894 56.0361 69.7854C57.4793 68.6292 56.7006 67.0579 57.6966 65.5255C57.9389 65.1522 59.0638 64.409 59.0304 63.9493C58.9942 63.452 57.9257 63.2118 57.6583 63.0947Z" fill="url(#paint1_linear_624_694)"/>
<path d="M63.8112 59.6832C65.8896 57.6209 66.7811 57.7783 67.3898 57.3269C68.5586 56.4598 68.5732 55.3308 68.8052 53.9795C68.8915 53.4746 69.5887 52.0279 69.9481 51.6525C70.5283 51.0465 68.4604 51.8997 67.6921 52.4388C66.6181 53.1925 63.5431 53.8047 62.9956 56.2487C62.5986 58.0207 61.5587 58.2749 61.7837 58.7395C61.971 59.1274 62.7915 60.6953 63.8112 59.6832Z" fill="url(#paint2_linear_624_694)"/>
<path d="M59.761 64.7246C58.5811 66.5028 58.1109 67.0112 58.2635 69.2923C58.3805 71.0496 58.8848 72.2239 59.917 73.6044C61.3434 75.5128 60.4881 77.002 60.7381 77.0946C61.2731 77.2931 62.2468 75.2871 62.4223 75.0538C63.4093 73.7437 63.6844 72.1487 63.0513 70.5711C62.4794 69.1474 61.2034 68.3785 61.1136 66.7131C61.0822 66.1357 61.4145 65.5117 61.6269 64.944C61.9703 64.0253 59.9316 64.4683 59.761 64.7246Z" fill="url(#paint3_linear_624_694)"/>
<path d="M63.7346 62.2638C64.4617 62.4805 65.2941 61.9247 66.1132 62.2611C67.6671 62.8991 68.3594 64.5839 69.8193 65.2254C70.4462 65.5005 71.2485 65.5332 71.9088 65.4678C73.6383 65.2985 75.3363 64.0608 75.1155 63.1554C75.1107 63.1338 73.9781 63.9257 72.3678 62.9778C70.7993 62.0549 70.4712 59.7871 69.2865 59.2152C68.5287 58.8496 67.6511 58.7158 66.8334 58.7193C65.9091 58.7235 64.6303 59.273 64.0167 60.0385C63.2206 61.0317 63.0715 62.0653 63.7346 62.2638Z" fill="url(#paint4_linear_624_694)"/>
<path d="M56.9185 62.697C55.2755 62.4616 54.1869 64.453 52.8419 64.9322C51.5882 65.3786 50.3226 65.1411 49.2131 64.5783C48.6127 64.274 47.8479 63.6332 47.3729 63.9647C47.1138 64.1465 46.1304 64.6494 46.2355 64.3485C46.3811 63.9334 46.8547 62.5118 48.7854 62.4143C50.8596 62.3091 51.5429 59.5112 54.2265 59.8957C55.3382 60.0545 56.4505 60.79 57.264 61.5158C57.5141 61.7387 57.4611 62.7744 56.9185 62.697Z" fill="url(#paint5_linear_624_694)"/>
<path d="M66.2371 64.6793C65.3407 64.2168 63.7457 63.1205 63.1 63.4381C61.9828 63.9891 62.8716 65.7666 62.974 66.3391C63.1195 67.1512 64.3196 69.1906 65.5051 70.0034C66.0748 70.3935 67.9993 70.2347 68.2451 69.9902C68.5432 69.6942 69.1144 67.8011 68.6811 67.0697C68.2361 66.3203 67.0618 65.1049 66.2371 64.6793Z" fill="#CEA54A"/>
<path d="M20.9536 126.125C20.9466 126.139 20.4312 126.384 20.2989 127.275C20.2376 127.689 20.5155 128.354 20.4849 128.406C20.4675 128.436 20.0816 128.715 20.0294 128.772C19.7445 129.083 19.5439 129.514 19.4067 129.916C19.3565 130.063 19.2764 130.676 19.4993 130.761C19.6539 130.819 19.6281 130.436 19.766 130.352C20.122 130.134 20.3421 130.091 20.7461 129.963C21.2392 129.807 21.662 129.363 22.2004 129.664C22.2561 129.694 22.9916 130.138 23.0118 130.078C23.0424 129.987 22.9206 129.187 22.3404 128.636C22.0207 128.332 21.6926 128.062 21.4607 127.747C21.3423 127.585 21.2608 127.047 21.2963 126.859C21.3638 126.499 21.5136 126.028 21.6703 125.76C21.7079 125.695 21.0483 125.932 20.9536 126.125Z" fill="#004525"/>
<path d="M14.9978 123.313C14.2428 123.185 13.79 123.3 13.0907 123.661C11.4233 124.522 12.1985 126.358 12.8372 127.461C14.3089 130.001 12.7926 129.756 12.8268 129.759C13.6479 129.831 15.4205 127.603 14.6049 125.783C14.4635 125.467 15.4616 125.4 15.4791 125.399C18.637 125.184 17.7337 121.877 17.501 122.021C17.4801 122.034 17.9851 123.817 14.9978 123.313Z" fill="#CEA54A"/>
<path d="M20.3699 128.81C19.8427 129.432 17.6222 129.628 16.9361 129.259C15.8587 128.679 13.3784 125.732 14.2288 125.538C14.7178 125.427 17.1639 124.512 18.2867 125.266C19.5495 126.114 20.7502 127.945 20.6687 128.486" fill="url(#paint6_radial_624_694)"/>
<path d="M136.912 33.4395C137.017 32.9345 136.892 31.6738 136.213 31.1918C134.905 30.2627 134.069 31.3709 133.038 30.9321C133.004 30.9174 133.956 30.1213 132.382 27.9183C131.653 26.8979 130 26.8094 129.453 27.5763C129.425 27.616 130.891 28.3578 130.514 29.4227C129.525 32.2157 129.562 34.9572 130.842 35.6934C132.539 36.6692 133.551 34.5309 134.609 33.374C135.054 32.8878 135.522 32.7855 136.137 33.039C136.362 33.1316 136.812 33.9208 136.912 33.4395Z" fill="#CEA54A"/>
<path d="M129.828 33.7982C129.71 34.8249 128.722 35.5883 129.694 36.5418C130.117 36.9569 130.782 37.2404 131.484 36.7988C132.251 36.3161 132.18 35.9128 132.424 35.7519C133.184 35.2532 133.571 35.3354 133.743 35.8933C133.83 36.1775 133.698 34.9753 133.185 34.6891C132.839 34.4954 132.523 34.8068 132.311 34.8019C132.042 34.7956 132.625 34.836 132.528 33.8672C132.492 33.5148 132.557 32.9973 132.485 32.9952C132.171 32.9854 131.947 33.0432 131.772 33.0982C130.734 33.4242 131.134 34.1367 131 33.7578C130.81 33.2208 130.381 33.0641 129.915 32.9144C129.748 32.8607 128.955 32.9854 129.162 33.101C129.559 33.3232 129.854 33.5698 129.828 33.7982Z" fill="#004525"/>
<path d="M32.8159 187.571C32.4635 187.649 31.581 187.575 31.237 187.105C30.5739 186.2 31.3407 185.604 31.0231 184.888C31.0127 184.863 30.4659 185.537 28.9099 184.459C28.189 183.959 28.1103 182.805 28.641 182.415C28.6682 182.395 29.2017 183.412 29.9428 183.137C31.8854 182.418 33.8029 182.416 34.3301 183.304C35.0294 184.48 33.5445 185.209 32.747 185.961C32.4112 186.277 32.3444 186.606 32.5283 187.033C32.5951 187.189 33.1509 187.495 32.8159 187.571Z" fill="#CEA54A"/>
<path d="M33.3494 182.174C34.0501 181.998 34.4889 181.243 35.239 181.829C35.5657 182.085 35.8234 182.519 35.5817 183.047C35.317 183.623 35.0308 183.611 34.9416 183.795C34.6658 184.367 34.7578 184.627 35.1603 184.695C35.3658 184.73 34.5202 184.749 34.2744 184.42C34.1086 184.197 34.2959 183.949 34.273 183.803C34.2437 183.618 34.3252 184.018 33.6447 184.039C33.3968 184.047 33.0443 184.139 33.036 184.09C33.0004 183.872 33.02 183.712 33.0422 183.585C33.1732 182.836 33.7039 183.047 33.4288 182.99C33.0388 182.907 32.8911 182.624 32.7448 182.315C32.6919 182.205 32.7058 181.643 32.8054 181.776C32.9956 182.031 33.1934 182.213 33.3494 182.174Z" fill="#004525"/>
<path d="M30.6895 28.5549C30.3934 27.9086 30.2019 27.2135 29.543 27.1229C28.4084 26.9662 28.8284 29.2222 28.8193 29.2264C28.7553 29.2556 26.2123 29.1059 26.4547 29.7118C27.1735 31.5151 29.7492 32.2826 30.7466 31.0749C30.8803 30.9126 30.8051 28.8078 30.6895 28.5549Z" fill="#004525"/>
<path d="M31.4208 34.6097C30.0354 34.9503 29.6029 34.9168 28.1172 34.1193C27.9549 34.0316 26.8997 33.6081 27.1247 33.6332C27.3496 33.659 27.4367 33.278 27.7049 33.14C27.9403 33.0196 28.2656 32.9638 28.1395 32.8963C27.2389 32.4122 26.6309 31.6433 25.8236 31.0164C25.6509 30.882 24.9314 30.9495 24.8039 30.8458C24.7113 30.7705 25.5791 30.0148 27.4172 30.5449C27.7578 30.6431 29.015 30.6556 29.2595 30.7113C29.4733 30.7601 30.3272 31.2038 30.4415 31.1738C30.5884 31.1362 30.0375 30.3039 30.2116 29.2125C30.3467 28.3634 31.434 27.2016 30.5571 26.2704C30.2165 25.9089 31.1951 26.6228 31.3894 26.861C31.9139 27.5039 31.9397 27.8744 32.2238 28.5445C32.3408 28.8182 32.3847 29.062 32.602 29.2932C32.6515 29.3455 32.3833 28.9687 32.4272 28.7395C32.4551 28.5946 32.7051 27.9532 32.6438 27.8097C32.5839 27.6683 32.8702 28.4769 33.3313 28.8872C33.7324 29.2459 34.1636 30.1743 34.2012 30.8416C34.3802 33.9633 32.1047 34.4411 31.4208 34.6097Z" fill="#CEA54A"/>
<path d="M35.1338 34.2098C35.8832 34.9732 34.2019 36.5139 33.5478 36.0194C32.556 35.2678 31.8435 34.3993 32.3652 33.9473C32.5407 33.7954 32.5302 33.9055 33.1153 33.3176C33.7004 32.7291 34.3843 33.4472 35.1338 34.2098Z" fill="#004525"/>
<path d="M166.17 12.5164C165.905 13.3188 164.769 13.371 164.503 13.2679C163.68 12.9489 163.016 11.4312 163.192 10.9917C163.815 9.43154 164.315 9.56666 165.437 9.17522C166.997 8.62986 167.008 7.59415 167.058 7.79126C167.132 8.07962 167.746 8.66676 166.979 10.3203C166.543 11.2592 166.584 11.2606 166.17 12.5164Z" fill="#A31118"/>
<path d="M28.1284 212.499C28.5943 212.06 28.267 211.264 28.1109 211.114C27.6296 210.651 26.3752 210.681 26.1301 210.941C25.258 211.868 25.5109 212.168 25.6 213.063C25.7247 214.308 25.0171 214.647 25.1682 214.619C25.3897 214.577 25.9894 214.811 26.8788 213.756C27.3845 213.156 27.3984 213.184 28.1284 212.499Z" fill="#A31118"/>
<path d="M166.694 14.0154C166.968 14.1066 167.245 14.2222 167.525 14.2898C167.575 14.3016 167.996 14.287 167.998 14.3309C168.003 14.4799 167.512 14.6373 167.491 14.7697C167.486 14.8038 167.994 15.1785 168.042 15.2301C168.314 15.5233 168.678 16.2825 169.017 16.7979C169.25 17.1517 169.54 17.3579 169.506 17.3495C168.946 17.2137 167.895 17.7626 167.315 17.7486C167.108 17.7431 166.472 17.6135 166.469 17.617C166.419 17.6727 166.783 18.1714 166.747 18.1923C166.701 18.2195 166.489 18.1519 166.427 18.1484C165.765 18.1115 165.229 17.9527 164.77 17.4471C164.241 16.8634 163.335 15.3951 163.944 14.5531C164.423 13.8935 166.116 13.8224 166.694 14.0154Z" fill="#A31118"/>
<path d="M114.14 26.9585C114.034 27.0923 113.933 27.2385 113.815 27.3625C113.794 27.3848 113.58 27.5123 113.593 27.5346C113.638 27.6112 113.933 27.5318 113.986 27.5903C114 27.6056 113.867 27.9552 113.86 27.9963C113.818 28.2297 113.882 28.7249 113.879 29.0905C113.876 29.3413 113.798 29.5377 113.813 29.5217C114.048 29.2751 114.748 29.2097 115.031 29.016C115.133 28.9471 115.407 28.6782 115.41 28.6789C115.452 28.6907 115.432 29.0557 115.457 29.055C115.488 29.0536 115.572 28.952 115.602 28.9304C115.92 28.6984 116.135 28.4477 116.2 28.0479C116.277 27.5875 116.256 26.565 115.682 26.3421C115.232 26.168 114.366 26.6764 114.14 26.9585Z" fill="#A31118"/>
<path d="M29.3243 212.379C29.4747 212.538 29.6426 212.692 29.7784 212.862C29.8028 212.893 29.9275 213.187 29.9581 213.174C30.0626 213.13 30.0131 212.742 30.0974 212.686C30.119 212.671 30.5383 212.9 30.5898 212.916C30.8775 213.01 31.5148 213.016 31.9773 213.084C32.2949 213.132 32.5289 213.265 32.5122 213.244C32.2406 212.904 32.281 212.006 32.086 211.613C32.0163 211.472 31.7238 211.078 31.7258 211.074C31.7474 211.022 32.2065 211.113 32.2092 211.081C32.2134 211.041 32.0992 210.917 32.0769 210.876C31.8394 210.432 31.5594 210.116 31.0656 209.962C30.4958 209.785 29.1982 209.632 28.8151 210.32C28.5149 210.859 29.0074 212.044 29.3243 212.379Z" fill="#A31118"/>
<path d="M160.748 14.4227C160.404 15.9425 159.773 15.6326 158.707 16.1828C157.948 16.5743 157.903 17.0277 157.886 17.0256C157.362 16.9643 157.682 15.5901 157.473 15.7308C156.555 16.3493 156.344 15.8144 155.524 16.5575C155.307 16.7533 155.309 16.0651 155.335 15.767C155.357 15.5093 155.486 15.1785 155.637 14.8943C156.102 14.0188 157.058 13.9101 157.092 13.8133C157.121 13.7332 156.691 13.7666 156.416 13.6231C156.147 13.4824 156.032 13.1669 156.24 12.9782C156.271 12.9496 156.396 13.4748 157.385 13.1878C159.326 12.625 160.91 13.7081 160.748 14.4227Z" fill="#A31118"/>
<path d="M117.231 25.25C117.89 25.8957 118.105 25.539 118.812 25.4694C119.316 25.4206 119.484 25.6317 119.492 25.6254C119.732 25.4262 119.132 24.8453 119.281 24.8481C119.937 24.8606 119.87 24.527 120.517 24.6329C120.688 24.6607 120.466 24.3188 120.357 24.1788C120.263 24.0576 120.093 23.9343 119.926 23.8417C119.413 23.5554 118.902 23.8082 118.854 23.7713C118.814 23.7407 119.039 23.6188 119.129 23.4593C119.218 23.3033 119.175 23.1089 119.01 23.0818C118.985 23.0776 119.092 23.3792 118.507 23.554C117.361 23.8981 116.92 24.9463 117.231 25.25Z" fill="#A31118"/>
<path d="M27.7043 208.168C28.6376 207.446 28.2231 207.112 28.2601 206.204C28.2865 205.557 28.5833 205.382 28.5763 205.371C28.3673 205.031 27.5259 205.689 27.5559 205.501C27.6868 204.673 27.2529 204.699 27.5002 203.899C27.5656 203.687 27.0934 203.909 26.8977 204.021C26.7277 204.12 26.5418 204.313 26.3948 204.508C25.9428 205.107 26.1733 205.798 26.1176 205.852C26.0716 205.898 25.9574 205.592 25.7714 205.449C25.5889 205.309 25.3347 205.331 25.272 205.533C25.2623 205.565 25.6628 205.483 25.7819 206.253C26.0159 207.765 27.2655 208.507 27.7043 208.168Z" fill="#A31118"/>
<path d="M26.7103 208.638C25.8633 207.143 23.7814 208.101 23.8713 207.193C23.8985 206.918 23.2932 207.873 24.0175 208.293C24.0273 208.299 23.6665 208.237 23.4464 208.242C23.032 208.253 22.8481 208.681 22.4901 208.805C22.3668 208.848 22.1091 208.834 22.1293 208.839C22.2937 208.884 22.4706 208.969 22.6232 209.056C22.9568 209.248 23.0578 209.65 23.429 209.801C23.5384 209.845 23.9577 209.821 23.7863 209.865C22.9832 210.074 22.9185 211.253 23.0808 210.833C23.1316 210.7 23.11 210.266 24.6632 210.542C25.9371 210.768 27.3385 209.747 26.7103 208.638Z" fill="#A31118"/>
<path d="M159.821 18.1644C159.282 17.0584 160.159 16.0087 161.322 15.2621C161.552 15.1151 161.909 15.1471 162.184 15.2391C164.31 15.9495 163.534 17.6957 163.142 18.2292C160.916 21.2604 159.769 20.9268 159.743 20.8126C159.73 20.7568 160.867 20.3166 159.821 18.1644Z" fill="#A31118"/>
<path d="M118.895 26.8143C118.807 26.0906 118.033 25.8503 117.215 25.8524C117.053 25.8531 116.886 25.9841 116.779 26.1178C115.948 27.1549 116.896 27.7748 117.263 27.9141C119.345 28.7067 119.809 28.1725 119.785 28.107C119.773 28.075 119.067 28.2219 118.895 26.8143Z" fill="#A31118"/>
<path d="M29.9769 206.334C29.045 206.319 28.6048 207.257 28.4641 208.294C28.4363 208.498 28.5728 208.733 28.7239 208.892C29.8906 210.125 30.8413 209.034 31.0823 208.595C32.4516 206.098 31.8568 205.416 31.7697 205.435C31.7272 205.444 31.7886 206.365 29.9769 206.334Z" fill="#A31118"/>
<path d="M19.1497 151.15C18.4922 151.309 18.0875 150.75 17.7553 150.353C17.7365 150.332 17.726 150.304 17.7093 150.281C17.6933 150.26 17.6703 150.245 17.6571 150.222C16.5092 148.309 14.9003 146.956 16.8463 144.393C17.0859 144.077 17.788 142.702 18.2184 142.605C18.8641 142.46 18.0339 143.432 19.3433 145.227C20.6068 146.958 20.6639 147.762 20.3929 149.075C20.317 149.442 19.3768 151.095 19.1497 151.15Z" fill="url(#paint7_linear_624_694)"/>
<path d="M15.7416 154.041C13.7984 152.974 12.5934 154.837 10.8438 154.312C7.11952 153.194 6.30812 155.599 6.65637 155.411C7.78402 154.8 9.08092 156.2 10.1932 157.023C11.6956 158.135 13.3359 158.494 15.9387 156.527C16.2626 156.283 16.0704 154.222 15.7416 154.041Z" fill="url(#paint8_linear_624_694)"/>
<path d="M13.7399 159.783C12.9075 162 12.7306 166.815 13.1492 165.91C13.5915 164.954 14.2999 163.17 16.2647 162.732C17.8465 162.379 18.4142 160.761 18.3751 159.473C18.3215 157.687 17.2531 156.528 16.0885 157.167C15.6121 157.429 14.1397 158.718 13.7399 159.783Z" fill="#A31118"/>
<path d="M23.6317 153.606C24.875 151.408 27.2027 151.428 28.6152 151.449C30.5919 151.479 31.7272 150.71 31.7196 150.763C31.6722 151.07 30.8698 152.822 30.6448 153.084C29.4991 154.419 28.4634 155.272 26.5027 155.181C25.6105 155.14 24.8081 155.409 23.5906 154.94C23.1414 154.766 23.4764 153.88 23.6317 153.606Z" fill="#8C1218"/>
<path d="M27.9319 144.044C28.1722 144.145 26.6901 145.32 26.0897 147.057C25.5854 148.514 26.0924 150.443 24.955 151.719C23.8218 152.99 23.0146 152.57 21.7093 151.835C18.6537 150.112 22.3919 147.541 23.243 146.717C24.5511 145.45 26.9526 143.63 27.9319 144.044Z" fill="#A31118"/>
<path d="M32.058 158.475C31.4347 157.96 31.397 159.17 27.5635 156.314C26.1781 155.282 23.5369 155.169 23.1211 156.109C22.1634 158.27 25.0595 160.622 27.1908 160.058C29.7839 159.373 32.5323 158.867 32.058 158.475Z" fill="url(#paint9_linear_624_694)"/>
<path d="M24.5894 162.153C23.2911 161.285 24.0587 159.053 22.0625 157.496C22.0625 157.496 20.3225 157.608 19.7424 158.328C17.9913 160.502 18.9602 163.717 21.7365 163.86C23.8643 163.97 24.9404 165.656 25.0519 165.83C25.2371 166.123 26.7144 163.573 24.5894 162.153Z" fill="#A31118"/>
<path d="M14.0017 153.23C14.8612 153.428 15.9402 153.323 16.3351 153.196C17.7553 152.739 18.3487 150.318 16.0809 148.707C15.2583 148.124 14.9191 147.476 14.2511 147.162C13.6403 146.874 12.9918 146.371 12.8024 145.853C12.5649 145.208 12.4548 146.86 13.0253 147.463C13.7371 148.214 13.5671 148.63 13.5135 148.563C12.8442 147.721 11.3773 147.617 10.8153 147.762C10.405 147.868 9.76281 147.826 9.53018 147.711C8.93048 147.415 10.0073 147.918 10.2706 148.914C10.4496 149.593 10.7512 150.251 11.9143 150.836C11.9143 150.836 11.8935 151.154 11.4317 150.974C10.5478 150.63 9.95019 151.675 9.95019 151.675C10.4008 151.37 10.6195 151.262 11.495 151.937C12.0613 152.373 12.9368 152.985 14.0017 153.23Z" fill="#A31118"/>
<path d="M40.8236 125.882C41.1976 125.295 42.296 125.189 42.8233 125.377C43.7663 125.712 44.8522 126.828 44.8641 127.666C44.8954 129.918 42.1867 131.991 44.9908 135.25C45.314 135.626 47.3186 135.955 48.3668 134.921C50.4821 132.836 48.8892 131.61 49.8719 129.288C50.0621 128.838 50.8889 127.708 51.6683 127.594C51.9482 127.552 52.3947 127.678 52.6197 127.846C52.6768 127.888 52.8614 128.181 52.8307 127.946C52.7249 127.138 52.2575 126.779 51.609 126.524C49.9674 125.88 48.7192 127.187 48.2539 127.724C47.7211 128.339 48.1599 129.04 48.1049 128.803C47.8256 127.603 46.4395 125.281 45.1503 124.67C42.2779 123.307 40.8069 125.908 40.8236 125.882Z" fill="#004525"/>
<path d="M143.086 7.19166C144.768 10.4562 146.476 7.2 147.909 7.66039C148.169 7.74397 149.537 8.93082 149.383 9.72345C149.347 9.90942 150.487 7.36298 148.578 6.02707C147.529 5.29365 145.622 5.95604 145.314 6.07375C145.093 6.15873 143.121 7.05444 143.075 7.15822C143.07 7.16867 143.08 7.18121 143.086 7.19166Z" fill="#004525"/>
<path d="M84.9537 39.3299C84.7531 39.6726 85.1585 38.336 83.149 38.4683C82.5869 38.5053 81.7887 39.4239 81.4426 39.899C79.7069 42.2747 78.0778 42.0052 77.9141 39.8418C77.8368 38.8263 79.5098 37.7328 78.8564 36.9952C78.4281 36.5111 80.2321 37.2884 80.0795 38.6167C80.0238 39.098 79.8127 38.7915 80.0502 38.6104C81.0685 37.8366 82.5577 36.7131 84.1847 37.6513C84.4898 37.8268 85.2901 38.7567 84.9537 39.3299Z" fill="#004525"/>
<path d="M37.8384 87.77C38.1734 87.5568 36.8515 88.0082 36.9149 85.996C36.933 85.4325 37.8231 84.6036 38.2856 84.2407C40.6008 82.4243 40.2748 80.8056 38.1073 80.7164C37.0904 80.6739 36.0547 82.3839 35.2948 81.7563C34.7968 81.3447 35.6354 83.1208 36.9573 82.923C37.4365 82.8505 37.1231 82.6499 36.9504 82.8937C36.2121 83.9385 35.1408 85.4645 36.134 87.0588C36.32 87.3576 37.277 88.1252 37.8384 87.77Z" fill="#004525"/>
<path d="M201.637 13.4045C201.055 13.9248 202.617 11.6674 198.778 10.7076C197.704 10.4387 195.659 11.6779 194.724 12.3583C190.049 15.7608 187.163 14.2765 188.156 10.1302C188.623 8.18417 192.41 7.14289 191.632 5.36958C191.121 4.20781 194.03 6.74518 192.945 9.13908C192.552 10.0069 192.34 9.30623 192.894 9.11121C195.265 8.2747 198.726 7.06767 201.207 9.80077C201.672 10.3127 202.61 12.5345 201.637 13.4045Z" fill="#004525"/>
<path d="M31.2146 231.845C31.6708 231.444 29.7812 232.442 29.3953 229.387C29.2873 228.531 30.4338 227.067 31.046 226.408C34.1079 223.11 33.2282 220.742 29.9323 221.126C28.3854 221.307 27.2306 224.137 25.9323 223.371C25.0818 222.869 26.7736 225.351 28.7239 224.735C29.4301 224.511 28.9085 224.283 28.7065 224.693C27.8407 226.448 26.5877 229.01 28.4703 231.18C28.8228 231.586 30.4526 232.517 31.2146 231.845Z" fill="#004525"/>
<path d="M41.9694 163.698C42.8066 161.141 41.3307 165.553 39.8248 162.172C39.0385 160.407 36.6306 160.469 37.2087 163.197C37.3933 164.07 39.7092 165.97 37.4637 166.29C36.7902 166.386 40.2615 167.361 39.6967 164.811C39.3442 163.221 40.9887 166.695 41.9694 163.698Z" fill="#004525"/>
<path d="M118.669 8.32691C120.211 8.06084 118.247 7.5141 117.178 7.08923C114.571 6.05212 116.023 1.5854 116.06 2.03116C116.109 2.61136 117.82 7.39569 121.82 5.22537C127.687 2.04163 131.502 9.30969 127.774 11.5615C124.094 13.7855 120.719 11.246 121.543 11.2822C122.729 11.3344 122.491 9.43298 122.615 10.0974C122.853 11.3804 118.158 8.43138 117.854 10.6895C117.825 10.9026 117.511 8.5268 118.669 8.32691Z" fill="#004525"/>
<path d="M12.6665 177.537C13.0252 178.861 11.8641 177.502 11.1321 176.812C9.34418 175.123 6.33318 177.929 6.70093 177.794C7.18013 177.618 11.6127 177.208 11.3675 181.187C11.0081 187.024 18.192 187.367 18.6022 183.574C19.0076 179.829 15.743 178.087 16.076 178.728C16.5565 179.651 14.9581 180.165 15.5313 180.017C16.6387 179.732 12.5607 177.093 14.2414 176.017C14.4002 175.915 12.397 176.544 12.6665 177.537Z" fill="#004525"/>
<path d="M7.81192 23.4829C7.75271 17.2478 10.5506 18.3859 14.8306 18.8205C15.0117 18.8393 15.1663 18.8769 15.353 18.8922C15.5424 17.7019 15.3732 18.0362 15.5633 16.8459C16.7356 16.8006 16.8874 17.0124 17.8556 16.6244C18.0318 12.7908 18.4434 8.81308 23.124 9.6475C19.259 7.42076 16.1213 8.38542 15.0835 12.0275C13.8075 9.95605 15.5898 10.3802 12.6826 7.14702C12.5537 8.38819 12.1734 8.16184 12.0446 9.40302C11.2993 8.56442 10.6105 8.24194 9.96551 8.04692C8.94651 7.73976 7.68862 6.7751 7.79449 6.87958C7.89757 6.98196 8.45199 7.67916 8.5906 8.86323C8.6707 9.54371 8.66861 11.0168 9.7677 11.9696C9.7677 11.9696 9.29756 11.7865 8.592 11.8088C8.19081 11.8213 7.65658 11.3456 7.65658 11.3456C9.22929 14.9277 10.5199 12.733 11.9694 14.8817C8.03619 14.2981 4.69365 18.8707 7.81192 23.4829Z" fill="#004525"/>
<path d="M36.6035 257.715C32.7657 257.9 35.1241 260.939 34.0647 262.103C33.8725 262.314 32.1493 263.102 31.4619 262.611C31.3003 262.495 33.2289 264.687 35.3289 263.448C36.4823 262.768 36.6794 260.665 36.7003 260.322C36.7149 260.074 36.7184 257.809 36.6397 257.72C36.6313 257.711 36.6153 257.715 36.6035 257.715Z" fill="#004525"/>
<defs>
<linearGradient id="paint0_linear_624_694" x1="61.2136" y1="58.3634" x2="61.4677" y2="47.9093" gradientUnits="userSpaceOnUse">
<stop/>
<stop offset="0.479167" stop-color="#A31118"/>
</linearGradient>
<linearGradient id="paint1_linear_624_694" x1="53.8579" y1="72.8933" x2="56.9287" y2="62.8709" gradientUnits="userSpaceOnUse">
<stop offset="0.479167" stop-color="#A31118"/>
<stop offset="1" stop-color="#353333"/>
</linearGradient>
<linearGradient id="paint2_linear_624_694" x1="67.0838" y1="58.7714" x2="65.1939" y2="52.9523" gradientUnits="userSpaceOnUse">
<stop offset="0.00625" stop-color="#413D3D"/>
<stop offset="1" stop-color="#A31118"/>
</linearGradient>
<linearGradient id="paint3_linear_624_694" x1="58.6536" y1="76.3414" x2="62.7698" y2="64.9329" gradientUnits="userSpaceOnUse">
<stop offset="0.479167" stop-color="#A31118"/>
<stop offset="1"/>
</linearGradient>
<linearGradient id="paint4_linear_624_694" x1="69.3845" y1="65.6036" x2="69.0146" y2="58.5971" gradientUnits="userSpaceOnUse">
<stop stop-color="#A31118"/>
<stop offset="1" stop-color="#323030"/>
</linearGradient>
<linearGradient id="paint5_linear_624_694" x1="52.1805" y1="65.5163" x2="53.2346" y2="59.7176" gradientUnits="userSpaceOnUse">
<stop offset="0.289583" stop-color="#A31118"/>
<stop offset="1"/>
</linearGradient>
<radialGradient id="paint6_radial_624_694" cx="0" cy="0" r="1" gradientUnits="userSpaceOnUse" gradientTransform="translate(17.4309 127.108) rotate(-121.296) scale(2.88474 2.88474)">
<stop offset="0.170833" stop-color="#878276"/>
<stop offset="1"/>
</radialGradient>
<linearGradient id="paint7_linear_624_694" x1="18.9878" y1="146.66" x2="17.5267" y2="150.196" gradientUnits="userSpaceOnUse">
<stop offset="0.464583" stop-color="#87171C"/>
<stop offset="1" stop-color="#443D3D" stop-opacity="0.961712"/>
</linearGradient>
<linearGradient id="paint8_linear_624_694" x1="15.1429" y1="153.106" x2="8.16181" y2="157.758" gradientUnits="userSpaceOnUse">
<stop offset="0.464583" stop-color="#9D181E"/>
<stop offset="1" stop-color="#524F4F" stop-opacity="0.961712"/>
</linearGradient>
<linearGradient id="paint9_linear_624_694" x1="29.6735" y1="155.605" x2="24.5697" y2="159.853" gradientUnits="userSpaceOnUse">
<stop offset="0.464583" stop-color="#9D181E"/>
<stop offset="1" stop-color="#494646" stop-opacity="0.961712"/>
</linearGradient>
</defs>
</svg>
