<svg viewBox="0 0 542 922" fill="none" xmlns="http://www.w3.org/2000/svg">
<path d="M7.28498 23.7223C7.22512 17.4178 10.0534 18.5686 14.3811 19.008C14.5642 19.027 14.7212 19.0651 14.9099 19.0806C15.1015 17.877 14.9304 18.215 15.1219 17.0115C16.3072 16.9657 16.4614 17.1798 17.4396 16.7875C17.6185 12.9113 18.0347 8.8893 22.7673 9.733C18.8594 7.48149 15.686 8.4569 14.6367 12.1394C13.3465 10.0443 15.1494 10.4739 12.2091 7.20472C12.0796 8.45971 11.6943 8.23083 11.5647 9.48581C10.8112 8.63789 10.1147 8.31183 9.46254 8.11464C8.43151 7.80406 7.16034 6.82865 7.26738 6.93429C7.37161 7.03781 7.93149 7.74279 8.07234 8.94002C8.15333 9.62808 8.15051 11.1176 9.26253 12.081C9.26253 12.081 8.78716 11.8958 8.07375 11.9183C7.66739 11.9303 7.12723 11.45 7.12723 11.45C8.71744 15.072 10.0224 12.8528 11.4887 15.0248C7.51175 14.4353 4.13204 19.0587 7.28498 23.7223Z" fill="#004525"/>
<path d="M12.8971 179.49C13.2598 180.828 12.0865 179.455 11.3463 178.756C9.53781 177.049 6.49403 179.885 6.86587 179.749C7.3497 179.572 11.8323 179.157 11.5844 183.18C11.2203 189.083 18.484 189.429 18.8995 185.594C19.3093 181.807 16.0085 180.046 16.3451 180.694C16.8304 181.627 15.2148 182.147 15.7944 181.997C16.9142 181.708 12.7901 179.041 14.4894 177.953C14.65 177.85 12.6246 178.486 12.8971 179.49Z" fill="#004525"/>
<path d="M119.535 12.3865C121.105 12.1908 119.147 11.5449 118.089 11.0653C115.504 9.89417 117.184 5.45175 117.201 5.90388C117.223 6.49194 118.723 11.4055 122.865 9.40403C128.943 6.46729 132.45 13.9901 128.578 16.0874C124.755 18.1579 121.467 15.4324 122.297 15.5078C123.493 15.617 123.343 13.6859 123.436 14.362C123.616 15.6698 119.014 12.4682 118.599 14.7338C118.561 14.9472 118.356 12.533 119.535 12.3865Z" fill="#004525"/>
<path d="M42.5265 165.496C43.3731 162.911 41.8807 167.372 40.3581 163.954C39.563 162.169 37.1284 162.232 37.7123 164.99C37.8996 165.873 40.2405 167.794 37.9707 168.117C37.2897 168.214 40.7997 169.2 40.2286 166.623C39.8722 165.014 41.5343 168.528 42.5265 165.496Z" fill="#004525"/>
<path d="M31.6514 234.402C32.1127 233.996 30.2028 235.006 29.8126 231.916C29.7027 231.051 30.8627 229.569 31.481 228.903C34.5776 225.569 33.6874 223.176 30.3556 223.564C28.7914 223.746 27.6231 226.607 26.3111 225.833C25.4512 225.326 27.1611 227.836 29.133 227.212C29.8478 226.986 29.3203 226.755 29.1154 227.17C28.24 228.944 26.9738 231.534 28.8767 233.729C29.233 234.14 30.881 235.081 31.6514 234.402Z" fill="#004525"/>
<path d="M198.417 14.8269C197.798 15.3516 199.481 13.0486 195.519 11.9493C194.409 11.6415 192.252 12.874 191.264 13.555C186.316 16.965 183.358 15.3459 184.501 11.0662C185.037 9.05623 188.999 8.07591 188.238 6.21316C187.739 4.99269 190.692 7.70687 189.502 10.164C189.07 11.0549 188.868 10.3218 189.449 10.1337C191.935 9.32807 195.562 8.16676 198.066 11.0725C198.535 11.6162 199.451 13.9494 198.417 14.8269Z" fill="#004525"/>
<path d="M37.6446 88.7235C37.984 88.5087 36.6474 88.9651 36.7115 86.9298C36.7291 86.3607 37.6298 85.5227 38.0974 85.1557C40.4384 83.319 40.1088 81.6824 37.9171 81.5922C36.8882 81.5493 35.841 83.2782 35.0727 82.6437C34.5691 82.2275 35.417 84.0233 36.7544 83.8226C37.2389 83.75 36.922 83.5472 36.7474 83.7937C36.0002 84.8501 34.917 86.3931 35.9213 88.0051C36.1093 88.3073 37.0777 89.0834 37.6446 88.7235Z" fill="#004525"/>
<path d="M85.2846 39.7454C85.0811 40.0919 85.491 38.7397 83.4599 38.8742C82.8909 38.9115 82.0845 39.8404 81.7338 40.3207C79.9795 42.723 78.3322 42.4504 78.166 40.263C78.0885 39.2362 79.7802 38.1305 79.1196 37.384C78.6865 36.8952 80.5105 37.6805 80.3563 39.0242C80.2999 39.5108 80.0858 39.201 80.3267 39.0179C81.3563 38.2354 82.8613 37.0995 84.5071 38.0481C84.8149 38.2256 85.6241 39.1658 85.2846 39.7454Z" fill="#004525"/>
<path d="M144.25 12.402C145.793 15.7796 147.675 12.5717 149.099 13.1049C149.358 13.2013 150.683 14.4655 150.489 15.2585C150.444 15.4451 151.718 12.9274 149.853 11.4872C148.828 10.6963 146.87 11.2745 146.554 11.3794C146.327 11.4548 144.293 12.2654 144.241 12.3675C144.236 12.3781 144.245 12.3914 144.25 12.402Z" fill="#004525"/>
<path d="M41.3673 127.26C41.7462 126.667 42.8568 126.56 43.3899 126.749C44.3435 127.088 45.4414 128.217 45.4534 129.064C45.4851 131.341 42.7463 133.436 45.5816 136.733C45.9084 137.113 47.9345 137.445 48.9951 136.4C51.1332 134.292 49.5233 133.051 50.517 130.704C50.7093 130.249 51.5445 129.106 52.3332 128.991C52.6157 128.949 53.0671 129.076 53.2953 129.246C53.3523 129.289 53.5396 129.585 53.5079 129.347C53.4016 128.53 52.9284 128.167 52.2734 127.91C50.6135 127.258 49.3515 128.579 48.881 129.122C48.3416 129.745 48.7859 130.453 48.7303 130.214C48.4472 129 47.0457 126.652 45.7421 126.034C42.8385 124.657 41.3511 127.286 41.3673 127.26Z" fill="#004525"/>
<path d="M14.2472 154.912C15.1169 155.113 16.2078 155.007 16.6071 154.878C18.0431 154.416 18.6431 151.968 16.3501 150.339C15.5183 149.749 15.1754 149.094 14.5 148.777C13.8824 148.486 13.2267 147.976 13.0344 147.453C12.795 146.801 12.683 148.472 13.2598 149.081C13.9803 149.841 13.8077 150.261 13.7542 150.194C13.0767 149.342 11.5942 149.237 11.0252 149.384C10.6104 149.491 9.96107 149.449 9.72656 149.332C9.12019 149.032 10.209 149.54 10.4745 150.548C10.6562 151.235 10.9611 151.9 12.1372 152.492C12.1372 152.492 12.1154 152.813 11.6492 152.631C10.7548 152.283 10.1512 153.34 10.1512 153.34C10.6062 153.031 10.828 152.923 11.7133 153.605C12.2858 154.046 13.1711 154.664 14.2472 154.912Z" fill="#A31118"/>
<path d="M24.9532 163.934C23.6405 163.057 24.4166 160.801 22.3975 159.225C22.3975 159.225 20.6383 159.339 20.0516 160.067C18.2811 162.265 19.2615 165.516 22.0686 165.661C24.2201 165.772 25.3082 167.476 25.4202 167.653C25.6082 167.949 27.1019 165.37 24.9532 163.934Z" fill="#A31118"/>
<path d="M32.5043 160.215C31.874 159.695 31.8366 160.918 27.9604 158.031C26.559 156.987 23.8891 156.873 23.468 157.823C22.5004 160.008 25.4279 162.386 27.583 161.817C30.2049 161.124 32.9846 160.612 32.5043 160.215Z" fill="url(#paint0_linear_624_694)"/>
<path d="M28.3329 145.624C28.5759 145.726 27.0765 146.915 26.4695 148.67C25.9603 150.144 26.4723 152.094 25.3223 153.385C24.1771 154.67 23.3609 154.245 22.0411 153.501C18.9509 151.759 22.7306 149.16 23.5912 148.327C24.9145 147.046 27.3421 145.205 28.3329 145.624Z" fill="#A31118"/>
<path d="M23.9849 155.292C25.242 153.07 27.5956 153.09 29.0231 153.111C31.0218 153.142 32.1704 152.364 32.162 152.418C32.1141 152.728 31.3035 154.5 31.076 154.765C29.9175 156.114 28.8703 156.977 26.8878 156.885C25.9857 156.843 25.1744 157.116 23.9433 156.641C23.4891 156.466 23.8278 155.569 23.9849 155.292Z" fill="#8C1218"/>
<path d="M13.9824 161.539C13.1415 163.78 12.9626 168.649 13.3859 167.733C13.8331 166.767 14.5493 164.962 16.5353 164.52C18.1354 164.163 18.7094 162.527 18.6699 161.225C18.615 159.419 17.5347 158.247 16.3578 158.893C15.8761 159.158 14.3873 160.461 13.9824 161.539Z" fill="#A31118"/>
<path d="M16.0065 155.732C14.0416 154.653 12.8239 156.537 11.0549 156.006C7.2885 154.876 6.46876 157.307 6.82088 157.117C7.96107 156.5 9.27239 157.915 10.3964 158.748C11.9155 159.872 13.574 160.234 16.2058 158.246C16.5332 157.999 16.3389 155.914 16.0065 155.732Z" fill="url(#paint1_linear_624_694)"/>
<path d="M19.4531 152.809C18.7883 152.97 18.3784 152.405 18.0424 152.004C18.0241 151.982 18.0136 151.954 17.996 151.93C17.9805 151.909 17.9572 151.894 17.9432 151.871C16.7832 149.937 15.1557 148.568 17.1241 145.977C17.3664 145.658 18.0762 144.267 18.5115 144.169C19.1643 144.022 18.3241 145.005 19.6481 146.82C20.9257 148.57 20.9841 149.384 20.7095 150.711C20.6327 151.082 19.6827 152.754 19.4531 152.809Z" fill="url(#paint2_linear_624_694)"/>
<path d="M30.4 208.607C29.4584 208.591 29.0133 209.54 28.871 210.588C28.8428 210.795 28.9809 211.032 29.1337 211.193C30.3133 212.439 31.2746 211.336 31.5183 210.893C32.9029 208.367 32.3007 207.679 32.2134 207.698C32.1705 207.707 32.2324 208.638 30.4 208.607Z" fill="#A31118"/>
<path d="M118.884 31.0699C118.83 30.3347 118.059 30.0551 117.232 30.0185C117.068 30.0114 116.894 30.1354 116.779 30.2657C115.892 31.2734 116.819 31.9446 117.182 32.1031C119.248 33.0024 119.742 32.4848 119.721 32.4179C119.711 32.3848 118.99 32.4996 118.884 31.0699Z" fill="#A31118"/>
<path d="M160.63 24.2814C160.139 23.1384 161.075 22.12 162.286 21.4214C162.524 21.2834 162.883 21.3334 163.157 21.439C165.27 22.258 164.403 23.9842 163.982 24.5046C161.589 27.4597 160.446 27.0688 160.426 26.9519C160.415 26.8949 161.584 26.5047 160.63 24.2814Z" fill="#A31118"/>
<path d="M27.097 210.936C26.2413 209.425 24.1363 210.393 24.2271 209.475C24.2546 209.196 23.6419 210.163 24.3743 210.588C24.3842 210.593 24.0194 210.531 23.7975 210.536C23.3778 210.547 23.1926 210.98 22.8306 211.105C22.7059 211.148 22.4454 211.134 22.4658 211.14C22.6313 211.185 22.8109 211.271 22.9651 211.359C23.3017 211.553 23.4046 211.959 23.7799 212.112C23.8898 212.157 24.3145 212.132 24.1412 212.177C23.3285 212.388 23.263 213.581 23.4271 213.155C23.4792 213.021 23.4574 212.583 25.0279 212.861C26.3152 213.09 27.7322 212.057 27.097 210.936Z" fill="#A31118"/>
<path d="M28.1027 210.46C29.0464 209.731 28.6274 209.393 28.6647 208.475C28.6908 207.821 28.9915 207.644 28.9844 207.633C28.7725 207.289 27.9217 207.955 27.952 207.764C28.0851 206.927 27.6457 206.954 27.8964 206.144C27.9626 205.93 27.4851 206.154 27.2865 206.268C27.1154 206.367 26.9273 206.564 26.7787 206.761C26.3209 207.366 26.5541 208.065 26.4984 208.12C26.4519 208.166 26.3364 207.856 26.1477 207.711C25.9632 207.571 25.7068 207.592 25.6435 207.797C25.6336 207.828 26.0378 207.746 26.159 208.525C26.3956 210.054 27.6583 210.804 28.1027 210.46Z" fill="#A31118"/>
<path d="M117.277 29.4104C117.912 30.0943 118.146 29.7435 118.864 29.7076C119.375 29.6816 119.535 29.9034 119.543 29.8971C119.796 29.7076 119.216 29.0921 119.367 29.102C120.029 29.1464 119.977 28.8055 120.626 28.9435C120.797 28.9794 120.589 28.6238 120.485 28.4773C120.397 28.3505 120.23 28.2181 120.066 28.116C119.562 27.8026 119.034 28.0336 118.987 27.9942C118.948 27.9611 119.181 27.8491 119.28 27.6921C119.377 27.5385 119.342 27.3399 119.178 27.3054C119.152 27.2998 119.246 27.609 118.647 27.7583C117.473 28.0512 116.978 29.0886 117.277 29.4104Z" fill="#A31118"/>
<path d="M161.745 20.5461C161.326 22.0645 160.703 21.7216 159.6 22.2265C158.814 22.5857 158.748 23.0413 158.73 23.0385C158.205 22.9519 158.593 21.5793 158.375 21.7117C157.418 22.2927 157.231 21.7427 156.366 22.4533C156.139 22.6413 156.173 21.9462 156.214 21.6462C156.249 21.387 156.395 21.0589 156.561 20.7793C157.072 19.9173 158.043 19.8525 158.082 19.7567C158.114 19.6771 157.678 19.6905 157.408 19.5327C157.143 19.3778 157.041 19.0531 157.26 18.8729C157.293 18.8454 157.395 19.3813 158.407 19.1391C160.394 18.663 161.943 19.832 161.745 20.5461Z" fill="#A31118"/>
<path d="M29.7408 214.719C29.8929 214.88 30.0627 215.035 30.2 215.207C30.2246 215.239 30.3507 215.536 30.381 215.522C30.4866 215.478 30.4373 215.086 30.5218 215.029C30.5444 215.014 30.9683 215.246 31.0197 215.263C31.3113 215.357 31.9557 215.363 32.4233 215.432C32.7437 215.48 32.9811 215.615 32.9635 215.594C32.6888 215.249 32.7304 214.342 32.5332 213.944C32.462 213.802 32.167 213.403 32.1684 213.399C32.1909 213.347 32.6543 213.439 32.6578 213.406C32.6614 213.366 32.5466 213.241 32.524 213.199C32.2839 212.75 32.0008 212.431 31.5014 212.275C30.9254 212.096 29.6133 211.941 29.226 212.637C28.9225 213.182 29.4197 214.38 29.7408 214.719Z" fill="#A31118"/>
<path d="M114.075 30.9887C113.96 31.1183 113.851 31.262 113.727 31.381C113.704 31.4028 113.482 31.5218 113.494 31.5451C113.536 31.624 113.838 31.5578 113.889 31.6197C113.902 31.6359 113.751 31.9824 113.742 32.024C113.689 32.2578 113.729 32.7606 113.709 33.1297C113.694 33.3832 113.605 33.5768 113.622 33.5621C113.87 33.324 114.58 33.2916 114.876 33.1099C114.982 33.0444 115.272 32.786 115.275 32.7867C115.318 32.8008 115.279 33.1684 115.304 33.1684C115.336 33.1691 115.425 33.0705 115.456 33.0494C115.789 32.831 116.018 32.5874 116.103 32.1874C116.203 31.7261 116.23 30.6922 115.66 30.4401C115.215 30.2422 114.316 30.7148 114.075 30.9887Z" fill="#A31118"/>
<path d="M167.77 20.4173C168.042 20.523 168.316 20.6525 168.596 20.7342C168.646 20.749 169.072 20.754 169.072 20.7983C169.07 20.9497 168.567 21.085 168.539 21.2174C168.532 21.2519 169.027 21.654 169.073 21.7089C169.334 22.0181 169.665 22.8026 169.983 23.3386C170.201 23.7076 170.486 23.9294 170.451 23.9189C169.892 23.7555 168.804 24.2597 168.219 24.2175C168.01 24.2027 167.375 24.0414 167.371 24.0449C167.318 24.0985 167.662 24.6196 167.625 24.6393C167.577 24.664 167.366 24.5865 167.303 24.5795C166.636 24.5105 166.103 24.3245 165.663 23.7921C165.156 23.178 164.311 21.6512 164.967 20.83C165.481 20.1863 167.195 20.1955 167.77 20.4173Z" fill="#A31118"/>
<path d="M28.5316 214.84C29.0027 214.397 28.6717 213.591 28.514 213.439C28.0267 212.972 26.759 213.002 26.5111 213.265C25.6294 214.202 25.8843 214.506 25.9752 215.411C26.1005 216.67 25.385 217.012 25.5378 216.983C25.7618 216.942 26.3681 217.178 27.2682 216.111C27.7795 215.505 27.7935 215.533 28.5316 214.84Z" fill="#A31118"/>
<path d="M167.312 18.8792C167.006 19.6771 165.856 19.6757 165.591 19.5588C164.777 19.1968 164.178 17.6327 164.377 17.1974C165.08 15.6516 165.579 15.8115 166.73 15.4692C168.332 14.9931 168.392 13.9473 168.434 14.1487C168.494 14.4431 169.087 15.0657 168.233 16.6988C167.749 17.6271 167.789 17.6306 167.312 18.8792Z" fill="#A31118"/>
<path d="M30.4168 28.8506C30.1175 28.1971 29.9239 27.4942 29.2576 27.4027C28.1104 27.2442 28.5351 29.5253 28.5259 29.5295C28.4604 29.5591 25.8899 29.407 26.1343 30.0204C26.8618 31.8437 29.4654 32.6191 30.4739 31.3986C30.6098 31.2345 30.5337 29.1063 30.4168 28.8506Z" fill="#004525"/>
<path d="M34.9107 34.5685C35.6685 35.3403 33.9677 36.8981 33.3071 36.3981C32.3035 35.6382 31.5831 34.7593 32.1106 34.303C32.2887 34.1494 32.2775 34.2607 32.8691 33.6663C33.4606 33.0712 34.1529 33.7973 34.9107 34.5685Z" fill="#004525"/>
<path d="M31.1563 34.9721C29.7556 35.3172 29.3182 35.2834 27.816 34.4771C27.6512 34.3883 26.5843 33.9601 26.8125 33.9855C27.04 34.0108 27.128 33.6263 27.3991 33.4869C27.6372 33.365 27.9661 33.3087 27.8379 33.2404C26.928 32.7509 26.3125 31.9734 25.4969 31.3389C25.3223 31.2037 24.5948 31.272 24.4652 31.1664C24.3715 31.0903 25.2497 30.3269 27.1076 30.8621C27.4527 30.9614 28.7231 30.9748 28.971 31.0311C29.1872 31.0804 30.0506 31.5283 30.1661 31.4988C30.314 31.4607 29.7577 30.6192 29.933 29.5156C30.0704 28.6571 31.1697 27.4824 30.2831 26.5408C29.938 26.1746 30.9274 26.8972 31.1239 27.138C31.6549 27.7881 31.681 28.1627 31.9683 28.8402C32.0859 29.117 32.131 29.3635 32.3507 29.5966C32.4 29.6501 32.1296 29.2691 32.174 29.0374C32.2014 28.8909 32.4543 28.2423 32.3923 28.0965C32.3317 27.9536 32.6219 28.7719 33.0874 29.1867C33.4937 29.5487 33.929 30.4882 33.9677 31.1628C34.1487 34.3193 31.8472 34.8024 31.1563 34.9721Z" fill="#CEA54A"/>
<path d="M33.2712 189.635C32.9149 189.714 32.0219 189.638 31.6747 189.164C31.0043 188.249 31.7796 187.646 31.4585 186.921C31.4479 186.897 30.8944 187.578 29.3211 186.488C28.5922 185.983 28.5133 184.816 29.0499 184.421C29.0767 184.401 29.6169 185.43 30.3655 185.152C32.3297 184.425 34.2685 184.423 34.8023 185.32C35.5094 186.51 34.0079 187.247 33.2008 188.007C32.8621 188.327 32.7945 188.659 32.9797 189.091C33.0473 189.249 33.61 189.559 33.2712 189.635Z" fill="#CEA54A"/>
<path d="M136.765 38.6187C136.895 38.113 136.829 36.8341 136.167 36.315C134.89 35.3143 133.993 36.3939 132.973 35.9016C132.939 35.8847 133.937 35.1263 132.453 32.8269C131.765 31.7613 130.101 31.5937 129.511 32.3423C129.481 32.3804 130.925 33.1994 130.494 34.2572C129.362 37.0306 129.27 39.8018 130.528 40.6061C132.195 41.6723 133.319 39.5609 134.443 38.4433C134.916 37.9728 135.393 37.8919 136.002 38.1771C136.224 38.2813 136.641 39.0997 136.765 38.6187Z" fill="#CEA54A"/>
<path d="M33.8099 184.178C34.5191 184 34.9628 183.237 35.7206 183.83C36.0508 184.088 36.3114 184.528 36.067 185.061C35.7994 185.643 35.51 185.631 35.4205 185.817C35.1417 186.396 35.2346 186.659 35.6417 186.728C35.8494 186.763 34.9938 186.782 34.7459 186.449C34.5775 186.224 34.767 185.973 34.7438 185.826C34.7149 185.638 34.7966 186.043 34.1092 186.064C33.8585 186.072 33.5014 186.165 33.4937 186.115C33.4578 185.895 33.4775 185.733 33.5 185.605C33.6324 184.848 34.1684 185.062 33.8909 185.003C33.4965 184.92 33.3472 184.633 33.1986 184.321C33.1458 184.209 33.1599 183.641 33.2599 183.776C33.4521 184.033 33.6529 184.217 33.8099 184.178Z" fill="#004525"/>
<path d="M129.593 38.6434C129.425 39.6752 128.391 40.3991 129.327 41.4083C129.736 41.8478 130.393 42.1661 131.123 41.7534C131.921 41.302 131.869 40.8914 132.123 40.7407C132.914 40.2731 133.3 40.3745 133.448 40.9463C133.523 41.2379 133.446 40.0167 132.942 39.7033C132.601 39.4906 132.268 39.7907 132.054 39.7759C131.783 39.7562 132.369 39.8252 132.317 38.842C132.298 38.4843 132.388 37.9645 132.316 37.9589C131.999 37.9342 131.77 37.9821 131.589 38.0293C130.527 38.3089 130.896 39.0484 130.779 38.6589C130.613 38.1075 130.187 37.9293 129.724 37.7554C129.558 37.6934 128.75 37.7814 128.954 37.9082C129.344 38.1512 129.631 38.4146 129.593 38.6434Z" fill="#004525"/>
<path d="M20.6869 130.22C20.1531 130.85 17.9086 131.048 17.2149 130.675C16.1248 130.088 13.6169 127.109 14.4768 126.913C14.9719 126.799 17.4452 125.875 18.5798 126.637C19.8573 127.494 21.0707 129.346 20.989 129.894" fill="url(#paint3_radial_624_694)"/>
<path d="M15.2543 124.662C14.4916 124.534 14.0338 124.649 13.3268 125.015C11.6408 125.885 12.4239 127.741 13.0704 128.857C14.5585 131.425 13.0246 131.177 13.0598 131.18C13.8902 131.253 15.6825 129.001 14.8578 127.16C14.7141 126.841 15.7233 126.773 15.7409 126.772C18.934 126.553 18.0213 123.211 17.7861 123.356C17.765 123.369 18.2755 125.172 15.2543 124.662Z" fill="#CEA54A"/>
<path d="M21.2764 127.506C21.27 127.52 20.7482 127.768 20.6151 128.668C20.5524 129.087 20.8334 129.76 20.8031 129.812C20.7848 129.843 20.3946 130.125 20.3425 130.182C20.0545 130.496 19.8517 130.932 19.7122 131.339C19.6622 131.488 19.5805 132.106 19.8066 132.193C19.9629 132.252 19.9369 131.865 20.0756 131.779C20.4355 131.559 20.658 131.516 21.0665 131.387C21.5651 131.229 21.9933 130.78 22.5377 131.083C22.594 131.115 23.3377 131.563 23.3581 131.503C23.3891 131.411 23.2652 130.602 22.6792 130.044C22.3553 129.737 22.0236 129.464 21.7898 129.145C21.67 128.982 21.5869 128.439 21.6229 128.248C21.6919 127.884 21.8433 127.408 22.0018 127.137C22.0398 127.071 21.3729 127.31 21.2764 127.506Z" fill="#004525"/>
<path d="M66.3599 65.3769C65.4536 64.9093 63.8408 63.8008 63.188 64.1219C62.0576 64.6783 62.957 66.4762 63.0605 67.0551C63.207 67.8763 64.4211 69.9384 65.6197 70.7595C66.1958 71.1546 68.141 70.994 68.3896 70.7468C68.691 70.4468 69.2692 68.5334 68.8305 67.7939C68.3811 67.0354 67.1931 65.8072 66.3599 65.3769Z" fill="#CEA54A"/>
<path d="M56.937 63.3718C55.2757 63.1344 54.1749 65.1479 52.815 65.6324C51.5481 66.0839 50.2684 65.8437 49.1458 65.274C48.5395 64.9662 47.7655 64.319 47.2859 64.6542C47.0239 64.838 46.0288 65.3465 46.1359 65.0423C46.283 64.6225 46.7619 63.1851 48.7141 63.0865C50.8107 62.9802 51.5016 60.1512 54.2158 60.54C55.339 60.7005 56.4644 61.4442 57.287 62.1781C57.5391 62.4034 57.4863 63.4506 56.937 63.3718Z" fill="url(#paint4_linear_624_694)"/>
<path d="M63.8294 62.9344C64.564 63.1534 65.4063 62.5907 66.2345 62.9315C67.805 63.5766 68.5057 65.2802 69.9811 65.9281C70.6157 66.207 71.4262 66.2394 72.0946 66.1739C73.8425 66.0021 75.5602 64.7513 75.337 63.8358C75.3313 63.814 74.1869 64.6147 72.5587 63.6562C70.9727 62.7224 70.6403 60.43 69.4424 59.8518C68.6768 59.4814 67.7895 59.3469 66.962 59.3504C66.0274 59.3546 64.7351 59.9103 64.114 60.6843C63.309 61.6885 63.159 62.7336 63.8294 62.9344Z" fill="url(#paint5_linear_624_694)"/>
<path d="M59.8117 65.4226C58.6187 67.2205 58.1433 67.7346 58.2969 70.0411C58.4152 71.8179 58.9251 73.0053 59.9688 74.4011C61.4118 76.3308 60.5469 77.8365 60.7991 77.9301C61.3406 78.1308 62.3245 76.1019 62.502 75.8667C63.5006 74.542 63.7788 72.9292 63.1379 71.3341C62.5597 69.8939 61.2702 69.1171 61.1787 67.4332C61.147 66.8487 61.4829 66.2184 61.6984 65.6437C62.0456 64.7155 59.9836 65.1627 59.8117 65.4226Z" fill="url(#paint6_linear_624_694)"/>
<path d="M63.9063 60.3252C66.0078 58.2399 66.9099 58.3991 67.5254 57.9427C68.7072 57.0659 68.7213 55.9243 68.9565 54.5581C69.0438 54.0475 69.7488 52.584 70.1115 52.2052C70.6988 51.5917 68.6072 52.4552 67.8311 53.0003C66.7451 53.7623 63.6351 54.3813 63.0816 56.8525C62.6802 58.6442 61.6294 58.9012 61.8562 59.3709C62.0456 59.7632 62.8753 61.3478 63.9063 60.3252Z" fill="url(#paint7_linear_624_694)"/>
<path d="M57.6856 63.7747C57.58 63.7289 56.8215 64.1839 56.587 64.2994C55.8454 64.6635 55.27 65.198 54.6855 65.7832C52.9573 67.5115 52.2854 69.4975 53.0671 71.7405C53.1671 72.0265 53.4742 73.48 53.708 73.6364C53.9531 73.8005 54.1334 72.4659 54.6327 71.9483C55.0743 71.4891 55.5348 70.9482 56.0454 70.5398C57.5046 69.3707 56.7166 67.7819 57.7237 66.2325C57.9695 65.8551 59.1061 65.1036 59.0723 64.6388C59.0357 64.1353 57.9561 63.893 57.6856 63.7747Z" fill="url(#paint8_linear_624_694)"/>
<path d="M61.3055 58.5943C61.852 58.0528 61.9717 56.5464 61.9816 55.8428C62.0077 53.9336 64.0761 53.4448 64.4014 51.6095C64.5359 50.8518 64.4965 49.9912 64.2268 49.2524C64.2232 49.2418 63.8824 48.4777 63.8761 48.4777C63.8444 48.477 63.657 49.2299 63.2458 49.8313C63.0155 50.1693 62.5964 50.4369 62.3816 50.5524C60.3562 51.6412 57.8511 53.0434 58.5047 55.4583C58.5998 55.8104 58.3723 56.2858 59.7132 57.8309C59.9139 58.0626 60.0026 58.5619 60.0956 58.8176C60.2336 59.1958 61.1365 58.7619 61.3055 58.5943Z" fill="url(#paint9_linear_624_694)"/>
<path d="M59.2949 60.4576C59.1505 59.578 59.242 57.8645 58.4209 57.299C58.1026 57.08 54.6869 56.6243 54.5975 56.8194C54.3045 57.4561 54.7144 59.2935 54.9778 59.9315C55.487 61.1661 59.4822 61.5907 59.2949 60.4576Z" fill="#CEA54A"/>
<path d="M23.3771 68.9405C23.2645 68.4672 23.2602 70.1785 20.9545 69.3025C20.3094 69.0567 19.7044 67.6953 19.4685 67.0143C18.2889 63.6092 16.2839 63.3409 15.3155 65.815C14.8613 66.977 16.4283 68.8588 15.3979 69.4884C14.7233 69.9011 17.1149 69.6384 17.4121 68.0278C17.5206 67.4439 17.1628 67.7263 17.3762 68.0242C18.291 69.2961 19.6319 71.1455 21.8743 70.6307C22.2947 70.5349 23.5652 69.732 23.3771 68.9405Z" fill="#004525"/>
<path d="M65.6972 28.3013C65.2275 28.1753 66.9381 28.2203 66.1289 25.8899C65.9021 25.2378 64.5584 24.5941 63.8851 24.3392C60.5146 23.061 60.3047 21.0489 62.8062 20.1531C63.9802 19.7319 65.8162 21.3524 66.4747 20.3418C66.9071 19.6791 66.5754 22.0616 64.957 22.313C64.3704 22.4039 64.6634 22.0539 64.9542 22.2764C66.1993 23.2279 68.0093 24.6216 67.4304 26.8477C67.3219 27.2653 66.4831 28.5126 65.6972 28.3013Z" fill="#004525"/>
<path d="M47.5909 228.824C47.388 228.696 49.9402 229.486 49.6078 230.751C49.1649 232.437 50.629 230.692 51.553 229.805C53.8094 227.64 57.661 231.169 57.192 231.001C56.5814 230.783 50.9509 230.316 51.303 235.373C51.8199 242.792 42.6907 243.297 42.1301 238.478C41.5765 233.72 45.7063 231.467 45.2887 232.286C44.9689 232.913 45.3929 233.381 45.7528 233.66C45.7654 232.756 49.4705 230.006 47.5909 228.824Z" fill="#004525"/>
<path d="M7.99758 201.408C6.79119 197.82 8.91734 204.01 10.9977 199.238C12.0844 196.745 15.4718 196.806 14.6901 200.65C14.4394 201.88 11.2041 204.578 14.3655 205.004C15.3141 205.131 10.442 206.541 11.2076 202.949C11.6858 200.707 9.41172 205.613 7.99758 201.408Z" fill="#004525"/>
<path d="M10.2393 318.62C9.43786 317.954 12.7232 319.574 13.2373 314.319C13.381 312.849 11.3457 310.394 10.2654 309.295C4.85951 303.792 6.25253 299.693 11.9175 300.191C14.5775 300.425 16.6938 305.22 18.8805 303.844C20.3137 302.943 17.5347 307.278 14.1641 306.316C12.9422 305.968 13.8247 305.551 14.1916 306.244C15.76 309.208 18.0298 313.538 14.9092 317.348C14.3254 318.061 11.5774 319.734 10.2393 318.62Z" fill="#004525"/>
<path d="M37.1002 260.56C33.2205 260.746 35.6051 263.82 34.5332 264.996C34.3395 265.209 32.5965 266.006 31.9014 265.51C31.738 265.393 33.6888 267.608 35.8114 266.356C36.9777 265.668 37.177 263.542 37.1981 263.195C37.2136 262.944 37.2164 260.655 37.1368 260.565C37.1291 260.555 37.1129 260.559 37.1002 260.56Z" fill="#004525"/>
<path d="M15.4662 272.181C17.0635 272.141 17.8304 273.742 18.0861 275.518C18.1361 275.869 17.9058 276.273 17.6494 276.548C15.6655 278.676 14.0211 276.82 13.6021 276.07C11.2203 271.808 12.2316 270.633 12.3809 270.664C12.4534 270.679 12.3612 272.258 15.4662 272.181Z" fill="#A31118"/>
<path d="M18.8051 278.249C20.2354 275.676 23.818 277.288 23.6511 275.733C23.6004 275.262 24.6518 276.892 23.4166 277.622C23.3997 277.631 24.0173 277.519 24.3941 277.527C25.1047 277.54 25.4251 278.271 26.0406 278.477C26.2526 278.548 26.6942 278.522 26.6597 278.531C26.3794 278.61 26.0765 278.758 25.816 278.91C25.2476 279.243 25.0793 279.934 24.4455 280.198C24.2589 280.275 23.5391 280.239 23.8335 280.313C25.2131 280.66 25.3413 282.681 25.0568 281.962C24.9673 281.734 24.9983 280.991 22.3398 281.485C20.1594 281.889 17.7438 280.158 18.8051 278.249Z" fill="#A31118"/>
<path d="M19.3869 275.292C17.7769 274.068 18.4826 273.489 18.4072 271.933C18.353 270.825 17.8417 270.53 17.8537 270.509C18.2079 269.925 19.6587 271.042 19.6052 270.719C19.3685 269.301 20.1136 269.341 19.6777 267.972C19.5629 267.61 20.3749 267.982 20.713 268.174C21.0052 268.339 21.3271 268.67 21.5813 269.001C22.3651 270.022 21.9792 271.209 22.075 271.302C22.1539 271.379 22.3461 270.853 22.663 270.606C22.9736 270.363 23.4095 270.397 23.5201 270.744C23.5363 270.796 22.8497 270.661 22.656 271.985C22.2757 274.58 20.1439 275.868 19.3869 275.292Z" fill="#A31118"/>
<path d="M16.6677 282.533C16.4121 282.808 16.1262 283.074 15.8959 283.367C15.8543 283.42 15.6452 283.926 15.593 283.904C15.4135 283.83 15.4916 283.166 15.3473 283.069C15.3099 283.044 14.5944 283.443 14.5064 283.472C14.0141 283.636 12.9211 283.656 12.1302 283.779C11.5865 283.864 11.1865 284.097 11.2161 284.06C11.6767 283.472 11.5943 281.935 11.9232 281.258C12.0415 281.015 12.5366 280.336 12.5338 280.329C12.495 280.24 11.7105 280.402 11.7049 280.347C11.6978 280.28 11.8915 280.065 11.9288 279.994C12.3295 279.231 12.8056 278.685 13.6493 278.414C14.6233 278.103 16.8459 277.823 17.5121 278.997C18.034 279.916 17.2065 281.955 16.6677 282.533Z" fill="#A31118"/>
<path d="M16.4275 284.887C15.6219 284.143 16.1719 282.771 16.4374 282.513C17.2571 281.713 19.4072 281.746 19.8312 282.19C21.3383 283.766 20.9094 284.284 20.7685 285.82C20.5728 287.955 21.7904 288.526 21.5306 288.48C21.1503 288.411 20.1256 288.821 18.5861 287.025C17.7114 286.004 17.6874 286.051 16.4275 284.887Z" fill="#A31118"/>
<path d="M18.1509 244.543C18.8446 244.693 20.5777 244.532 21.2461 243.604C22.5342 241.815 21.0186 240.656 21.6313 239.244C21.6517 239.197 22.737 240.512 25.7772 238.369C27.1851 237.376 27.321 235.108 26.2723 234.348C26.2188 234.31 25.1864 236.316 23.7272 235.789C19.8988 234.405 16.1311 234.433 15.1085 236.185C13.7535 238.507 16.6825 239.917 18.2614 241.381C18.9256 241.997 19.0629 242.641 18.7086 243.483C18.5791 243.79 17.4917 244.402 18.1509 244.543Z" fill="#CEA54A"/>
<path d="M17.0184 233.949C15.6388 233.615 14.7648 232.138 13.3006 233.303C12.6626 233.81 12.1633 234.668 12.6471 235.699C13.1753 236.827 13.738 236.799 13.9147 237.159C14.4662 238.28 14.2894 238.792 13.4992 238.932C13.0971 239.004 14.7584 239.027 15.2359 238.376C15.5585 237.937 15.1866 237.453 15.2296 237.165C15.2838 236.8 15.1303 237.587 16.467 237.618C16.9543 237.63 17.6487 237.806 17.6635 237.708C17.7297 237.28 17.6888 236.966 17.6438 236.718C17.3747 235.249 16.3353 235.672 16.8747 235.553C17.6395 235.386 17.9248 234.827 18.2086 234.218C18.31 233.999 18.2741 232.896 18.0811 233.159C17.7114 233.663 17.3247 234.024 17.0184 233.949Z" fill="#004525"/>
<path d="M10.1548 355.103C15.0008 353.88 13.2162 358.556 14.9754 359.603C15.2944 359.793 17.7382 360.121 18.4079 359.25C18.5657 359.045 16.9938 362.502 13.912 361.756C12.219 361.346 11.1774 358.804 11.021 358.383C10.9083 358.081 10.047 355.264 10.1111 355.123C10.1182 355.109 10.1393 355.107 10.1548 355.103Z" fill="#004525"/>
<path d="M12.209 391.213C7.34758 390.054 9.19343 394.706 7.44759 395.776C7.13067 395.97 4.69184 396.33 4.01082 395.468C3.85096 395.265 5.46722 398.702 8.53918 397.915C10.2273 397.483 11.2351 394.927 11.3858 394.505C11.4942 394.202 12.3189 391.373 12.2527 391.232C12.2457 391.218 12.2245 391.217 12.209 391.213Z" fill="#004525"/>
<path d="M116.835 28.6604C117.951 27.8865 117.048 26.3146 117.77 26.3202C117.989 26.3223 117.192 25.9131 116.913 26.5146C116.91 26.5223 116.933 26.2336 116.913 26.061C116.874 25.735 116.524 25.6209 116.401 25.3476C116.358 25.254 116.351 25.0497 116.348 25.0659C116.325 25.1983 116.27 25.3441 116.212 25.4709C116.085 25.7469 115.776 25.8554 115.684 26.1589C115.656 26.2477 115.706 26.5772 115.658 26.4448C115.437 25.8272 114.502 25.8603 114.845 25.9582C114.953 25.9892 115.294 25.9406 115.188 27.1843C115.101 28.2041 116.006 29.2351 116.835 28.6604Z" fill="#A31118"/>
<path d="M161.824 19.0799C159.548 18.7898 159.679 15.7326 158.602 16.3031C158.275 16.4763 159.15 15.2439 160.036 15.9263C160.048 15.9354 159.788 15.5213 159.683 15.2467C159.488 14.7291 159.924 14.2854 159.895 13.7804C159.885 13.6065 159.738 13.2952 159.755 13.3177C159.893 13.4973 160.088 13.6734 160.274 13.8178C160.679 14.1326 161.226 14.0551 161.6 14.4368C161.711 14.5495 161.893 15.0805 161.861 14.846C161.712 13.7473 163.137 13.0706 162.7 13.4839C162.561 13.6149 162.015 13.8072 163.141 15.5876C164.064 17.0468 163.511 19.2954 161.824 19.0799Z" fill="#A31118"/>
<path d="M113.894 30.0549C114.273 30.3909 114.878 30.076 114.984 29.9422C115.315 29.5295 115.201 28.5436 114.979 28.3689C114.186 27.7485 113.967 27.9689 113.269 28.1034C112.297 28.2908 111.979 27.7576 112.012 27.8745C112.061 28.0457 111.919 28.5351 112.815 29.1605C113.323 29.5162 113.302 29.5288 113.894 30.0549Z" fill="#A31118"/>
<path d="M10.6928 346.882C10.4527 346.754 10.1611 346.84 10.0329 347.081C7.17647 352.426 5.43203 362.274 6.42362 368.362C6.87927 371.16 7.60325 373.481 8.95472 376.902C9.06458 377.181 9.60333 378.497 9.7463 378.86C10.04 379.604 10.2463 380.2 10.4505 380.775C12.2394 385.792 12.3682 389.613 10.2745 394.794C10.1731 395.046 10.2865 395.352 10.5393 395.454C10.7914 395.556 11.0752 395.42 11.1773 395.168C13.3683 389.745 13.2619 385.675 11.3971 380.445C11.1886 379.859 10.9456 379.261 10.6491 378.508C10.5048 378.142 9.98856 376.804 9.8787 376.527C8.55118 373.167 7.83354 370.922 7.39197 368.208C6.43559 362.338 8.15679 352.701 10.9132 347.543C11.0414 347.302 10.933 347.011 10.6928 346.882Z" fill="#004525"/>
<path d="M53.4326 14.0121C50.6705 13.8043 47.9007 15.0522 45.2457 17.3798C44.4287 18.0953 43.6885 18.858 43.0449 19.6243C42.8941 19.8031 42.7744 19.9475 42.6484 20.1081C41.423 18.358 40.5764 17.439 39.2377 16.8291C37.1608 15.884 35.4685 16.1586 29.7521 17.8418C27.3034 18.5622 25.8308 18.9221 24.2723 19.1404C21.1454 19.5771 18.6079 19.1806 16.3931 17.6657C15.9261 17.346 15.381 17.927 15.7325 18.37L16.217 18.9862C17.3121 20.8518 17.6649 22.9631 17.3614 25.39C17.1192 27.3253 16.5564 29.1282 15.4029 32.1691C13.2035 37.9659 12.8021 39.5786 13.6197 41.7421C14.1451 43.1316 15.0198 44.0217 16.7015 45.3739C16.5114 45.5056 16.3212 45.6303 16.1071 45.7915C15.2691 46.4233 14.4247 47.1543 13.6422 47.9705C11.4295 50.2776 10.066 52.8277 10.0111 55.5631C9.93999 59.066 12.0394 62.5443 16.6572 65.8846L17.2515 65.0705C12.8753 61.9049 10.9379 58.7308 11.0013 55.5856C11.0506 53.1383 12.3112 50.7981 14.3683 48.6529C15.112 47.8775 15.9036 47.1853 16.7015 46.5838C16.9797 46.374 17.2403 46.1887 17.4713 46.0338C17.6086 45.9415 17.7093 45.8873 17.7579 45.8577C18.0523 45.6781 18.0741 45.2549 17.8016 45.0436C15.8064 43.4957 15.0451 42.7146 14.5444 41.3899C13.8549 39.5659 14.2416 38.018 16.3269 32.5213C17.5072 29.4106 18.0748 27.5358 18.3298 25.5006C18.6157 23.2145 18.2537 21.1877 17.3614 19.294C19.4305 20.2475 21.7475 20.5046 24.4258 20.1306C26.0463 19.9038 27.5231 19.5214 30.0162 18.7883C35.4382 17.1918 37.0657 16.9115 38.8193 17.7094C40.1011 18.2932 40.8391 19.1102 42.2526 21.2088C42.4462 21.4969 42.8695 21.4948 43.0667 21.2088C43.097 21.1645 43.1484 21.0701 43.2428 20.9447C43.4019 20.7335 43.6005 20.518 43.8153 20.2623C44.428 19.532 45.1288 18.7862 45.9055 18.1059C50.829 13.7902 55.9186 13.5261 60.8048 19.932C61.2597 20.5285 61.7041 21.1821 62.1478 21.8913L62.9837 21.3631C62.5245 20.6285 62.071 19.9588 61.5977 19.3383C58.9568 15.8762 56.1947 14.2198 53.4326 14.0121Z" fill="#004525"/>
<path d="M37.939 58.0723C32.5874 58.3885 27.5055 60.3336 23.2159 63.75C14.8493 70.4136 11.3083 81.2936 14.7204 91.8321C16.3459 96.8513 22.4525 101.642 29.2675 103.276C37.0305 105.138 44.0878 102.697 48.1507 95.6618C50.155 92.1906 49.469 87.6545 46.852 84.5255C44.1428 81.2866 40.2968 80.6528 37.2347 83.5796C37.0375 83.7677 37.0242 84.0867 37.2122 84.2839C37.4009 84.4804 37.6981 84.4938 37.8946 84.3057C40.5074 81.8084 43.7336 82.3303 46.1041 85.1642C48.469 87.9918 49.0761 92.0885 47.2922 95.1773C43.4639 101.806 36.8735 104.073 29.5098 102.308C23.0039 100.749 17.1536 96.183 15.6451 91.5243C12.3619 81.3852 15.7803 70.9334 23.8314 64.5204C32.0965 57.9378 43.3949 57.0243 53.7847 63.0239C54.0206 63.1598 54.3305 63.0837 54.4664 62.8478C54.6031 62.6119 54.5263 62.302 54.2904 62.1654C48.919 59.0639 43.2899 57.7561 37.939 58.0723Z" fill="#004525"/>
<path d="M82.219 15.0909C75.2081 14.5212 67.5726 17.6629 61.9717 23.5856C53.9474 32.0712 52.0952 43.9182 58.4504 55.2334C58.7906 55.8398 59.0758 56.375 59.3962 57.0159C59.4448 57.1117 60.1519 58.5476 60.1667 58.5786C60.2871 58.8223 60.5829 58.9181 60.8273 58.7984C61.0716 58.6779 61.1674 58.3822 61.047 58.1378C61.0329 58.1096 60.3258 56.6729 60.2765 56.5757C59.9491 55.9215 59.6575 55.3701 59.3089 54.7489C53.1713 43.8224 54.9404 32.4487 62.6759 24.2681C69.8657 16.6649 80.521 13.836 88.4911 17.8192C92.9934 20.07 97.3245 26.1463 98.7471 32.455C100.39 39.7448 98.0732 46.064 91.3961 49.7529C88.2861 51.4713 84.2226 50.7466 81.4704 48.3007C78.7104 45.8478 78.2864 42.6167 80.8323 40.0476C81.0239 39.8539 81.0034 39.5349 80.8105 39.3433C80.6168 39.1518 80.3196 39.1497 80.1281 39.3433C77.1484 42.3505 77.6575 46.2471 80.8105 49.0487C83.8578 51.7572 88.3798 52.5453 91.8806 50.6114C98.9683 46.695 101.428 39.9279 99.6929 32.2346C98.2091 25.6519 93.7145 19.308 88.9312 16.9171C86.8333 15.8684 84.5557 15.2804 82.219 15.0909Z" fill="#004525"/>
<path d="M31.2704 46.6718C29.9344 46.7148 28.9478 47.1923 27.7491 48.1022C26.7068 48.8937 26.2927 50.2121 26.6484 51.2713C27.0477 52.4601 28.2287 52.8481 29.5097 52.0418C29.74 51.8967 29.8091 51.5903 29.664 51.36C29.5189 51.129 29.2118 51.0607 28.9816 51.2058C28.2266 51.6805 27.7632 51.5291 27.573 50.9635C27.3526 50.3079 27.6357 49.41 28.3435 48.8726C30.4365 47.2838 31.676 47.2444 36.5741 48.7409C42.5462 50.5649 49.9838 54.8947 53.6086 58.5124C53.8009 58.7047 54.1206 58.7047 54.3129 58.5124C54.5051 58.3195 54.5051 58.0004 54.3129 57.8082C50.5705 54.0735 42.9821 49.686 36.86 47.8162C34.2747 47.0268 32.6064 46.6296 31.2704 46.6718Z" fill="#004525"/>
<path d="M28.7393 30.5402C28.547 30.7332 28.547 31.0522 28.7393 31.2445C29.0386 31.5431 36.2431 38.7258 36.3318 38.8152C40.1665 42.6604 42.742 45.2866 43.573 46.2542C46.9823 50.2227 50.6064 54.032 53.1903 56.1575C53.4009 56.3307 53.6995 56.3018 53.8727 56.0913C54.0452 55.8814 54.0171 55.5603 53.8065 55.387C51.2775 53.3066 47.6957 49.5445 44.3209 45.6155C43.4667 44.6211 40.8961 42.0034 37.0361 38.1328C36.9474 38.0433 29.7421 30.8381 29.4435 30.5402C29.2513 30.348 28.9316 30.3472 28.7393 30.5402Z" fill="#004525"/>
<path d="M46.9182 26.997C43.366 27.0231 41.9462 34.2009 44.1674 40.1138C46.3309 45.8725 52.5748 53.9644 55.0834 55.3433C55.3214 55.4743 55.6123 55.3834 55.7433 55.1447C55.8742 54.9067 55.8059 54.6158 55.5672 54.4848C53.2847 53.2298 47.1556 45.3147 45.0696 39.7617C43.0512 34.3889 44.3491 28.0062 46.9401 27.9872C48.2739 27.9774 48.8331 28.4281 48.8549 29.1098C48.8732 29.6831 48.4718 30.2732 48.1507 30.2979C47.8788 30.319 47.6894 30.5549 47.7105 30.8261C47.7316 31.0979 47.9669 31.3092 48.2387 31.2888C49.1486 31.2176 49.8782 30.1408 49.8451 29.0873C49.805 27.8231 48.7493 26.9837 46.9182 26.997Z" fill="#004525"/>
<path d="M25.3723 101.758C18.0523 101.333 12.1006 104.551 9.10826 110.011C5.88066 115.901 7.13001 122.717 12.5415 126.164L13.0697 125.328C8.12441 122.178 6.9962 115.933 9.98858 110.473C13.2 104.614 20.0242 101.497 28.3872 103.123C35.615 104.527 42.7618 111.548 45.4872 119.43C48.755 128.879 47.595 136.682 42.7146 143.221C38.806 148.458 32.7726 152.643 24.668 156.404L25.0638 157.306C33.3043 153.482 39.4595 149.208 43.485 143.815C48.562 137.012 49.7853 128.855 46.4119 119.1C43.578 110.905 36.1833 103.631 28.5851 102.154C27.4879 101.941 26.4181 101.818 25.3723 101.758Z" fill="#004525"/>
<path d="M27.3526 154.247L27.1548 155.215C34.6283 156.729 41.3208 165.228 40.3814 173.812C39.256 184.102 28.2041 191.333 17.6917 186.687L17.2952 187.589C28.4457 192.517 40.1553 184.849 41.3504 173.922C42.3462 164.816 35.3121 155.859 27.3526 154.247Z" fill="#004525"/>
<path d="M129.954 13.5719L129.272 14.2762C134.102 18.9235 135.89 24.9104 134.73 30.9142C133.66 36.451 130.14 41.3815 125.464 43.921C116.77 48.6423 104.851 45.269 100.001 38.0011L99.1866 38.5293C104.312 46.2099 116.771 49.7734 125.926 44.8013C130.865 42.1188 134.573 36.9123 135.698 31.0902C136.921 24.7632 135.029 18.4545 129.954 13.5719Z" fill="#004525"/>
<path d="M125.112 21.4067C124.471 21.3919 123.855 21.4328 123.307 21.5391C119.725 22.2328 116.482 25.2372 116.023 27.3267C115.944 27.6901 115.915 28.0021 115.891 28.5817L116.882 28.6253C116.903 28.1007 116.927 27.8154 116.992 27.5253C117.363 25.8301 120.3 23.1279 123.506 22.5075C125.457 22.1293 128.354 22.6385 130.526 23.9597C133.299 25.6463 134.769 28.4303 134.422 32.367L135.412 32.4551C135.793 28.1387 134.143 25.0026 131.054 23.1237C129.267 22.0363 127.036 21.4511 125.112 21.4067ZM117.872 31.3762L116.904 31.5522C117.733 35.932 121.235 36.9863 123.924 35.2496C124.273 35.0249 124.615 34.5404 124.716 34.0615C124.856 33.3981 124.559 32.8002 123.858 32.4551L123.44 33.3354C123.728 33.4776 123.797 33.6326 123.748 33.8636C123.701 34.0868 123.522 34.3319 123.396 34.4136C121.251 35.7989 118.559 35.0052 117.872 31.3762Z" fill="#004525"/>
<path d="M22.2249 190.032C16.2641 194.082 14.8817 200.889 18.3297 207.154C19.3523 209.012 22.2791 210.893 25.3722 211.688C25.8891 211.82 26.4068 211.907 26.9131 211.974L27.023 211.005C26.5561 210.943 26.0934 210.842 25.6145 210.719C22.7615 209.987 20.0607 208.278 19.1882 206.692C15.9782 200.86 17.2479 194.602 22.7749 190.846L22.2249 190.032ZM34.836 201.674C34.0662 201.437 33.3423 201.69 32.8549 202.488L33.6909 203.016C33.9388 202.611 34.2022 202.513 34.5494 202.621C34.8628 202.717 35.1916 202.99 35.298 203.192C36.8544 206.163 35.4797 209.594 30.676 210.059L30.764 211.05C36.3283 210.511 38.0354 206.274 36.1783 202.73C35.9487 202.293 35.3987 201.847 34.836 201.674Z" fill="#004525"/>
<path d="M149.651 10.1831C142.29 10.6746 135.694 17.9045 135.038 26.3591L136.006 26.4246C136.714 17.3094 144.745 9.74079 152.644 11.3711C156.937 12.2571 160.771 15.5326 161.976 18.8102L162.9 18.4799C161.577 14.8811 157.468 11.3578 152.842 10.4028C151.775 10.1824 150.703 10.1126 149.651 10.1831ZM163.494 24.0259C163.354 28.9578 156.502 34.4981 152.358 32.4988C151.737 32.1995 151.268 31.8797 150.927 31.5304C150.258 30.8431 150.146 30.1536 150.334 29.5282C150.36 29.4395 150.389 29.3712 150.399 29.3521L149.519 28.9113C149.481 28.9838 149.432 29.0902 149.387 29.2416C149.103 30.1867 149.282 31.2459 150.223 32.2128C150.648 32.6488 151.22 33.0537 151.94 33.4016C156.798 35.7447 164.326 29.6325 164.484 24.0477L163.494 24.0259Z" fill="#004525"/>
<path d="M113.976 30.9585C112.08 33.0529 109.797 33.0276 107.814 31.0902L107.132 31.7945C109.503 34.1115 112.441 34.141 114.725 31.6184L113.976 30.9585Z" fill="#004525"/>
<path d="M234.184 4.98914C226.248 8.27659 220.687 9.1217 211.274 6.99203C205.295 5.63916 199.598 6.22933 194.107 8.33434C190.217 9.82525 187.223 11.6303 183.235 14.5402C179.172 17.5066 171.959 19.9658 167.962 18.4798L167.61 19.4038C172.002 21.037 179.502 18.4974 183.808 15.3544C187.73 12.4916 190.669 10.7112 194.459 9.25833C199.777 7.22022 205.276 6.6526 211.053 7.95969C220.693 10.1415 226.45 9.25058 234.558 5.89129L234.184 4.98914Z" fill="#004525"/>
<path d="M27.1548 187.897C15.0958 191.357 4.86723 206.516 6.42363 219.764C7.30818 227.295 11.9492 234.538 18.6819 238.868C25.997 243.571 34.8635 244.365 43.5287 240.452L43.1329 239.549C34.7769 243.323 26.2484 242.557 19.2101 238.031C12.7211 233.859 8.24202 226.867 7.39198 219.632C5.89192 206.866 15.8212 192.171 27.4189 188.843L27.1548 187.897Z" fill="#004525"/>
<path d="M25.1525 240.804L24.7117 241.685C35.036 246.774 39.8405 259.499 34.7473 268.93C33.2381 271.725 28.609 274.737 23.6997 276.039C22.8757 276.257 22.0609 276.409 21.2566 276.523L21.389 277.513C22.232 277.395 23.1024 277.214 23.9638 276.985C29.1126 275.619 33.9705 272.461 35.6276 269.392C40.9983 259.447 35.9572 246.131 25.1525 240.804ZM8.47016 260.567C7.80605 260.726 7.23983 261.264 6.88559 261.954C4.67986 266.246 8.25396 274.297 13.95 276.765L14.3465 275.863C9.14483 273.609 5.83695 266.169 7.7659 262.416C8.00183 261.957 8.37578 261.594 8.71242 261.514C9.11314 261.417 9.56175 261.684 10.0984 262.548L10.935 262.042C10.1956 260.853 9.34695 260.357 8.47016 260.567Z" fill="#004525"/>
<path d="M15.4691 281.783C11.0112 284.301 7.60681 287.55 6.22506 291.048C4.53555 295.329 5.91801 299.713 10.7809 303.857C18.5298 310.46 21.8715 319.025 21.2348 328.682C20.9876 332.434 19.3707 335.137 15.2043 339.994C15.105 340.11 14.0634 341.34 13.862 341.578C11.3049 344.607 9.96818 346.645 9.30688 348.995C8.47023 351.965 8.9794 355.025 11.0675 358.437L11.9035 357.93C8.36318 352.147 9.4435 348.334 14.6106 342.217C14.8099 341.98 15.8529 340.749 15.9529 340.633C20.2524 335.619 21.9595 332.782 22.225 328.748C22.8814 318.79 19.4136 309.921 11.4196 303.108C6.8603 299.224 5.62433 295.287 7.14975 291.422C8.4336 288.17 11.6739 285.059 15.9529 282.641L15.4691 281.783Z" fill="#004525"/>
<path d="M30.5218 214.065L29.7957 214.747C33.1036 218.337 33.8691 221.892 31.4246 226.345L32.305 226.807C34.9734 221.946 34.0959 217.944 30.5218 214.065Z" fill="#004525"/>
<path d="M253.705 7.71819C251.47 7.58015 250.408 7.92313 245.342 10.0288C242.645 11.1493 240.858 11.7296 238.828 12.0536C234.445 12.7529 231.481 12.2578 227.603 10.5789C226.912 10.2796 224.47 9.17741 224.258 9.08233C224.037 8.98303 223.826 8.88655 223.62 8.7964C223.371 8.68724 223.091 8.78865 222.982 9.03866C222.873 9.28797 222.974 9.5901 223.224 9.69856C223.427 9.78729 226.504 11.1986 227.207 11.5036C231.247 13.2522 234.399 13.7748 238.981 13.0438C241.106 12.705 242.954 12.0796 245.716 10.931C250.606 8.89852 251.623 8.58372 253.639 8.70837C254.121 8.73795 254.584 8.81753 255.047 8.95063C256.69 9.42037 257.297 10.7261 256.808 12.0092C256.341 13.2353 255.183 13.6558 253.969 12.736C253.752 12.5712 253.451 12.6071 253.287 12.824C253.122 13.0409 253.158 13.3635 253.375 13.5283C255.139 14.865 257.042 14.1755 257.733 12.3613C258.421 10.5521 257.547 8.63724 255.333 8.00412C254.801 7.852 254.257 7.75199 253.705 7.71819Z" fill="#004525"/>
<path d="M232.001 5.95999C231.942 3.17725 234.63 4.73578 235.549 3.91333C235.715 3.76415 236.282 2.48041 235.83 2.0067C235.724 1.89547 237.674 3.18446 236.751 4.76197C236.243 5.62892 234.486 5.87295 234.198 5.90436C233.991 5.92726 232.086 6.03849 232.007 5.98615C231.999 5.98091 232.001 5.96915 232.001 5.95999Z" fill="#004525"/>
<defs>
<linearGradient id="paint0_linear_624_694" x1="30.0932" y1="157.313" x2="24.9326" y2="161.609" gradientUnits="userSpaceOnUse">
<stop offset="0.464583" stop-color="#9D181E"/>
<stop offset="1" stop-color="#494646" stop-opacity="0.961712"/>
</linearGradient>
<linearGradient id="paint1_linear_624_694" x1="15.4018" y1="154.787" x2="8.34306" y2="159.491" gradientUnits="userSpaceOnUse">
<stop offset="0.464583" stop-color="#9D181E"/>
<stop offset="1" stop-color="#524F4F" stop-opacity="0.961712"/>
</linearGradient>
<linearGradient id="paint2_linear_624_694" x1="19.2894" y1="148.269" x2="17.812" y2="151.845" gradientUnits="userSpaceOnUse">
<stop offset="0.464583" stop-color="#87171C"/>
<stop offset="1" stop-color="#443D3D" stop-opacity="0.961712"/>
</linearGradient>
<radialGradient id="paint3_radial_624_694" cx="0" cy="0" r="1" gradientUnits="userSpaceOnUse" gradientTransform="translate(17.7152 128.499) rotate(-121.296) scale(2.91683 2.91683)">
<stop offset="0.170833" stop-color="#878276"/>
<stop offset="1"/>
</radialGradient>
<linearGradient id="paint4_linear_624_694" x1="52.1484" y1="66.2231" x2="53.2142" y2="60.3598" gradientUnits="userSpaceOnUse">
<stop offset="0.289583" stop-color="#A31118"/>
<stop offset="1"/>
</linearGradient>
<linearGradient id="paint5_linear_624_694" x1="69.5422" y1="66.3113" x2="69.1681" y2="59.2268" gradientUnits="userSpaceOnUse">
<stop stop-color="#A31118"/>
<stop offset="1" stop-color="#323030"/>
</linearGradient>
<linearGradient id="paint6_linear_624_694" x1="58.6917" y1="77.1685" x2="62.8537" y2="65.6332" gradientUnits="userSpaceOnUse">
<stop offset="0.479167" stop-color="#A31118"/>
<stop offset="1"/>
</linearGradient>
<linearGradient id="paint7_linear_624_694" x1="67.2153" y1="59.4032" x2="65.3043" y2="53.5195" gradientUnits="userSpaceOnUse">
<stop offset="0.00625" stop-color="#413D3D"/>
<stop offset="1" stop-color="#A31118"/>
</linearGradient>
<linearGradient id="paint8_linear_624_694" x1="53.8449" y1="73.6823" x2="56.9499" y2="63.5484" gradientUnits="userSpaceOnUse">
<stop offset="0.479167" stop-color="#A31118"/>
<stop offset="1" stop-color="#353333"/>
</linearGradient>
<linearGradient id="paint9_linear_624_694" x1="61.2778" y1="58.9909" x2="61.5348" y2="48.4206" gradientUnits="userSpaceOnUse">
<stop/>
<stop offset="0.479167" stop-color="#A31118"/>
</linearGradient>
</defs>
</svg>
