<svg viewBox="0 0 542 922" fill="none" xmlns="http://www.w3.org/2000/svg">
<path d="M8.02156 900.347C7.9624 906.65 10.7907 905.502 15.1183 905.059C15.3014 905.045 15.4585 905.002 15.6465 904.988C15.8381 906.192 15.6676 905.854 15.8592 907.059C17.0445 907.101 17.198 906.89 18.1769 907.284C18.3558 911.157 18.772 915.179 23.5039 914.334C19.5967 916.587 16.4233 915.608 15.374 911.925C14.0838 914.024 15.886 913.594 12.9464 916.862C12.8168 915.608 12.4316 915.841 12.302 914.58C11.5477 915.432 10.8512 915.756 10.1991 915.953C9.16878 916.263 7.8969 917.242 8.00394 917.137C8.10817 917.031 8.66876 916.327 8.80961 915.129C8.8906 914.439 8.88778 912.953 9.9998 911.989C9.9998 911.989 9.52443 912.172 8.81032 912.15C8.40467 912.136 7.8645 912.615 7.8645 912.615C9.45471 908.995 10.7597 911.214 12.2252 909.045C8.24832 909.636 4.86931 905.009 8.02156 900.347Z" fill="#004525"/>
<path d="M12.9302 744.58C13.2928 743.242 12.1196 744.615 11.3787 745.312C9.57087 747.017 6.52708 744.186 6.89892 744.319C7.38275 744.496 11.8653 744.911 11.6174 740.89C11.2533 734.988 18.517 734.636 18.9325 738.474C19.3417 742.263 16.0409 744.024 16.3782 743.376C16.8634 742.439 15.2479 741.925 15.8268 742.073C16.9465 742.362 12.8231 745.031 14.5225 746.115C14.683 746.221 12.6576 745.58 12.9302 744.58Z" fill="#004525"/>
<path d="M42.5596 758.574C43.4054 761.158 41.9138 756.693 40.3912 760.116C39.5954 761.898 37.1607 761.834 37.7453 759.081C37.9326 758.193 40.2735 756.278 38.0037 755.954C37.3227 755.855 40.8327 754.869 40.2616 757.447C39.9052 759.052 41.5673 755.538 42.5596 758.574Z" fill="#004525"/>
<path d="M31.6844 689.669C32.1457 690.071 30.2358 689.064 29.8449 692.155C29.7358 693.014 30.8957 694.5 31.514 695.162C34.6099 698.501 33.7204 700.895 30.3886 700.501C28.8245 700.325 27.6561 697.458 26.3441 698.233C25.4835 698.74 27.1941 696.233 29.166 696.853C29.8808 697.085 29.3534 697.31 29.1484 696.895C28.273 695.127 27.0068 692.536 28.9097 690.338C29.266 689.93 30.914 688.986 31.6844 689.669Z" fill="#004525"/>
<path d="M198.374 909.312C198.027 908.58 198.608 911.376 194.545 910.735C193.408 910.559 191.954 908.545 191.336 907.516C188.242 902.361 184.879 902.615 184.148 906.981C183.806 909.031 187.008 911.566 185.544 912.946C184.585 913.848 188.397 912.601 188.329 909.869C188.304 908.883 187.818 909.467 188.269 909.876C190.198 911.636 193.02 914.2 196.503 912.587C197.154 912.284 198.953 910.538 198.374 909.312Z" fill="#004525"/>
<path d="M38.382 835.344C38.7215 835.563 37.3848 835.105 37.4489 837.14C37.4665 837.711 38.3672 838.549 38.8348 838.915C41.1758 840.746 40.8462 842.387 38.6545 842.479C37.6256 842.521 36.5784 840.788 35.8101 841.422C35.3065 841.838 36.1544 840.042 37.4918 840.246C37.9763 840.317 37.6594 840.521 37.4848 840.274C36.7376 839.218 35.6544 837.676 36.6587 836.063C36.8467 835.76 37.8151 834.985 38.382 835.344Z" fill="#004525"/>
<path d="M86.0219 884.325C85.8184 883.973 86.2283 885.325 84.1972 885.191C83.6282 885.156 82.8218 884.227 82.4711 883.748C80.7168 881.346 79.0695 881.621 78.9033 883.804C78.8258 884.832 80.5168 885.938 79.8562 886.684C79.4238 887.17 81.2478 886.389 81.0928 885.044C81.0372 884.558 80.8231 884.868 81.064 885.051C82.0936 885.832 83.5986 886.966 85.2444 886.023C85.5522 885.839 86.3614 884.903 86.0219 884.325Z" fill="#004525"/>
<path d="M17.3043 722.255C19.3114 722.171 18.091 720.572 18.6501 719.967C18.7515 719.861 19.6558 719.452 20.0136 719.713C20.0974 719.776 19.098 718.621 17.9945 719.262C17.3888 719.614 17.2768 720.713 17.2642 720.889C17.2557 721.016 17.2444 722.206 17.2853 722.248C17.2895 722.255 17.298 722.255 17.3043 722.255Z" fill="#004525"/>
<path d="M131.08 914.122C130.973 912.228 129.48 913.404 128.9 912.89C128.795 912.791 128.398 911.946 128.638 911.601C128.695 911.523 127.619 912.488 128.24 913.516C128.581 914.087 129.622 914.171 129.792 914.186C129.915 914.193 131.034 914.186 131.078 914.143C131.082 914.136 131.081 914.129 131.08 914.122Z" fill="#004525"/>
<path d="M151.759 915.601C152.597 913.087 154.179 915.221 155.15 914.735C155.326 914.643 156.171 913.643 155.973 913.101C155.927 912.967 157.024 914.657 155.809 915.826C155.142 916.467 153.706 916.207 153.474 916.157C153.306 916.115 151.8 915.7 151.756 915.629C151.751 915.622 151.756 915.615 151.759 915.601Z" fill="#004525"/>
<path d="M41.4003 796.807C41.7785 797.399 42.8891 797.512 43.423 797.322C44.3758 796.984 45.4744 795.85 45.4857 795.005C45.5174 792.73 42.7786 790.631 45.6146 787.335C45.9407 786.955 47.9675 786.624 49.0281 787.666C51.1662 789.779 49.5563 791.018 50.5493 793.364C50.7423 793.821 51.5775 794.962 52.3656 795.075C52.6487 795.117 53.1001 794.991 53.3283 794.821C53.3853 794.779 53.572 794.483 53.541 794.723C53.4346 795.54 52.9614 795.899 52.3064 796.16C50.6465 796.808 49.3845 795.49 48.914 794.948C48.3746 794.321 48.8189 793.617 48.7633 793.857C48.4802 795.068 47.0787 797.413 45.7752 798.033C42.8715 799.413 41.3841 796.779 41.4003 796.807Z" fill="#004525"/>
<path d="M14.2802 769.158C15.15 768.954 16.2402 769.06 16.6402 769.187C18.0762 769.651 18.6762 772.102 16.3831 773.729C15.5514 774.321 15.2084 774.976 14.5324 775.293C13.9154 775.581 13.2598 776.088 13.0675 776.617C12.8281 777.264 12.7161 775.595 13.2929 774.99C14.0133 774.229 13.8408 773.807 13.7873 773.877C13.1098 774.729 11.6273 774.828 11.0583 774.687C10.6435 774.574 9.99414 774.616 9.75962 774.736C9.15256 775.032 10.2413 774.525 10.5075 773.518C10.6892 772.835 10.9942 772.166 12.1703 771.574C12.1703 771.574 12.1485 771.257 11.6822 771.433C10.7878 771.785 10.1843 770.729 10.1843 770.729C10.6392 771.039 10.8611 771.144 11.7463 770.461C12.3182 770.025 13.2041 769.405 14.2802 769.158Z" fill="#A31118"/>
<path d="M24.9863 760.137C23.6736 761.01 24.4497 763.271 22.4306 764.841C22.4306 764.841 20.6713 764.729 20.0847 764.003C18.3142 761.799 19.2945 758.552 22.1017 758.404C24.2532 758.299 25.3412 756.594 25.4532 756.411C25.6413 756.116 27.135 758.7 24.9863 760.137Z" fill="#A31118"/>
<path d="M32.5373 763.856C31.907 764.377 31.869 763.151 27.9928 766.039C26.592 767.081 23.9222 767.194 23.501 766.243C22.5334 764.06 25.461 761.679 27.616 762.25C30.2379 762.947 33.0176 763.454 32.5373 763.856Z" fill="url(#paint0_linear_624_694)"/>
<path d="M28.3661 778.448C28.6084 778.342 27.1097 777.152 26.5026 775.398C25.9927 773.926 26.5054 771.976 25.3554 770.687C24.2096 769.398 23.394 769.821 22.0743 770.567C18.984 772.307 22.7637 774.905 23.6243 775.743C24.9476 777.025 27.3752 778.863 28.3661 778.448Z" fill="#A31118"/>
<path d="M24.0173 768.778C25.2751 770.997 27.6287 770.975 29.0562 770.954C31.0549 770.926 32.2035 771.701 32.1951 771.652C32.1472 771.342 31.3359 769.567 31.1091 769.306C29.9506 767.954 28.9027 767.088 26.9209 767.18C26.018 767.222 25.2074 766.954 23.9764 767.426C23.5222 767.602 23.8602 768.497 24.0173 768.778Z" fill="#8C1218"/>
<path d="M14.0154 762.531C13.1745 760.292 12.995 755.418 13.4189 756.334C13.8661 757.299 14.5823 759.109 16.5683 759.545C18.1677 759.905 18.7424 761.538 18.7029 762.841C18.648 764.651 17.5677 765.82 16.3909 765.172C15.9085 764.912 14.4197 763.609 14.0154 762.531Z" fill="#A31118"/>
<path d="M16.0395 768.334C14.0746 769.412 12.8569 767.532 11.0878 768.06C7.32149 769.194 6.50174 766.764 6.85316 766.954C7.99406 767.567 9.30538 766.151 10.4294 765.32C11.9484 764.193 13.607 763.834 16.2388 765.82C16.5662 766.067 16.3719 768.151 16.0395 768.334Z" fill="url(#paint1_linear_624_694)"/>
<path d="M19.4861 771.257C18.8213 771.095 18.4114 771.666 18.0755 772.067C18.0572 772.088 18.0466 772.116 18.029 772.137C18.0135 772.159 17.9896 772.173 17.9762 772.194C16.8156 774.131 15.1887 775.497 17.1571 778.088C17.3987 778.412 18.1086 779.8 18.5445 779.898C19.1973 780.046 18.3572 779.06 19.6812 777.25C20.9587 775.497 21.0164 774.687 20.7425 773.356C20.6657 772.983 19.7157 771.313 19.4861 771.257Z" fill="url(#paint2_linear_624_694)"/>
<path d="M30.433 715.459C29.4914 715.473 29.0463 714.53 28.9041 713.48C28.8759 713.276 29.0139 713.037 29.166 712.875C30.3464 711.628 31.3077 712.734 31.5514 713.178C32.9359 715.699 32.3338 716.389 32.2458 716.368C32.2028 716.361 32.2648 715.431 30.433 715.459Z" fill="#A31118"/>
<path d="M124.266 904.601C124.291 905.333 123.555 905.692 122.736 905.819C122.575 905.847 122.387 905.742 122.259 905.622C121.269 904.713 122.12 903.946 122.464 903.756C124.422 902.636 124.969 903.101 124.954 903.171C124.948 903.199 124.219 903.164 124.266 904.601Z" fill="#A31118"/>
<path d="M165.191 901.438C164.825 902.629 165.865 903.544 167.143 904.108C167.396 904.22 167.746 904.129 168.007 903.995C170.021 902.953 168.975 901.333 168.5 900.861C165.805 898.178 164.71 898.685 164.703 898.805C164.698 898.861 165.903 899.129 165.191 901.438Z" fill="#A31118"/>
<path d="M122.487 907.214C123.68 907.862 122.95 909.524 123.666 909.439C123.884 909.411 123.136 909.904 122.794 909.341C122.79 909.333 122.844 909.615 122.842 909.791C122.839 910.115 122.502 910.27 122.409 910.552C122.378 910.65 122.392 910.855 122.387 910.841C122.35 910.707 122.28 910.573 122.209 910.453C122.053 910.193 121.734 910.115 121.609 909.819C121.573 909.735 121.587 909.404 121.554 909.538C121.399 910.179 120.467 910.249 120.797 910.115C120.902 910.073 121.245 910.08 121.007 908.855C120.812 907.855 121.602 906.728 122.487 907.214Z" fill="#A31118"/>
<path d="M166.934 906.481C164.703 907.016 165.159 910.045 164.028 909.587C163.684 909.453 164.686 910.587 165.493 909.812C165.504 909.798 165.291 910.242 165.216 910.523C165.077 911.059 165.558 911.453 165.583 911.96C165.592 912.136 165.479 912.46 165.493 912.432C165.611 912.242 165.786 912.045 165.955 911.883C166.324 911.524 166.877 911.545 167.209 911.122C167.306 911.002 167.43 910.453 167.424 910.693C167.394 911.798 168.883 912.319 168.403 911.953C168.252 911.84 167.688 911.707 168.618 909.812C169.38 908.263 168.589 906.087 166.934 906.481Z" fill="#A31118"/>
<path d="M28.1358 713.607C29.0795 714.339 28.6604 714.678 28.6978 715.593C28.7238 716.248 29.0245 716.424 29.0168 716.438C28.8055 716.776 27.9548 716.114 27.9851 716.304C28.1182 717.142 27.6787 717.114 27.9294 717.924C27.9949 718.135 27.5181 717.917 27.3195 717.797C27.1477 717.699 26.9597 717.502 26.8111 717.304C26.354 716.699 26.5871 716.002 26.5315 715.945C26.485 715.903 26.3688 716.213 26.1807 716.354C25.9962 716.494 25.7399 716.473 25.6765 716.269C25.6666 716.241 26.0709 716.325 26.1913 715.544C26.4279 714.015 27.6914 713.262 28.1358 713.607Z" fill="#A31118"/>
<path d="M122.846 906.417C123.404 905.671 123.674 905.995 124.392 905.953C124.903 905.924 125.038 905.685 125.047 905.692C125.319 905.854 124.809 906.53 124.957 906.502C125.611 906.389 125.595 906.734 126.226 906.523C126.392 906.474 126.223 906.847 126.136 907.002C126.061 907.143 125.909 907.291 125.757 907.41C125.29 907.777 124.74 907.601 124.697 907.643C124.662 907.678 124.906 907.77 125.021 907.91C125.134 908.058 125.121 908.256 124.961 908.312C124.936 908.319 124.996 908.002 124.385 907.918C123.186 907.748 122.583 906.77 122.846 906.417Z" fill="#A31118"/>
<path d="M166.699 905.037C166.12 903.573 165.538 903.974 164.386 903.594C163.567 903.319 163.453 902.875 163.435 902.875C162.922 903.023 163.455 904.347 163.224 904.234C162.21 903.763 162.084 904.326 161.148 903.713C160.901 903.551 161.01 904.235 161.082 904.53C161.145 904.784 161.324 905.094 161.519 905.354C162.12 906.157 163.092 906.122 163.141 906.213C163.182 906.284 162.748 906.319 162.496 906.509C162.248 906.685 162.182 907.023 162.419 907.178C162.455 907.199 162.498 906.657 163.531 906.791C165.558 907.052 166.972 905.72 166.699 905.037Z" fill="#A31118"/>
<path d="M29.7739 709.346C29.926 709.191 30.0957 709.036 30.2323 708.86C30.2577 708.832 30.383 708.529 30.414 708.543C30.5197 708.593 30.4704 708.98 30.5549 709.036C30.5767 709.058 31.0007 708.825 31.0528 708.804C31.3436 708.712 31.9887 708.705 32.4557 708.635C32.7768 708.586 33.0141 708.452 32.9965 708.473C32.7219 708.818 32.7634 709.727 32.5655 710.121C32.4951 710.269 32.2 710.663 32.2014 710.67C32.224 710.72 32.6874 710.628 32.6909 710.663C32.6944 710.699 32.5789 710.825 32.5571 710.867C32.3169 711.318 32.0338 711.635 31.5345 711.79C30.9584 711.973 29.6464 712.128 29.2591 711.431C28.9555 710.889 29.4527 709.684 29.7739 709.346Z" fill="#A31118"/>
<path d="M119.493 905.192C119.366 905.073 119.242 904.946 119.106 904.84C119.081 904.819 118.847 904.728 118.856 904.699C118.89 904.622 119.197 904.65 119.241 904.587C119.252 904.566 119.066 904.242 119.052 904.199C118.975 903.974 118.961 903.467 118.901 903.101C118.859 902.854 118.751 902.671 118.768 902.685C119.041 902.889 119.75 902.847 120.063 902.995C120.176 903.051 120.492 903.277 120.495 903.277C120.535 903.256 120.458 902.897 120.483 902.897C120.514 902.889 120.614 902.981 120.647 902.995C121.001 903.178 121.255 903.397 121.383 903.784C121.53 904.235 121.668 905.256 121.129 905.566C120.706 905.812 119.763 905.439 119.493 905.192Z" fill="#A31118"/>
<path d="M28.5639 709.227C29.0358 709.67 28.7048 710.48 28.547 710.628C28.0597 711.093 26.7913 711.065 26.5434 710.804C25.6624 709.867 25.9174 709.565 26.0075 708.656C26.1336 707.396 25.418 707.057 25.5709 707.086C25.7948 707.128 26.4012 706.888 27.3012 707.959C27.8118 708.565 27.8266 708.536 28.5639 709.227Z" fill="#A31118"/>
<path d="M119.414 906.143C119.754 905.763 120.389 906.016 120.51 906.136C120.882 906.509 120.875 907.502 120.672 907.699C119.95 908.404 119.709 908.206 119.001 908.15C118.014 908.066 117.755 908.629 117.776 908.509C117.806 908.333 117.613 907.861 118.436 907.143C118.904 906.735 118.882 906.727 119.414 906.143Z" fill="#A31118"/>
<path d="M172.413 906.094C172.023 905.333 170.88 905.46 170.63 905.608C169.858 906.052 169.43 907.671 169.673 908.08C170.539 909.545 171.018 909.333 172.199 909.552C173.842 909.855 174.014 910.883 174.033 910.679C174.062 910.383 174.585 909.7 173.561 908.164C172.98 907.298 173.021 907.284 172.413 906.094Z" fill="#A31118"/>
<path d="M31.1534 895.22C30.8548 895.868 30.6612 896.572 29.9949 896.664C28.847 896.826 29.2724 894.544 29.2632 894.537C29.1977 894.509 26.6272 894.664 26.8716 894.051C27.5991 892.227 30.2027 891.445 31.2112 892.671C31.3471 892.833 31.271 894.96 31.1534 895.22Z" fill="#004525"/>
<path d="M35.648 889.501C36.4058 888.727 34.705 887.17 34.0444 887.67C33.0408 888.431 32.3204 889.311 32.8479 889.762C33.026 889.917 33.0148 889.804 33.6063 890.403C34.1979 890.994 34.8895 890.269 35.648 889.501Z" fill="#004525"/>
<path d="M31.8937 889.093C30.4929 888.748 30.0549 888.783 28.5534 889.593C28.3886 889.678 27.3216 890.107 27.5491 890.079C27.7773 890.058 27.8653 890.445 28.1365 890.579C28.3738 890.706 28.7027 890.762 28.5752 890.826C27.6653 891.319 27.0498 892.093 26.2336 892.727C26.0596 892.868 25.3314 892.798 25.2025 892.903C25.1089 892.981 25.9864 893.741 27.8449 893.206C28.19 893.107 29.4605 893.093 29.7077 893.037C29.9246 892.988 30.788 892.537 30.9035 892.572C31.0514 892.607 30.4943 893.452 30.6704 894.551C30.807 895.41 31.9063 896.586 31.0204 897.53C30.6753 897.896 31.6648 897.171 31.8613 896.931C32.3916 896.284 32.4176 895.903 32.7057 895.227C32.8233 894.952 32.8684 894.706 33.0874 894.474C33.1374 894.417 32.8669 894.798 32.9106 895.03C32.9388 895.178 33.1916 895.826 33.1296 895.974C33.0691 896.115 33.3592 895.298 33.8247 894.882C34.2304 894.516 34.6663 893.579 34.705 892.903C34.8853 889.748 32.5845 889.269 31.8937 889.093Z" fill="#CEA54A"/>
<path d="M33.3043 734.432C32.9479 734.354 32.0549 734.432 31.7077 734.903C31.0373 735.819 31.812 736.425 31.4915 737.143C31.4803 737.171 30.9274 736.488 29.3541 737.58C28.6252 738.087 28.5456 739.249 29.0823 739.643C29.1097 739.664 29.6492 738.636 30.3985 738.918C32.3627 739.643 34.3015 739.643 34.8353 738.749C35.5424 737.559 34.0409 736.819 33.2339 736.058C32.8951 735.741 32.8268 735.411 33.0127 734.974C33.0803 734.819 33.643 734.509 33.3043 734.432Z" fill="#CEA54A"/>
<path d="M130.498 883.008C130.901 883.339 131.601 884.417 131.372 885.227C130.931 886.783 129.57 886.445 129.036 887.445C129.018 887.473 130.272 887.501 130.429 890.234C130.501 891.494 129.255 892.614 128.339 892.354C128.291 892.347 128.975 890.832 128.003 890.234C125.454 888.656 123.746 886.473 124.288 885.086C125.006 883.241 127.159 884.283 128.725 884.522C129.384 884.621 129.818 884.41 130.141 883.818C130.259 883.6 130.114 882.698 130.498 883.008Z" fill="#CEA54A"/>
<path d="M33.8431 739.89C34.5515 740.066 34.9952 740.833 35.7537 740.242C36.084 739.981 36.3446 739.537 36.1002 739.009C35.8326 738.425 35.5431 738.439 35.4537 738.249C35.1741 737.671 35.2678 737.411 35.6748 737.34C35.8819 737.305 35.0269 737.284 34.7783 737.622C34.6107 737.847 34.8001 738.094 34.7769 738.242C34.7473 738.432 34.8297 738.023 34.1417 738.002C33.8916 737.995 33.5346 737.904 33.5268 737.953C33.4909 738.171 33.5106 738.333 33.5332 738.46C33.6649 739.221 34.2015 739.009 33.9233 739.066C33.5297 739.15 33.3804 739.432 33.2318 739.749C33.1789 739.861 33.193 740.425 33.293 740.291C33.4853 740.037 33.686 739.847 33.8431 739.89Z" fill="#004525"/>
<path d="M124.45 886.995C123.826 886.156 122.574 885.987 122.942 884.656C123.102 884.079 123.539 883.494 124.377 883.53C125.293 883.558 125.435 883.952 125.731 883.966C126.648 884.015 126.945 883.748 126.812 883.17C126.745 882.882 127.239 884.001 126.936 884.508C126.731 884.854 126.296 884.741 126.114 884.854C125.881 884.994 126.371 884.663 126.776 885.565C126.924 885.889 127.243 886.311 127.182 886.347C126.911 886.516 126.686 886.579 126.505 886.621C125.432 886.861 125.419 886.037 125.495 886.431C125.601 887.002 125.305 887.354 124.974 887.72C124.855 887.854 124.097 888.142 124.22 887.938C124.454 887.544 124.588 887.178 124.45 886.995Z" fill="#004525"/>
<path d="M20.72 793.85C20.1861 793.216 17.941 793.019 17.2473 793.392C16.1578 793.984 13.65 796.963 14.5099 797.153C15.0049 797.265 17.4783 798.195 18.6128 797.434C19.8903 796.575 21.1038 794.723 21.0214 794.174" fill="url(#paint3_radial_624_694)"/>
<path d="M15.2873 799.406C14.5246 799.533 14.0662 799.42 13.3598 799.054C11.6738 798.181 12.457 796.329 13.1035 795.209C14.5915 792.645 13.0577 792.892 13.0922 792.885C13.9232 792.815 15.7155 795.068 14.8909 796.906C14.7472 797.23 15.7564 797.294 15.774 797.294C18.9671 797.512 18.0537 800.857 17.8191 800.709C17.7973 800.702 18.3086 798.899 15.2873 799.406Z" fill="#CEA54A"/>
<path d="M21.3094 796.561C21.3031 796.547 20.7812 796.301 20.6474 795.399C20.5854 794.984 20.8664 794.308 20.8362 794.258C20.8179 794.223 20.4277 793.941 20.3756 793.885C20.0875 793.575 19.884 793.139 19.7453 792.73C19.6946 792.582 19.6136 791.962 19.8396 791.878C19.9953 791.815 19.9692 792.202 20.1087 792.286C20.4685 792.512 20.6911 792.554 21.0995 792.681C21.5982 792.843 22.0263 793.287 22.5707 792.984C22.6271 792.956 23.3701 792.505 23.3905 792.568C23.4222 792.66 23.2982 793.47 22.7123 794.026C22.3883 794.329 22.0566 794.603 21.8228 794.92C21.7031 795.089 21.62 795.632 21.6559 795.822C21.7242 796.181 21.8763 796.66 22.0341 796.935C22.0728 796.998 21.4059 796.758 21.3094 796.561Z" fill="#004525"/>
<path d="M67.0965 858.69C66.1909 859.162 64.5781 860.268 63.9253 859.944C62.795 859.388 63.6936 857.592 63.7978 857.014C63.9443 856.19 65.1584 854.127 66.3571 853.31C66.9325 852.915 68.8783 853.07 69.1269 853.324C69.4283 853.62 70.0065 855.535 69.5678 856.275C69.1184 857.035 67.9304 858.261 67.0965 858.69Z" fill="#CEA54A"/>
<path d="M57.6743 860.697C56.0129 860.937 54.9122 858.923 53.5523 858.437C52.2853 857.986 51.0057 858.225 49.8831 858.796C49.276 859.099 48.5027 859.747 48.0232 859.416C47.7605 859.233 46.7661 858.718 46.8731 859.028C47.0196 859.444 47.4992 860.88 49.4507 860.979C51.548 861.085 52.2388 863.916 54.953 863.528C56.0763 863.367 57.201 862.627 58.0243 861.888C58.2764 861.662 58.2236 860.62 57.6743 860.697Z" fill="url(#paint4_linear_624_694)"/>
<path d="M64.5668 861.134C65.3014 860.916 66.1437 861.479 66.9719 861.134C68.5424 860.493 69.2431 858.789 70.7185 858.141C71.353 857.859 72.1636 857.831 72.8313 857.894C74.5799 858.063 76.2976 859.317 76.0743 860.233C76.0687 860.254 74.9236 859.451 73.2961 860.409C71.7094 861.345 71.3777 863.634 70.1797 864.219C69.4142 864.585 68.5269 864.719 67.6994 864.719C66.7648 864.712 65.4725 864.155 64.8514 863.381C64.0464 862.38 63.8964 861.331 64.5668 861.134Z" fill="url(#paint5_linear_624_694)"/>
<path d="M60.5491 858.648C59.3561 856.845 58.88 856.331 59.0342 854.028C59.1525 852.253 59.6624 851.063 60.7061 849.669C62.1491 847.739 61.2836 846.232 61.5364 846.141C62.078 845.936 63.0619 847.964 63.2393 848.204C64.238 849.528 64.5154 851.141 63.8753 852.732C63.2971 854.176 62.0076 854.951 61.916 856.634C61.8843 857.218 62.2203 857.852 62.4351 858.423C62.783 859.352 60.7209 858.902 60.5491 858.648Z" fill="url(#paint6_linear_624_694)"/>
<path d="M64.6436 863.74C66.7451 865.831 67.6465 865.67 68.2621 866.127C69.4445 867.001 69.4586 868.141 69.6931 869.508C69.7811 870.022 70.4854 871.487 70.8488 871.86C71.4354 872.473 69.3445 871.613 68.5677 871.071C67.4824 870.304 64.3725 869.684 63.8189 867.219C63.4175 865.423 62.366 865.169 62.5935 864.698C62.7829 864.303 63.6126 862.719 64.6436 863.74Z" fill="url(#paint7_linear_624_694)"/>
<path d="M58.4222 860.296C58.3172 860.338 57.5581 859.881 57.3235 859.768C56.5827 859.402 56.0073 858.873 55.4221 858.282C53.6938 856.556 53.0227 854.57 53.8044 852.331C53.9044 852.042 54.2108 850.591 54.4453 850.429C54.6903 850.267 54.8706 851.599 55.3692 852.12C55.8115 852.577 56.2721 853.12 56.7827 853.528C58.2412 854.697 57.4538 856.289 58.4609 857.838C58.7067 858.211 59.8434 858.965 59.8096 859.43C59.7729 859.93 58.6926 860.176 58.4222 860.296Z" fill="url(#paint8_linear_624_694)"/>
<path d="M62.0428 865.472C62.5886 866.015 62.709 867.522 62.7189 868.226C62.7449 870.134 64.8133 870.62 65.1387 872.458C65.2732 873.219 65.2338 874.078 64.964 874.818C64.9605 874.825 64.6197 875.592 64.6126 875.592C64.5816 875.592 64.3943 874.839 63.983 874.233C63.752 873.902 63.333 873.628 63.1189 873.515C61.0934 872.423 58.5877 871.022 59.2413 868.613C59.3371 868.261 59.1096 867.782 60.4498 866.24C60.6512 866.007 60.7399 865.507 60.8329 865.254C60.9709 864.874 61.8738 865.303 62.0428 865.472Z" fill="url(#paint9_linear_624_694)"/>
<path d="M60.0321 863.613C59.8871 864.493 59.9786 866.205 59.1575 866.768C58.8398 866.987 55.4242 867.444 55.3348 867.247C55.0418 866.613 55.4517 864.775 55.7151 864.134C56.2242 862.902 60.2188 862.479 60.0321 863.613Z" fill="#CEA54A"/>
<path d="M24.1144 855.127C24.0018 855.599 23.9975 853.887 21.6918 854.768C21.0467 855.014 20.4418 856.374 20.2058 857.057C19.0255 860.458 17.0212 860.726 16.0528 858.254C15.5986 857.092 17.1656 855.211 16.1352 854.578C15.4606 854.169 17.8522 854.43 18.1494 856.042C18.2572 856.627 17.8994 856.338 18.1135 856.042C19.0283 854.775 20.3692 852.923 22.6116 853.437C23.0313 853.535 24.3025 854.338 24.1144 855.127Z" fill="#004525"/>
<path d="M66.4345 895.769C65.9641 895.896 67.6747 895.847 66.8655 898.178C66.6394 898.833 65.2957 899.474 64.6225 899.727C61.2519 901.009 61.042 903.016 63.5435 903.917C64.7175 904.333 66.5528 902.713 67.212 903.727C67.6444 904.389 67.3127 902.009 65.6943 901.755C65.107 901.664 65.4007 902.016 65.6915 901.791C66.9366 900.84 68.7466 899.446 68.1677 897.22C68.0592 896.805 67.2204 895.558 66.4345 895.769Z" fill="#004525"/>
<path d="M49.1571 693.867C48.7007 692.127 50.2085 693.923 51.1613 694.839C53.4889 697.071 57.4666 693.423 56.9827 693.592C56.3531 693.818 50.5346 694.311 50.8987 689.092C51.4318 681.444 42.0131 680.916 41.4349 685.888C40.8645 690.796 45.1273 693.113 44.697 692.268C44.0773 691.057 46.1788 690.395 45.4252 690.585C43.9702 690.951 49.2908 694.451 47.0753 695.846C46.8661 695.98 49.5 695.177 49.1571 693.867Z" fill="#004525"/>
<path d="M8.03072 722.657C6.82434 726.248 8.95048 720.058 11.0308 724.833C12.1168 727.326 15.505 727.263 14.7225 723.417C14.4725 722.192 11.2365 719.488 14.3986 719.065C15.3472 718.938 10.4752 717.53 11.2407 721.121C11.7189 723.361 9.44487 718.452 8.03072 722.657Z" fill="#004525"/>
<path d="M11.7942 592.827C10.9935 593.497 14.2788 591.877 14.7929 597.13C14.9366 598.602 12.9006 601.053 11.821 602.159C6.41439 607.659 7.80812 611.758 13.4731 611.258C16.1324 611.025 18.2487 606.229 20.4361 607.603C21.8693 608.504 19.0903 604.173 15.719 605.131C14.4971 605.483 15.3803 605.898 15.7465 605.208C17.3148 602.243 19.5854 597.912 16.4648 594.102C15.8803 593.391 13.133 591.715 11.7942 592.827Z" fill="#004525"/>
<path d="M37.6643 663.577C34.262 663.415 36.353 660.724 35.4135 659.689C35.2431 659.499 33.7148 658.802 33.1056 659.238C32.962 659.344 34.6726 657.4 36.534 658.499C37.5565 659.098 37.7312 660.964 37.7502 661.267C37.7636 661.485 37.7664 663.499 37.696 663.577C37.6889 663.584 37.6748 663.577 37.6643 663.577Z" fill="#004525"/>
<path d="M15.4993 651.886C17.0958 651.928 17.8635 650.322 18.1191 648.548C18.1691 648.196 17.9388 647.794 17.6818 647.52C15.6986 645.393 14.0542 647.245 13.6351 647.998C11.2533 652.259 12.2646 653.435 12.4132 653.4C12.4865 653.386 12.3942 651.808 15.4993 651.886Z" fill="#A31118"/>
<path d="M21.1305 647.985C22.5608 650.555 26.1427 648.942 25.9765 650.499C25.9258 650.971 26.9772 649.344 25.7412 648.611C25.725 648.604 26.342 648.71 26.7187 648.703C27.43 648.696 27.7505 647.963 28.366 647.752C28.578 647.682 29.0195 647.71 28.985 647.703C28.7047 647.625 28.4019 647.478 28.1413 647.323C27.573 646.992 27.4047 646.301 26.7709 646.034C26.5842 645.956 25.8645 645.992 26.1589 645.921C27.5385 645.576 27.666 643.555 27.3822 644.273C27.292 644.499 27.3237 645.238 24.6644 644.745C22.4848 644.344 20.0685 646.076 21.1305 647.985Z" fill="#A31118"/>
<path d="M19.4199 648.773C17.81 649.999 18.5156 650.576 18.4396 652.132C18.3861 653.245 17.8748 653.541 17.8867 653.555C18.241 654.147 19.6917 653.027 19.6382 653.351C19.4016 654.766 20.1467 654.724 19.7108 656.097C19.596 656.457 20.408 656.083 20.746 655.893C21.0383 655.731 21.3594 655.4 21.6144 655.069C22.3975 654.048 22.0123 652.858 22.1073 652.766C22.1869 652.689 22.3792 653.217 22.6961 653.463C23.0067 653.703 23.4419 653.668 23.5525 653.323C23.5694 653.273 22.8827 653.407 22.6891 652.083C22.3088 649.491 20.177 648.203 19.4199 648.773Z" fill="#A31118"/>
<path d="M16.7007 641.534C16.4451 641.259 16.1591 640.991 15.9289 640.703C15.8873 640.646 15.6781 640.139 15.6253 640.16C15.4464 640.238 15.5246 640.9 15.3802 640.998C15.3422 641.027 14.6267 640.625 14.5394 640.597C14.0471 640.435 12.9541 640.414 12.1632 640.287C11.6195 640.203 11.2195 639.97 11.2484 640.005C11.7097 640.597 11.6273 642.132 11.9562 642.808C12.0745 643.055 12.5696 643.731 12.5667 643.738C12.528 643.829 11.7435 643.667 11.7378 643.717C11.7301 643.787 11.9238 644.005 11.9618 644.076C12.3625 644.837 12.8386 645.386 13.6823 645.653C14.6563 645.963 16.8789 646.245 17.5451 645.069C18.067 644.153 17.2395 642.111 16.7007 641.534Z" fill="#A31118"/>
<path d="M18.5431 641.245C17.7382 641.991 18.2882 643.358 18.5537 643.618C19.3734 644.421 21.5235 644.386 21.9475 643.942C23.4546 642.365 23.0257 641.851 22.8849 640.315C22.6891 638.174 23.906 637.604 23.6469 637.653C23.2666 637.724 22.2419 637.308 20.7024 639.104C19.827 640.125 19.8037 640.083 18.5431 641.245Z" fill="#A31118"/>
<path d="M18.1839 679.521C18.8776 679.373 20.6107 679.535 21.2791 680.465C22.5672 682.253 21.0516 683.408 21.6643 684.824C21.6847 684.873 22.77 683.556 25.8096 685.697C27.2181 686.69 27.354 688.958 26.3053 689.718C26.2518 689.761 25.2194 687.754 23.7595 688.282C19.9311 689.662 16.1641 689.634 15.1415 687.88C13.7865 685.563 16.7148 684.148 18.2945 682.69C18.9586 682.07 19.0952 681.429 18.7417 680.584C18.6121 680.274 17.5247 679.669 18.1839 679.521Z" fill="#CEA54A"/>
<path d="M17.0515 690.12C15.6719 690.451 14.7979 691.93 13.3338 690.768C12.6957 690.261 12.1964 689.402 12.6795 688.367C13.2084 687.24 13.7704 687.268 13.9479 686.909C14.4993 685.789 14.3226 685.275 13.5324 685.134C13.1296 685.064 14.7916 685.043 15.2691 685.69C15.5916 686.134 15.2198 686.613 15.2627 686.902C15.317 687.268 15.1634 686.479 16.5001 686.451C16.9875 686.437 17.6819 686.261 17.6966 686.36C17.7628 686.789 17.722 687.099 17.6762 687.353C17.4079 688.817 16.3684 688.395 16.9079 688.515C17.6727 688.684 17.9579 689.24 18.241 689.853C18.3431 690.071 18.3072 691.17 18.1136 690.909C17.7445 690.409 17.3579 690.043 17.0515 690.12Z" fill="#004525"/>
<path d="M8.08138 563.713C12.9358 564.903 11.1202 560.241 12.8731 559.178C13.1907 558.988 15.6317 558.643 16.3078 559.509C16.4662 559.713 14.8725 556.269 11.7949 557.037C10.1047 557.452 9.08001 560.002 8.92648 560.424C8.81591 560.727 7.97292 563.551 8.03841 563.692C8.04475 563.706 8.06588 563.706 8.08138 563.713Z" fill="#004525"/>
<path d="M12.3013 527.501C7.38775 526.585 10.964 523.085 9.80264 521.402C9.59277 521.092 7.5103 519.775 6.53702 520.289C6.30813 520.409 9.18149 517.923 11.6696 519.888C13.0359 520.965 12.9197 523.712 12.8859 524.162C12.8619 524.479 12.4661 527.402 12.3492 527.501C12.3372 527.515 12.3175 527.508 12.3013 527.501Z" fill="#004525"/>
<path d="M244.004 916.439C243.611 911.453 247.921 914.003 249.249 912.439C249.49 912.157 250.223 909.805 249.476 908.995C249.301 908.805 252.446 910.939 251.193 913.848C250.505 915.453 247.824 916.052 247.383 916.136C247.066 916.193 244.144 916.573 244.016 916.482C244.003 916.474 244.005 916.453 244.004 916.439Z" fill="#004525"/>
<path d="M219.424 913.552C220.731 917.58 223.285 914.193 224.83 914.982C225.111 915.122 226.448 916.735 226.124 917.608C226.048 917.813 227.823 915.122 225.897 913.249C224.839 912.214 222.543 912.615 222.171 912.693C221.903 912.749 219.491 913.397 219.419 913.51C219.412 913.517 219.42 913.538 219.424 913.552Z" fill="#004525"/>
<path d="M104.07 903.953C104.382 903.587 103.616 905.094 106.038 905.354C106.716 905.432 107.86 904.502 108.373 904.009C110.943 901.544 112.826 902.213 112.566 904.826C112.443 906.052 110.219 907.002 110.842 908.016C111.25 908.686 109.264 907.376 109.727 905.826C109.895 905.263 110.082 905.678 109.76 905.84C108.383 906.552 106.373 907.573 104.632 906.115C104.306 905.84 103.549 904.559 104.07 903.953Z" fill="#004525"/>
<path d="M27.13 713.135C26.2743 714.642 24.1686 713.678 24.2602 714.593C24.2876 714.875 23.6749 713.903 24.4074 713.48C24.4172 713.473 24.0524 713.537 23.8306 713.53C23.4108 713.523 23.2256 713.086 22.8636 712.966C22.7383 712.917 22.4777 712.931 22.4988 712.931C22.6643 712.882 22.8432 712.797 22.9981 712.706C23.3348 712.516 23.4376 712.107 23.8123 711.959C23.9228 711.91 24.3475 711.938 24.1736 711.889C23.3615 711.678 23.2961 710.487 23.4601 710.91C23.5123 711.044 23.4897 711.487 25.0609 711.206C26.3483 710.98 27.7652 712.009 27.13 713.135Z" fill="#A31118"/>
<path d="M172.703 904.516C172.962 904.383 173.222 904.228 173.49 904.115C173.539 904.094 173.962 904.045 173.957 904.002C173.94 903.847 173.424 903.77 173.383 903.643C173.371 903.608 173.821 903.157 173.861 903.094C174.088 902.763 174.333 901.946 174.592 901.375C174.77 900.988 175.028 900.734 174.995 900.749C174.457 900.974 173.321 900.587 172.744 900.692C172.537 900.727 171.923 900.96 171.919 900.953C171.861 900.903 172.147 900.354 172.107 900.333C172.058 900.319 171.856 900.418 171.795 900.432C171.138 900.572 170.628 900.812 170.248 901.389C169.81 902.051 169.132 903.664 169.873 904.411C170.452 904.995 172.155 904.798 172.703 904.516Z" fill="#A31118"/>
<path d="M9.74621 558.791C7.66866 562.235 7.19751 565.333 8.09614 568.362C8.80462 570.749 10.18 572.834 12.828 575.953C13.0196 576.179 14.0182 577.348 14.1041 577.454C18.3719 582.419 20.0164 585.116 20.2882 588.869C20.8678 596.863 18.1782 602.729 10.2526 612.462C6.47143 617.11 5.36293 622.624 6.64327 628.16C7.75247 632.949 10.635 637.393 14.126 639.949L14.6985 639.16C11.3998 636.738 8.64616 632.498 7.58978 627.934C6.37565 622.695 7.41935 617.476 11.0012 613.082C19.0698 603.173 21.8805 597.102 21.2791 588.806C20.9861 584.771 19.2529 581.933 14.852 576.813C14.7661 576.714 13.7661 575.538 13.5759 575.313C11.011 572.291 9.70113 570.298 9.04195 568.073C8.22502 565.319 8.64405 562.509 10.5829 559.291L9.74621 558.791Z" fill="#004525"/>
<path d="M190.146 907.918L189.331 908.495C193.021 913.502 195.393 915.791 199.103 917.122C203.839 918.82 209.954 918.108 218.36 914.524C225.792 911.354 230.576 911.735 237.067 914.587C237.393 914.735 239.477 915.679 239.884 915.848C240.923 916.27 241.776 916.545 242.613 916.721C245.097 917.256 247.319 916.784 249.721 915.031L249.149 914.235C246.974 915.826 245.043 916.228 242.833 915.756C241.491 915.467 241.724 915.559 237.463 913.686C230.742 910.735 225.676 910.312 217.964 913.601C209.766 917.094 203.9 917.798 199.433 916.2C195.962 914.953 193.726 912.784 190.146 907.918Z" fill="#004525"/>
<path d="M21.4327 646.555L21.2791 647.548C22.0827 647.661 22.92 647.808 23.744 648.027C28.6527 649.33 33.2824 652.344 34.7917 655.14C39.8848 664.57 35.0579 677.296 24.7342 682.387L25.1744 683.261C35.979 677.936 41.0201 664.619 35.6501 654.675C33.9923 651.604 29.1344 648.449 23.9856 647.083C23.1243 646.858 22.2764 646.675 21.4327 646.555ZM13.9718 647.301C8.27577 649.773 4.72422 657.823 6.92924 662.112C7.28418 662.802 7.8504 663.344 8.51381 663.499C9.39131 663.711 10.2399 663.218 10.9787 662.027L10.1428 661.52C9.60541 662.387 9.13497 662.654 8.73425 662.556C8.39832 662.471 8.04548 662.112 7.80956 661.654C5.88131 657.9 9.16666 650.456 14.3683 648.203L13.9718 647.301Z" fill="#004525"/>
<path d="M30.6323 681.176C26.4188 681.472 22.3834 682.852 18.7255 685.204C11.9928 689.528 7.32997 696.775 6.44542 704.304C4.88902 717.551 15.1176 732.713 27.1766 736.171L27.4632 735.228C15.8655 731.896 5.93625 717.199 7.43561 704.437C8.28564 697.205 12.7654 690.212 19.2537 686.035C26.2927 681.514 34.7994 680.746 43.1547 684.521L43.573 683.613C39.2404 681.662 34.8459 680.88 30.6323 681.176Z" fill="#004525"/>
<path d="M32.3268 697.24L31.4683 697.726C33.9128 702.177 33.1261 705.733 29.8175 709.318L30.5443 710.001C34.1177 706.128 34.9952 702.099 32.3268 697.24Z" fill="#004525"/>
<path d="M141.266 903.495L140.298 903.692C141.99 912.763 150.046 918.08 158.895 916.087C161.579 915.481 164.982 912.467 167.103 908.869C167.458 908.263 167.782 907.65 168.05 907.045L167.147 906.643C166.895 907.221 166.58 907.791 166.245 908.362C164.25 911.749 161.055 914.58 158.674 915.115C150.371 916.989 142.857 912.017 141.266 903.495ZM160.765 892.692C160.259 892.636 159.781 892.664 159.313 892.755C158.693 892.882 158.115 893.206 157.838 893.706C157.47 894.368 157.69 895.157 158.454 895.995L159.181 895.312C158.674 894.755 158.588 894.403 158.719 894.164C158.831 893.967 159.145 893.798 159.511 893.727C162.665 893.079 167.483 897.065 168.072 901.382L169.04 901.256C168.461 897.009 164.306 893.093 160.765 892.692Z" fill="#004525"/>
<path d="M26.9349 712.093C26.4286 712.163 25.9109 712.248 25.394 712.382C22.3016 713.177 19.3748 715.058 18.3515 716.917C14.9034 723.178 16.2859 729.988 22.2467 734.037L22.7974 733.221C17.2697 729.467 16 723.206 19.21 717.375C20.0825 715.79 22.784 714.079 25.6363 713.346C26.1159 713.227 26.6004 713.128 27.0666 713.065L26.9349 712.093ZM30.8083 713.022L30.7203 714.008C35.524 714.473 36.898 717.903 35.3416 720.875C35.2353 721.079 34.9071 721.354 34.5937 721.445C34.2465 721.558 33.9606 721.459 33.7134 721.051L32.8767 721.579C33.3648 722.375 34.1099 722.628 34.8796 722.396C35.4423 722.22 35.993 721.776 36.2219 721.34C38.079 717.797 36.3726 713.558 30.8083 713.022Z" fill="#004525"/>
<path d="M140.32 903.763C139.852 908.284 137.709 911.383 134.488 912.897C131.749 914.179 128.44 914.143 126.169 912.939C124.768 912.2 123.328 910.34 122.779 908.34C122.678 907.967 122.591 907.601 122.538 907.242L121.569 907.397C121.628 907.791 121.721 908.199 121.833 908.601C122.453 910.869 124.062 912.925 125.707 913.798C128.256 915.143 131.891 915.193 134.906 913.777C138.443 912.115 140.785 908.735 141.288 903.875L140.32 903.763ZM126.652 899.361C124.48 899.361 122.518 901.002 122.251 904.333L123.22 904.397C123.515 900.72 126.111 899.643 128.391 900.791C128.526 900.861 128.739 901.079 128.81 901.298C128.883 901.523 128.817 901.699 128.545 901.868L129.074 902.706C129.734 902.284 129.944 901.636 129.734 900.988C129.582 900.523 129.203 900.101 128.831 899.91C128.117 899.551 127.377 899.361 126.652 899.361Z" fill="#004525"/>
<path d="M120.051 883.713C111.28 883.713 102.589 888.762 99.869 897.354L100.815 897.643C104.255 886.783 117.827 881.86 128.237 886.353C137.29 890.262 140.852 896.086 140.276 904.199L141.244 904.291C141.85 895.755 138.071 889.523 128.634 885.452C125.905 884.276 122.974 883.713 120.051 883.713Z" fill="#004525"/>
<path d="M25.6145 734.981C22.9285 734.784 20.1051 735.249 17.317 736.481L17.7135 737.383C28.2266 732.734 39.2784 739.967 40.4038 750.256C41.3426 758.841 34.6719 767.342 27.1991 768.856L27.397 769.821C35.3558 768.208 42.3898 759.25 41.394 750.144C40.4975 741.953 33.6719 735.573 25.6145 734.981Z" fill="#004525"/>
<path d="M25.1082 766.764L24.6898 767.666C32.7951 771.426 38.8277 775.609 42.7364 780.849C47.6175 787.385 48.7774 795.188 45.5097 804.639C42.7835 812.519 35.6586 819.541 28.4315 820.942C20.0678 822.569 13.2218 819.456 10.0111 813.597C7.01869 808.132 8.1469 801.892 13.0915 798.737L12.5633 797.906C7.15179 801.35 5.92428 808.167 9.15258 814.055C12.5724 820.294 19.8277 823.619 28.6076 821.914C36.2051 820.435 43.6216 813.16 46.4562 804.97C49.8296 795.216 48.6063 787.054 43.5286 780.251C39.5031 774.863 33.3479 770.588 25.1082 766.764Z" fill="#004525"/>
<path d="M55.8312 868.726C53.3234 870.106 47.0569 878.198 44.8934 883.952C42.6722 889.868 44.1138 897.044 47.6661 897.072C49.4971 897.086 50.5535 896.241 50.593 894.981C50.6268 893.924 49.8746 892.854 48.9647 892.776C48.6936 892.762 48.4577 892.973 48.4365 893.241C48.4154 893.516 48.6274 893.748 48.8985 893.769C49.2204 893.797 49.6211 894.382 49.6028 894.959C49.5817 895.643 48.9999 896.093 47.6661 896.079C45.0751 896.065 43.799 889.678 45.8174 884.304C47.9041 878.755 54.0107 870.839 56.2932 869.585C56.5319 869.451 56.6228 869.163 56.4918 868.923C56.3601 868.684 56.0699 868.592 55.8312 868.726Z" fill="#004525"/>
<path d="M53.9163 867.909C51.3324 870.036 47.7083 873.846 44.299 877.818C43.4687 878.783 40.9151 881.41 37.0804 885.255C36.9917 885.339 29.7653 892.523 29.4653 892.826C29.2731 893.016 29.2731 893.333 29.4653 893.53C29.6583 893.72 29.9773 893.72 30.1696 893.53C30.4682 893.227 37.696 886.023 37.7847 885.938C41.6447 882.065 44.1927 879.445 45.0477 878.452C48.4224 874.522 52.0261 870.761 54.5551 868.684C54.765 868.508 54.7938 868.191 54.6206 867.98C54.4481 867.768 54.1269 867.74 53.9163 867.909Z" fill="#004525"/>
<path d="M54.3566 865.557C50.7318 869.177 43.2941 873.501 37.3228 875.325C32.424 876.825 31.1626 876.783 29.0696 875.198C28.3618 874.656 28.1013 873.761 28.3217 873.106C28.5111 872.536 28.9745 872.388 29.7302 872.86C29.9605 873.008 30.2668 872.937 30.4119 872.705C30.557 872.48 30.4887 872.17 30.2584 872.029C28.9773 871.219 27.7745 871.606 27.3752 872.797C27.0188 873.853 27.4336 875.177 28.4752 875.966C30.8725 877.783 32.438 877.832 37.6087 876.254C43.7301 874.381 51.2966 869.994 55.039 866.261C55.2319 866.071 55.2312 865.747 55.039 865.557C54.8467 865.367 54.5495 865.367 54.3566 865.557Z" fill="#004525"/>
<path d="M61.5533 865.268C61.3089 865.148 61.0131 865.247 60.8934 865.493C60.8779 865.522 60.1927 866.958 60.1448 867.05C59.8236 867.691 59.5173 868.226 59.1764 868.832C52.8198 880.149 54.977 891.818 63.4682 900.241C71.2868 907.995 82.8253 911.129 91.5059 907.46C97.3062 905.009 101.539 898.755 102.29 891.811C103.101 884.304 99.7809 877.423 92.6067 873.458C89.1058 871.522 84.6064 872.311 81.5583 875.022C78.4061 877.818 77.8744 881.719 80.8541 884.727C81.0456 884.917 81.3654 884.917 81.5583 884.727C81.752 884.536 81.7499 884.212 81.5583 884.022C79.0125 881.452 79.4582 878.219 82.2189 875.768C84.9711 873.325 89.0122 872.599 92.1222 874.318C98.9386 878.078 102.092 884.579 101.322 891.699C100.608 898.305 96.5646 904.248 91.1101 906.558C82.8274 910.059 71.703 907.03 64.1499 899.537C55.9629 891.417 53.9044 880.233 60.0349 869.318C60.3835 868.698 60.6976 868.148 61.0251 867.493C61.0737 867.395 61.7815 865.958 61.7955 865.93C61.9153 865.684 61.7977 865.388 61.5533 865.268Z" fill="#004525"/>
<path d="M35.6719 820.196C33.855 820.118 31.9563 820.33 30.0161 820.794C23.2003 822.428 17.0719 827.217 15.4465 832.239C12.0344 842.774 15.5972 853.655 23.9637 860.317C32.5436 867.148 44.2744 868.106 55.0171 861.902C55.253 861.768 55.3509 861.458 55.215 861.219C55.0791 860.986 54.7685 860.909 54.5326 861.043C44.1434 867.043 32.8444 866.127 24.5799 859.549C16.5282 853.134 13.1097 842.683 16.393 832.541C17.9015 827.886 23.7299 823.323 30.2358 821.759C37.5995 819.992 44.2117 822.259 48.0407 828.893C49.8246 831.978 49.1957 836.077 46.8301 838.901C44.4596 841.739 41.2553 842.26 38.6432 839.76C38.446 839.577 38.127 839.591 37.9389 839.788C37.7509 839.978 37.7643 840.302 37.9608 840.492C41.0229 843.415 44.8906 842.781 47.5999 839.542C50.2169 836.415 50.9035 831.879 48.8985 828.407C45.8512 823.133 41.1222 820.428 35.6719 820.196Z" fill="#004525"/>
<path d="M17.4057 858.183C12.7872 861.522 10.6886 865.001 10.759 868.508C10.8139 871.24 12.1781 873.79 14.3901 876.1C15.1732 876.916 15.9958 877.642 16.8332 878.276C17.0473 878.438 17.2374 878.564 17.4276 878.691C15.7542 880.043 14.8697 880.938 14.3464 882.325C13.5288 884.487 13.9521 886.1 16.1508 891.903C17.3043 894.938 17.8452 896.741 18.0875 898.678C18.391 901.108 18.0551 903.227 16.9212 905.15L16.5691 905.587L16.481 905.699C16.1289 906.143 16.6747 906.721 17.1409 906.404C19.3558 904.889 21.8939 904.488 25.0201 904.932C26.5793 905.143 28.0294 905.502 30.4781 906.228C36.1945 907.911 37.8876 908.185 39.9637 907.242C41.3067 906.629 42.1427 905.699 43.3744 903.939C43.5054 904.108 43.635 904.256 43.7927 904.446C44.4364 905.213 45.1766 905.974 45.9935 906.692C51.3036 911.34 57.0426 911.65 62.3238 904.727C62.797 904.108 63.2724 903.439 63.7323 902.706L62.8956 902.178C62.4519 902.889 62.0076 903.537 61.5533 904.136C56.6665 910.545 51.555 910.277 46.6323 905.96C45.8555 905.284 45.154 904.537 44.5413 903.805C44.3273 903.551 44.1505 903.333 43.9913 903.122C43.8962 902.995 43.8237 902.903 43.7927 902.861C43.5955 902.572 43.173 902.572 42.9786 902.861C41.5659 904.96 40.8497 905.777 39.5672 906.361C37.8143 907.157 36.1861 906.875 30.764 905.284C28.2717 904.544 26.7723 904.164 25.1525 903.939C22.4637 903.565 20.1622 903.833 18.0875 904.798C18.9988 902.868 19.3628 900.847 19.0776 898.565C18.8234 896.53 18.2551 894.657 17.0754 891.551C14.9901 886.051 14.581 884.501 15.2704 882.677C15.7712 881.353 16.5325 880.572 18.5276 879.022C18.8009 878.811 18.7783 878.388 18.4839 878.212C18.4353 878.184 18.3346 878.128 18.1973 878.036C17.9663 877.881 17.7064 877.691 17.4276 877.487C16.6296 876.881 15.8381 876.191 15.0944 875.416C13.0372 873.268 11.7985 870.93 11.7492 868.48C11.6858 865.339 13.6021 862.162 17.9776 859L17.4057 858.183Z" fill="#004525"/>
<path d="M11.9477 520.888C11.6808 520.944 11.4963 521.198 11.5512 521.465C12.6583 526.804 12.2696 531.269 10.5829 536.91C10.3061 537.839 9.99695 538.79 9.59271 539.994C9.39834 540.572 8.67225 542.713 8.5138 543.184C7.66799 545.692 7.08909 547.53 6.5771 549.502C4.80238 556.333 5.53481 563.65 8.40394 568.932C8.53423 569.171 8.84691 569.263 9.08636 569.129C9.3258 569.002 9.41454 568.686 9.28426 568.446C6.53767 563.39 5.80947 556.361 7.52362 549.762C8.02857 547.819 8.59901 545.973 9.43848 543.494C9.59553 543.03 10.3435 540.882 10.5392 540.297C10.947 539.086 11.2484 538.114 11.5294 537.177C13.2591 531.388 13.6633 526.782 12.5196 521.261C12.4647 521 12.214 520.831 11.9477 520.888Z" fill="#004525"/>
<path d="M115.275 902.023C113.61 901.791 111.855 902.171 109.949 903.256L110.433 904.115C113.842 902.171 116.592 902.72 119.412 905.235L120.073 904.488C118.516 903.101 116.939 902.256 115.275 902.023Z" fill="#004525"/>
<path d="M178.856 901.495C176.743 901.615 174.547 902.277 172.231 903.432L172.671 904.312C178.496 901.403 183.381 901.727 188.187 906.509L188.869 905.833C185.66 902.636 182.377 901.298 178.856 901.495Z" fill="#004525"/>
<defs>
<linearGradient id="paint0_linear_624_694" x1="30.1262" y1="766.754" x2="24.9657" y2="762.458" gradientUnits="userSpaceOnUse">
<stop offset="0.464583" stop-color="#9D181E"/>
<stop offset="1" stop-color="#494646" stop-opacity="0.961712"/>
</linearGradient>
<linearGradient id="paint1_linear_624_694" x1="15.4341" y1="769.282" x2="8.37531" y2="764.579" gradientUnits="userSpaceOnUse">
<stop offset="0.464583" stop-color="#9D181E"/>
<stop offset="1" stop-color="#524F4F" stop-opacity="0.961712"/>
</linearGradient>
<linearGradient id="paint2_linear_624_694" x1="19.3217" y1="775.796" x2="17.8444" y2="772.22" gradientUnits="userSpaceOnUse">
<stop offset="0.464583" stop-color="#87171C"/>
<stop offset="1" stop-color="#443D3D" stop-opacity="0.961712"/>
</linearGradient>
<radialGradient id="paint3_radial_624_694" cx="0" cy="0" r="1" gradientUnits="userSpaceOnUse" gradientTransform="translate(17.7475 795.568) rotate(121.297) scale(2.91682 2.91683)">
<stop offset="0.170833" stop-color="#878276"/>
<stop offset="1"/>
</radialGradient>
<linearGradient id="paint4_linear_624_694" x1="52.8855" y1="857.848" x2="53.9513" y2="863.711" gradientUnits="userSpaceOnUse">
<stop offset="0.289583" stop-color="#A31118"/>
<stop offset="1"/>
</linearGradient>
<linearGradient id="paint5_linear_624_694" x1="70.2796" y1="857.754" x2="69.9055" y2="864.838" gradientUnits="userSpaceOnUse">
<stop stop-color="#A31118"/>
<stop offset="1" stop-color="#323030"/>
</linearGradient>
<linearGradient id="paint6_linear_624_694" x1="59.4289" y1="846.899" x2="63.5909" y2="858.435" gradientUnits="userSpaceOnUse">
<stop offset="0.479167" stop-color="#A31118"/>
<stop offset="1"/>
</linearGradient>
<linearGradient id="paint7_linear_624_694" x1="67.9526" y1="864.665" x2="66.0416" y2="870.548" gradientUnits="userSpaceOnUse">
<stop offset="0.00625" stop-color="#413D3D"/>
<stop offset="1" stop-color="#A31118"/>
</linearGradient>
<linearGradient id="paint8_linear_624_694" x1="54.5821" y1="850.386" x2="57.687" y2="860.52" gradientUnits="userSpaceOnUse">
<stop offset="0.479167" stop-color="#A31118"/>
<stop offset="1" stop-color="#353333"/>
</linearGradient>
<linearGradient id="paint9_linear_624_694" x1="62.0144" y1="865.077" x2="62.2713" y2="875.647" gradientUnits="userSpaceOnUse">
<stop/>
<stop offset="0.479167" stop-color="#A31118"/>
</linearGradient>
</defs>
</svg>
