<svg viewBox="0 0 16 17" fill="none" xmlns="http://www.w3.org/2000/svg">
<path fill-rule="evenodd" clip-rule="evenodd" d="M7.44596 13.1165C10.658 13.1165 13.2618 10.5127 13.2618 7.3007C13.2618 4.0887 10.658 1.48485 7.44596 1.48485C4.23396 1.48485 1.63012 4.0887 1.63012 7.3007C1.63012 10.5127 4.23396 13.1165 7.44596 13.1165ZM7.44596 14.4459C11.3921 14.4459 14.5911 11.2469 14.5911 7.3007C14.5911 3.35452 11.3921 0.155518 7.44596 0.155518C3.49979 0.155518 0.300781 3.35452 0.300781 7.3007C0.300781 11.2469 3.49979 14.4459 7.44596 14.4459Z" fill="#B88B2E"/>
<path fill-rule="evenodd" clip-rule="evenodd" d="M14.5918 16.3262L11.2072 12.5655L12.1953 11.6763L15.5799 15.4369L14.5918 16.3262Z" fill="#B88B2E"/>
</svg>
