<svg viewBox="0 0 55 55" fill="none" xmlns="http://www.w3.org/2000/svg">
<path fill-rule="evenodd" clip-rule="evenodd" d="M45.0966 10.101C47.5772 9.05652 50.2366 11.1542 49.7986 13.8099L44.625 45.1782C44.1261 48.2027 40.8043 49.9381 38.0295 48.4309C35.7076 47.1697 32.2626 45.2286 29.1579 43.1999C27.6075 42.1868 22.8604 38.9384 23.4439 36.626C23.9428 34.6488 31.9233 27.2201 36.4837 22.8022C38.2751 21.0668 37.4592 20.0642 35.3436 21.6621C30.0955 25.6258 21.6697 31.6522 18.8833 33.3482C16.425 34.8445 15.1414 35.0999 13.6103 34.8445C10.8145 34.3786 8.22241 33.6572 6.10619 32.78C3.24595 31.5943 3.38527 27.6636 6.10425 26.5189L45.0966 10.101Z" fill="#09244B" />
</svg>
